<?xml version="1.0" encoding="utf-8"?>
<!-- Generator: Adobe Illustrator 15.1.0, SVG Export Plug-In . SVG Version: 6.00 Build 0)  -->
<!DOCTYPE svg PUBLIC "-//W3C//DTD SVG 1.1//EN" "http://www.w3.org/Graphics/SVG/1.1/DTD/svg11.dtd" [
	<!ENTITY ns_flows "http://ns.adobe.com/Flows/1.0/">
	<!ENTITY ns_extend "http://ns.adobe.com/Extensibility/1.0/">
	<!ENTITY ns_ai "http://ns.adobe.com/AdobeIllustrator/10.0/">
	<!ENTITY ns_graphs "http://ns.adobe.com/Graphs/1.0/">
]>
<svg version="1.1" id="レイヤー_1" xmlns:x="&ns_extend;" xmlns:i="&ns_ai;" xmlns:graph="&ns_graphs;"
	 xmlns="http://www.w3.org/2000/svg" xmlns:xlink="http://www.w3.org/1999/xlink" xmlns:a="http://ns.adobe.com/AdobeSVGViewerExtensions/3.0/"
	 x="0px" y="0px" width="80px" height="80px" viewBox="0 0 80 80" style="enable-background:new 0 0 80 80;" xml:space="preserve">
<path style="fill:#848484;" d="M79.2,44.8C79,21.4,66.6,17.2,58.5,17.2S47.6,24.3,47.6,27c0,2.6,0.7,9.6,7.6,9.6s5.4-5.7,5.4-5.7
	c2-0.2,3.2,7.6-4.6,7.9c-7.7,0.3-12.8-7.5-12.5-11c0.2-3.5,5.4-12.8,14-12.9c8.6-0.1,10.5,0.9,10.5,0.9c-1.6-6.4-7.2-6.5-7.2-6.5
	c-0.3-2.3-3.7-3.8-4.4-4.2c-0.7-0.4-1.6,0.3-2.1-0.8c-0.5-1.2-3.1-2-4.2-1.9C49,2.3,45.7,1.7,45,1.4c-0.7-0.3-1.9,0.8-2.6,0.3
	C41.8,1.3,40.1,1,40.1,1h-0.1c0,0-1.7,0.3-2.4,0.7c-0.7,0.5-1.9-0.5-2.6-0.2c-0.7,0.3-3.9,0.9-5.1,0.8c-1.2-0.1-3.7,0.7-4.2,1.9
	c-0.5,1.2-1.4,0.4-2.1,0.8c-0.7,0.4-4.1,1.9-4.4,4.2c0,0-5.6,0.1-7.1,6.5c0,0,1.9-1,10.5-0.9c8.6,0.1,13.7,9.3,13.9,12.8
	c0.2,3.5-4.7,11.5-12.4,11.1c-7.7-0.3-6.5-8.1-4.6-7.9c0,0-1.6,5.8,5.4,5.8c6.9,0,7.6-6.9,7.6-9.5c0-2.6-2.7-9.7-10.8-9.7
	c-8.2,0-20.5,4-20.8,27.5C0.5,68.3,28.1,79,39.9,79h0.1C51.9,79,79.5,68.3,79.2,44.8z"/>
</svg>
