<?xml version="1.0" encoding="utf-8"?>
<!-- Generator: Adobe Illustrator 16.0.0, SVG Export Plug-In . SVG Version: 6.00 Build 0)  -->
<!DOCTYPE svg PUBLIC "-//W3C//DTD SVG 1.1//EN" "http://www.w3.org/Graphics/SVG/1.1/DTD/svg11.dtd">
<svg version="1.1" id="レイヤー_1" xmlns="http://www.w3.org/2000/svg" xmlns:xlink="http://www.w3.org/1999/xlink" x="0px"
	 y="0px" width="49.25px" height="49.248px" viewBox="0 0 49.25 49.248" enable-background="new 0 0 49.25 49.248"
	 xml:space="preserve">
<path fill="#D1D1D1" d="M24.625,0.625c-13.254,0-24,10.748-24,24c0,13.254,10.746,23.998,24,23.998c13.255,0,24-10.744,24-23.998
	C48.625,11.372,37.88,0.625,24.625,0.625z M30.979,24.524h-4.155c0,6.642,0,14.821,0,14.821h-6.162c0,0,0-8.096,0-14.821h-2.928
	v-5.233h2.928V15.9c0-2.427,1.153-6.215,6.216-6.215l4.562,0.017v5.083c0,0-2.772,0-3.312,0s-1.305,0.27-1.305,1.424v3.082h4.693
	L30.979,24.524z"/>
</svg>
