<?xml version="1.0" encoding="utf-8"?>
<!-- Generator: Adobe Illustrator 16.0.0, SVG Export Plug-In . SVG Version: 6.00 Build 0)  -->
<!DOCTYPE svg PUBLIC "-//W3C//DTD SVG 1.1//EN" "http://www.w3.org/Graphics/SVG/1.1/DTD/svg11.dtd">
<svg version="1.1" id="レイヤー_1" xmlns="http://www.w3.org/2000/svg" xmlns:xlink="http://www.w3.org/1999/xlink" x="0px"
	 y="0px" width="49.25px" height="49.248px" viewBox="0 0 49.25 49.248" enable-background="new 0 0 49.25 49.248"
	 xml:space="preserve">
<g>
	<path fill="#D1D1D1" d="M20.156,22.85c0.613,0,1.13-0.242,1.53-0.699c0.628-0.715,0.905-1.888,0.741-3.134
		c-0.293-2.228-1.883-4.079-3.544-4.128l-0.066-0.001c-0.588,0-1.113,0.241-1.513,0.698c-0.62,0.706-0.88,1.824-0.717,3.066
		c0.292,2.226,1.914,4.148,3.542,4.198H20.156z"/>
	<path fill="#D1D1D1" d="M21.969,29.562c-0.163-0.11-0.333-0.228-0.507-0.348c-0.513-0.156-1.057-0.238-1.613-0.246h-0.07
		c-2.558,0-4.804,1.551-4.804,3.318c0,1.922,1.922,3.429,4.377,3.429c3.238,0,4.879-1.114,4.879-3.317
		c0-0.209-0.026-0.424-0.075-0.64C23.938,30.901,23.154,30.368,21.969,29.562z"/>
	<path fill="#D1D1D1" d="M24.624,0.625c-13.254,0-24,10.744-24,23.999c0,13.254,10.746,24,24,24c13.254,0,24-10.746,24-24
		C48.625,11.369,37.878,0.625,24.624,0.625z M22.441,37.683c-0.957,0.275-1.989,0.416-3.074,0.416c-1.206,0-2.368-0.139-3.449-0.412
		c-2.096-0.527-3.646-1.531-4.368-2.821c-0.312-0.56-0.47-1.154-0.47-1.771c0-0.636,0.153-1.278,0.452-1.916
		c1.149-2.446,4.174-4.091,7.526-4.091c0.034,0,0.065,0,0.097-0.001c-0.273-0.479-0.405-0.976-0.405-1.497
		c0-0.262,0.034-0.526,0.103-0.795c-3.516-0.082-6.147-2.655-6.147-6.05c0-2.397,1.916-4.731,4.655-5.676
		c0.82-0.283,1.657-0.427,2.479-0.427h7.518c0.256,0,0.481,0.166,0.562,0.409c0.082,0.245-0.008,0.511-0.217,0.662l-1.68,1.216
		c-0.102,0.073-0.223,0.112-0.348,0.112h-0.602c0.777,0.932,1.233,2.258,1.233,3.751c0,1.647-0.834,3.206-2.35,4.392
		c-1.171,0.912-1.218,1.161-1.218,1.685c0.015,0.287,0.831,1.221,1.729,1.855c2.099,1.483,2.878,2.938,2.878,5.367
		C27.347,34.623,25.421,36.817,22.441,37.683z M39.421,24.786c0,0.327-0.267,0.591-0.592,0.591h-4.271v4.274
		c0,0.326-0.266,0.591-0.592,0.591H32.75c-0.326,0-0.592-0.265-0.592-0.591v-4.274h-4.273c-0.324,0-0.59-0.265-0.59-0.591v-1.217
		c0-0.325,0.266-0.592,0.59-0.592h4.273v-4.272c0-0.327,0.266-0.592,0.592-0.592h1.217c0.326,0,0.592,0.265,0.592,0.592v4.272h4.271
		c0.325,0,0.592,0.267,0.592,0.592V24.786z"/>
</g>
</svg>
