<?xml version="1.0" encoding="utf-8"?>
<!-- Generator: Adobe Illustrator 16.0.0, SVG Export Plug-In . SVG Version: 6.00 Build 0)  -->
<!DOCTYPE svg PUBLIC "-//W3C//DTD SVG 1.1//EN" "http://www.w3.org/Graphics/SVG/1.1/DTD/svg11.dtd">
<svg version="1.1" id="レイヤー_1" xmlns="http://www.w3.org/2000/svg" xmlns:xlink="http://www.w3.org/1999/xlink" x="0px"
	 y="0px" width="52.157px" height="40.5px" viewBox="0 0 52.157 40.5" enable-background="new 0 0 52.157 40.5"
	 xml:space="preserve">
<path fill="#9E9E9E" d="M48.4,8.607c-1.701,0-3.078,1.379-3.078,3.08c0,0.803,0.311,1.533,0.816,2.081l-11.594,6.385l-7.661-13.58
	c1.309-0.356,2.273-1.549,2.273-2.97c0-1.701-1.379-3.078-3.079-3.078c-1.701,0-3.079,1.377-3.079,3.078
	c0,1.421,0.963,2.614,2.272,2.97l-7.661,13.58L6.019,13.768c0.504-0.548,0.815-1.278,0.815-2.081c0-1.701-1.378-3.08-3.078-3.08
	c-1.701,0-3.079,1.379-3.079,3.08c0,1.699,1.378,3.078,3.079,3.078c0.372,0,0.727-0.068,1.057-0.19l7.025,25.4h14.241h14.24
	l7.026-25.4c0.329,0.122,0.685,0.19,1.056,0.19c1.701,0,3.08-1.379,3.08-3.078C51.48,9.986,50.101,8.607,48.4,8.607z"/>
</svg>
