<?xml version="1.0" encoding="utf-8"?>
<!-- Generator: Adobe Illustrator 16.0.0, SVG Export Plug-In . SVG Version: 6.00 Build 0)  -->
<!DOCTYPE svg PUBLIC "-//W3C//DTD SVG 1.1//EN" "http://www.w3.org/Graphics/SVG/1.1/DTD/svg11.dtd">
<svg version="1.1" id="レイヤー_1" xmlns="http://www.w3.org/2000/svg" xmlns:xlink="http://www.w3.org/1999/xlink" x="0px"
	 y="0px" width="49.25px" height="49.248px" viewBox="0 0 49.25 49.248" enable-background="new 0 0 49.25 49.248"
	 xml:space="preserve">
<path fill="#D1D1D1" d="M24.626,0.624c-13.255,0-24.001,10.748-24.001,24.001c0,13.255,10.746,24,24.001,24
	c13.254,0,23.999-10.744,23.999-24C48.625,11.371,37.88,0.624,24.626,0.624z M36.716,19.786c0.013,0.26,0.019,0.521,0.019,0.782
	c0,7.994-6.085,17.208-17.209,17.208c-3.416,0-6.596-1-9.273-2.717c0.474,0.055,0.955,0.084,1.443,0.084
	c2.834,0,5.443-0.968,7.512-2.588c-2.646-0.052-4.881-1.8-5.651-4.201c0.369,0.071,0.748,0.108,1.139,0.108
	c0.552,0,1.086-0.073,1.593-0.213c-2.768-0.558-4.852-3-4.852-5.93c0-0.026,0-0.052,0.001-0.076c0.815,0.452,1.748,0.725,2.74,0.758
	c-1.624-1.088-2.692-2.938-2.692-5.036c0-1.109,0.299-2.148,0.818-3.041c2.983,3.66,7.441,6.066,12.468,6.319
	c-0.104-0.442-0.157-0.904-0.157-1.379c0-3.339,2.708-6.047,6.048-6.047c1.74,0,3.312,0.735,4.416,1.91
	c1.379-0.271,2.672-0.775,3.84-1.468c-0.451,1.414-1.41,2.598-2.66,3.346c1.226-0.146,2.392-0.472,3.476-0.953
	C38.925,17.867,37.898,18.932,36.716,19.786z"/>
</svg>
