<?xml version="1.0" encoding="utf-8"?>
<!-- Generator: Adobe Illustrator 16.0.0, SVG Export Plug-In . SVG Version: 6.00 Build 0)  -->
<!DOCTYPE svg PUBLIC "-//W3C//DTD SVG 1.1//EN" "http://www.w3.org/Graphics/SVG/1.1/DTD/svg11.dtd">
<svg version="1.1" id="レイヤー_1" xmlns="http://www.w3.org/2000/svg" xmlns:xlink="http://www.w3.org/1999/xlink" x="0px"
	 y="0px" width="49.25px" height="49.248px" viewBox="0 0 49.25 49.248" enable-background="new 0 0 49.25 49.248"
	 xml:space="preserve">
<path fill="#D1D1D1" d="M24.624,0.624c-13.255,0-24,10.746-24,24c0,13.256,10.745,24,24,24c13.256,0,24-10.744,24-24
	C48.625,11.369,37.88,0.624,24.624,0.624z M17.181,35.451c-1.742,0-3.154-1.414-3.154-3.156c0-1.743,1.413-3.155,3.154-3.155
	c1.743,0,3.156,1.412,3.156,3.155C20.337,34.037,18.923,35.451,17.181,35.451z M25.098,35.474c0-2.979-1.151-5.777-3.245-7.877
	c-2.088-2.101-4.867-3.258-7.825-3.258v-4.555c8.616,0,15.623,7.039,15.623,15.689H25.098z M33.145,35.476
	c0-10.591-8.572-19.209-19.109-19.209v-4.557c13.047,0,23.665,10.664,23.665,23.769h-4.556V35.476z"/>
</svg>
