<?xml version="1.0" encoding="utf-8"?>
<!-- Generator: Adobe Illustrator 16.0.0, SVG Export Plug-In . SVG Version: 6.00 Build 0)  -->
<!DOCTYPE svg PUBLIC "-//W3C//DTD SVG 1.1//EN" "http://www.w3.org/Graphics/SVG/1.1/DTD/svg11.dtd">
<svg version="1.1" id="レイヤー_1" xmlns="http://www.w3.org/2000/svg" xmlns:xlink="http://www.w3.org/1999/xlink" x="0px"
	 y="0px" width="98.141px" height="523.644px" viewBox="0 0 98.141 523.644" enable-background="new 0 0 98.141 523.644"
	 xml:space="preserve">
<g>
	<path d="M356.873,370.097c-4.794-30.691-18.94-50.828-39.321-77.683c-20.385-26.857-22.921-78.924-23.881-92.592
		c-0.958-13.667,0.479-89.61,2.638-114.787c2.159-25.176,2.357-65.727,1.758-71.601c-0.598-5.875-6.42-6.791-7.737-7.15
		c-0.531-0.145-11.646-0.166-24.164-0.145c-12.517-0.021-23.633,0-24.163,0.145c-1.319,0.359-7.142,1.275-7.739,7.15
		c-0.6,5.875,0.005,46.425,2.162,71.601c2.158,25.177,3.597,101.12,2.637,114.787c-0.959,13.668-3.9,65.734-24.281,92.592
		c-20.383,26.854-34.528,46.991-39.324,77.683c-4.797,30.693-2.879,52.272,0,68.101c2.877,15.824,17.025,48.914,33.331,60.423
		c15.599,11.014,30.636,18.271,57.262,18.881v0.009c0.039,0,0.076-0.003,0.116-0.003c0.039,0,0.076,0.003,0.117,0.003v-0.009
		c26.625-0.609,41.664-7.867,57.264-18.881c16.303-11.509,30.45-44.599,33.327-60.423
		C359.751,422.37,361.67,400.791,356.873,370.097z M266.165,36.854c-5.296,0-9.591-4.294-9.591-9.591
		c0-5.297,4.295-9.592,9.591-9.592c5.297,0,9.593,4.295,9.593,9.592C275.758,32.559,271.462,36.854,266.165,36.854z"/>
</g>
<path d="M96.499,458.925c-0.563-15.269,0.117-30.665-0.45-46.086c-0.79-21.522,0.546-43.45-0.059-64.976
	c-1.842-65.582-0.781-130.929-2.554-196.516c-0.719-26.592-0.061-53.324-0.776-80.077c-0.269-10.061,0.985-20.589-0.087-30.699
	c-0.431-4.048-2.076-8.919-3.573-12.837c-1.294-3.387-3.608-6.175-6.227-9.567C68.799,0.055,48.927-0.963,31.752,6.449
	c-3.855,1.664-8.016,5.688-11.693,8.707c-0.817,2.371-3.563,3.996-4.953,6.257c-2.793,4.545-5.006,10.027-6.338,14.904
	c-1.432,5.248-0.918,11.399-0.788,16.88c0.235,9.913-0.703,19.917-0.467,29.979c0.157,6.706-1.039,13.769-0.905,20.458
	c0.476,24.014-0.914,47.754-0.456,71.768c0.262,13.743-1.529,27.896-1.257,41.638c1.007,50.82-2.623,101.438-1.661,152.258
	c0.261,13.743-1.527,27.896-1.257,41.637c0.321,16.193-0.511,32.122-0.144,48.299c0.189,8.361-1.97,17.685,0.008,26.117
	c6.042,25.778,32.389,38.327,50.832,36.834c15.582-1.261,35.805-14.611,41.774-30.861C98.224,481.042,96.896,469.733,96.499,458.925
	z M49.952,44.428c-5.183,0-9.387-4.267-9.387-9.528c0-5.262,4.204-9.528,9.387-9.528c5.185,0,9.389,4.267,9.389,9.528
	C59.341,40.162,55.137,44.428,49.952,44.428z"/>
</svg>
