<?xml version="1.0" encoding="utf-8"?>
<!-- Generator: Adobe Illustrator 16.0.0, SVG Export Plug-In . SVG Version: 6.00 Build 0)  -->
<!DOCTYPE svg PUBLIC "-//W3C//DTD SVG 1.1//EN" "http://www.w3.org/Graphics/SVG/1.1/DTD/svg11.dtd">
<svg version="1.1" id="レイヤー_1" xmlns="http://www.w3.org/2000/svg" xmlns:xlink="http://www.w3.org/1999/xlink" x="0px"
	 y="0px" width="198.245px" height="541.375px" viewBox="0 0 198.245 541.375" enable-background="new 0 0 198.245 541.375"
	 xml:space="preserve">
<g>
	<g>
		<path fill="#303030" d="M97.144,132.944c0,0.347,0.213,0.64,0.64,0.88c0.36,0.227,0.727,0.34,1.1,0.34
			c1.573,0,2.54-0.547,2.9-1.64c-1.067-0.4-2.021-0.6-2.86-0.6C97.736,131.924,97.144,132.264,97.144,132.944z"/>
	</g>
	<g>
		<path fill="#303030" d="M103.503,121.304v0.34v0.52c0.373,0,0.72,0.007,1.04,0.02c-0.28-0.547-0.627-1.107-1.04-1.68
			C103.503,120.811,103.503,121.077,103.503,121.304z"/>
	</g>
	<g>
		<path fill="#303030" d="M96.443,101.064h-0.9v1.5c0.253-0.333,0.606-0.833,1.061-1.5H96.443z"/>
	</g>
	<g>
		<path fill="#303030" d="M92.923,70.064c-0.787,0.28-1.18,0.693-1.18,1.24c0,0.653,0.4,1.14,1.2,1.46
			c0.586,0.24,1.26,0.36,2.02,0.36c1.28,0,2.22-0.18,2.82-0.54c0.733-0.453,1.113-1.26,1.14-2.42c-1.399-0.28-2.787-0.42-4.16-0.42
			C94.097,69.744,93.483,69.851,92.923,70.064z"/>
	</g>
	<g>
		<path fill="#303030" d="M194.191,384.627c-5.01-32.35-12.793-53.574-34.09-81.879c-21.302-28.31-16.637-83.188-17.641-97.595
			c-1.001-14.405,0.5-94.451,2.756-120.988c2.257-26.536,2.464-69.277,1.838-75.469c-0.625-6.192-6.709-7.158-8.086-7.536
			c-0.556-0.153-26.485-0.175-39.566-0.153c-13.079-0.022-42.1,0-42.654,0.153c-1.379,0.378-7.463,1.344-8.087,7.536
			c-0.626,6.192,0.005,48.933,2.259,75.469c2.256,26.537,3.759,106.583,2.756,120.988c-1.002,14.407,5.329,69.285-15.969,97.595
			c-21.298,28.305-28.081,49.529-33.092,81.879c-5.012,32.352-3.008,55.097,0,71.78c3.006,16.678,17.791,51.556,34.83,63.687
			c16.3,11.608,32.014,19.259,59.837,19.9v0.01c0.042,0,0.08-0.003,0.121-0.003c0.042,0,0.08,0.003,0.123,0.003v-0.01
			c27.823-0.642,43.538-8.292,59.84-19.9c17.035-12.131,31.819-47.009,34.826-63.687
			C197.199,439.724,199.204,416.979,194.191,384.627z M97.402,16.161c5.535,0,10.025,4.527,10.025,10.11
			c0,5.583-4.49,10.109-10.025,10.109c-5.533,0-10.021-4.526-10.021-10.109C87.381,20.688,91.869,16.161,97.402,16.161z
			 M92.743,91.965c0.187,0.867,0.46,1.3,0.82,1.3c0.239,0,0.496-0.28,0.77-0.84s0.616-0.84,1.03-0.84
			c0.267,0,0.496,0.097,0.689,0.29s0.29,0.423,0.29,0.69c0,0.12-0.02,0.24-0.06,0.36c-0.24,0.653-0.573,1.187-1,1.6
			c-0.507,0.493-1.067,0.727-1.68,0.7h-0.2c-1.268-0.054-2.107-0.894-2.521-2.52c-0.213-0.84-0.319-2.18-0.319-4.02
			c0-3.106,0.213-5.873,0.64-8.3c0.026-0.187,0.04-0.36,0.04-0.52c0-0.533-0.16-0.926-0.48-1.18c-0.307-0.16-0.613-0.327-0.92-0.5
			s-0.46-0.447-0.46-0.82c0-0.267,0.097-0.497,0.29-0.69c0.193-0.193,0.424-0.29,0.69-0.29c0.093,0,0.187,0.014,0.28,0.04
			c0.8,0.227,1.43,0.647,1.89,1.26s0.689,1.34,0.689,2.18c0,0.267-0.026,0.56-0.079,0.88c-0.4,2.227-0.601,4.88-0.601,7.96
			C92.543,90.319,92.609,91.405,92.743,91.965z M92.843,134.504c0.16-0.347,0.32-0.687,0.48-1.02c0.187-0.387,0.479-0.58,0.88-0.58
			c0.28,0,0.517,0.097,0.71,0.29c0.193,0.193,0.29,0.423,0.29,0.69c0,0.094-0.021,0.193-0.06,0.3c-0.48,1.573-1.247,2.36-2.301,2.36
			c-1.173,0-1.939-0.88-2.3-2.64c-0.173-0.827-0.26-2.16-0.26-4c0-3.413,0.173-6.313,0.52-8.7c0.027-0.2,0.04-0.38,0.04-0.54
			c0-0.56-0.133-0.98-0.399-1.26c-0.24-0.16-0.487-0.327-0.74-0.5c-0.254-0.173-0.38-0.426-0.38-0.76c0-0.267,0.097-0.497,0.29-0.69
			s0.423-0.29,0.689-0.29c0.106,0,0.221,0.02,0.341,0.06c0.706,0.24,1.253,0.693,1.64,1.36c0.347,0.6,0.52,1.293,0.52,2.08
			c0,0.253-0.02,0.533-0.06,0.84c-0.32,2.253-0.48,5.04-0.48,8.36C92.263,132.451,92.456,133.998,92.843,134.504z M103.783,127.564
			c0.093,1.387,0.133,2.533,0.12,3.44v0.3c2.213,1.134,3.72,2.454,4.52,3.96c0.08,0.16,0.12,0.32,0.12,0.48
			c0,0.267-0.097,0.497-0.29,0.69c-0.193,0.193-0.423,0.29-0.689,0.29c-0.36,0-0.647-0.16-0.86-0.48
			c-0.72-1.134-1.767-2.093-3.14-2.88c-0.36,0.92-0.987,1.62-1.881,2.1c-0.812,0.44-1.746,0.66-2.8,0.66
			c-0.934,0-1.773-0.287-2.52-0.86c-0.787-0.64-1.181-1.414-1.181-2.32c0-0.973,0.387-1.733,1.16-2.28
			c0.693-0.48,1.547-0.72,2.561-0.72c0.906,0,1.913,0.18,3.02,0.54c-0.08-1.413-0.193-3.533-0.34-6.36
			c-0.653,0.013-1.693,0.087-3.12,0.22c-1.373,0.134-2.406,0.2-3.1,0.2c-0.267,0-0.497-0.097-0.69-0.29
			c-0.193-0.193-0.29-0.43-0.29-0.71c0-0.52,0.273-0.84,0.82-0.96c1.066-0.24,3.173-0.387,6.32-0.44
			c-0.027-1.76,0.06-3.153,0.26-4.18c0.106-0.533,0.42-0.8,0.939-0.8c0.641,0,1.467,0.767,2.48,2.3c0.854,1.307,1.4,2.367,1.64,3.18
			c0.2,0.2,0.301,0.433,0.301,0.7c0,0.28-0.098,0.517-0.29,0.71c-0.194,0.194-0.424,0.29-0.69,0.29c-0.066,0-0.14-0.013-0.22-0.04
			c-0.507-0.093-1.3-0.153-2.38-0.18C103.576,124.231,103.649,125.377,103.783,127.564z M105.973,142.624
			c-0.26-0.267-0.729-0.4-1.409-0.4h-9.601c-1.054,0-2.08-0.28-3.08-0.84s-1.779-1.293-2.34-2.2c-0.106-0.187-0.16-0.373-0.16-0.56
			c0-0.267,0.097-0.497,0.29-0.69s0.424-0.29,0.69-0.29c0.333,0,0.606,0.147,0.819,0.44c1.094,1.44,2.354,2.16,3.78,2.16h9.601
			c1.213,0,2.146,0.327,2.8,0.98s0.979,1.587,0.979,2.8v8c0,1.213-0.399,2.16-1.199,2.84c-0.747,0.627-1.74,0.94-2.98,0.94h-9.8
			c-1.521,0-2.594,0.347-3.22,1.04c-0.228,0.24-0.487,0.36-0.78,0.36c-0.267,0-0.497-0.097-0.69-0.29
			c-0.193-0.193-0.29-0.423-0.29-0.69c0-0.214,0.073-0.42,0.221-0.62c0.439-0.613,1.159-1.08,2.159-1.4
			c0.801-0.24,1.667-0.36,2.601-0.36h9.8c1.467,0,2.2-0.58,2.2-1.74v-8.08C106.363,143.357,106.233,142.891,105.973,142.624z
			 M105.683,187.204c-0.253-0.146-0.76-0.22-1.52-0.22h-13.8c-0.267,0-0.497-0.097-0.69-0.29s-0.29-0.43-0.29-0.71
			c0-0.267,0.097-0.496,0.29-0.69c0.193-0.192,0.424-0.29,0.69-0.29h13.8c2.653,0,3.98,1.194,3.98,3.58
			c0,2.547-0.688,4.601-2.061,6.16c-1.427,1.613-3.4,2.42-5.92,2.42h-4.8c-1.934,0-3.4,0.287-4.4,0.86
			c-0.187,0.093-0.366,0.14-0.54,0.14c-0.267,0-0.497-0.097-0.689-0.29c-0.193-0.193-0.29-0.423-0.29-0.689
			c0-0.334,0.146-0.607,0.439-0.82c1.066-0.773,2.894-1.16,5.48-1.16h4.8c1.986,0,3.507-0.626,4.56-1.88
			c0.96-1.146,1.44-2.727,1.44-4.74C106.163,187.877,106.003,187.417,105.683,187.204z M108.883,200.445
			c-0.453,1.119-1.286,2.013-2.5,2.68c-1.12,0.627-2.326,0.939-3.62,0.939h-6c-0.187,1.2-0.359,2.5-0.52,3.9c0.467,0,0.933,0,1.4,0
			c2.56,0,4.52-0.153,5.88-0.46c0.08-0.013,0.159-0.021,0.239-0.021c0.267,0,0.497,0.098,0.69,0.29
			c0.193,0.194,0.29,0.424,0.29,0.69c0,0.493-0.247,0.813-0.74,0.96c-1.187,0.347-3.307,0.521-6.359,0.521
			c-0.534,0-1.067-0.007-1.601-0.021c-0.066,0.84-0.1,1.467-0.1,1.88c0,1.8,0.439,3.054,1.319,3.76
			c0.787,0.641,2.094,0.96,3.92,0.96c1.841,0,3.181-0.3,4.021-0.899c1-0.707,1.5-1.927,1.5-3.66c0-2.106-0.413-3.64-1.24-4.6
			c-0.187-0.227-0.28-0.46-0.28-0.7c0-0.267,0.097-0.497,0.29-0.69s0.424-0.29,0.69-0.29c0.253,0,0.486,0.094,0.7,0.28
			c0.586,0.547,1.053,1.487,1.399,2.82c0.267,1.093,0.4,2.16,0.4,3.199c0,4.348-2.453,6.521-7.36,6.521
			c-0.493,0-1.026-0.021-1.6-0.06c-1.907-0.134-3.354-0.794-4.34-1.98c-0.934-1.133-1.4-2.687-1.4-4.66
			c0-0.453,0.033-1.106,0.101-1.96c-1.107-0.066-1.773-0.113-2-0.14c-0.801-0.08-1.447-0.2-1.94-0.36s-0.74-0.479-0.74-0.96
			c0-0.267,0.097-0.496,0.29-0.689s0.424-0.29,0.69-0.29c0.08,0,0.166,0.013,0.26,0.04c0.813,0.199,2.026,0.347,3.64,0.439
			c0.146-1.347,0.313-2.62,0.5-3.82c-1,0-2.02-0.366-3.06-1.1c-1.014-0.693-1.747-1.5-2.2-2.42c-0.08-0.16-0.12-0.32-0.12-0.48
			c0-0.267,0.097-0.496,0.29-0.689s0.424-0.29,0.69-0.29c0.373,0,0.666,0.173,0.88,0.52c0.36,0.587,0.833,1.12,1.42,1.601
			c0.707,0.587,1.34,0.88,1.9,0.88h0.52c0.093-0.521,0.273-1.287,0.54-2.3c0.16-0.467,0.474-0.7,0.94-0.7
			c0.267,0,0.496,0.097,0.689,0.29s0.29,0.423,0.29,0.689c0,0.16-0.06,0.487-0.18,0.98c-0.16,0.627-0.247,0.974-0.26,1.04h5.659
			c0.907,0,1.74-0.193,2.5-0.58c0.827-0.427,1.42-1.026,1.78-1.8c0.2-0.413,0.507-0.62,0.92-0.62c0.267,0,0.497,0.097,0.69,0.29
			s0.29,0.423,0.29,0.689C108.943,200.198,108.923,200.325,108.883,200.445z M108.683,180.264c-0.479,0.533-1.173,0.953-2.079,1.26
			c-0.801,0.267-1.614,0.4-2.44,0.4h-10c-0.827,0-1.64-0.134-2.44-0.4c-0.906-0.307-1.6-0.727-2.079-1.26
			c-0.174-0.2-0.261-0.427-0.261-0.681c0-0.267,0.097-0.496,0.29-0.689s0.424-0.29,0.69-0.29s0.507,0.107,0.72,0.32
			c0.72,0.68,1.747,1.02,3.08,1.02h10c1.333,0,2.36-0.34,3.08-1.02c0.213-0.213,0.453-0.32,0.72-0.32s0.497,0.097,0.69,0.29
			s0.29,0.423,0.29,0.689C108.943,179.837,108.856,180.064,108.683,180.264z M108.863,159.484c-0.787,1.934-3.427,3.08-7.92,3.44
			v3.74c1.88,0,3.566,0.04,5.06,0.12c0.427,0.014,1.047,0.06,1.86,0.14c0.586,0.107,0.88,0.434,0.88,0.98
			c0,0.28-0.097,0.52-0.29,0.72c-0.193,0.2-0.424,0.293-0.69,0.28l-0.119-0.02c-2.867-0.16-5.101-0.24-6.7-0.24v2.46
			c0,1.693-0.507,3.047-1.521,4.06s-2.366,1.52-4.06,1.52c-2.267,0-3.7,0.24-4.3,0.72c-0.24,0.187-0.474,0.28-0.7,0.28
			c-0.267,0-0.497-0.097-0.69-0.29c-0.193-0.193-0.29-0.423-0.29-0.69c0-0.24,0.094-0.474,0.28-0.7c0.733-0.853,2.633-1.28,5.7-1.28
			c1.146,0,2.036-0.317,2.67-0.95c0.633-0.633,0.95-1.523,0.95-2.67v-2.46c-1.641,0.013-4.48,0.127-8.521,0.34l-0.1,0.02
			c-0.267,0.014-0.497-0.08-0.69-0.28c-0.193-0.2-0.29-0.44-0.29-0.72c0-0.546,0.293-0.873,0.88-0.98
			c0.307-0.053,1.233-0.12,2.78-0.2c1.773-0.08,3.753-0.133,5.94-0.16v-3.62c-1.16,0.053-2.554,0.073-4.181,0.06h-4.439
			c-0.267,0-0.497-0.1-0.69-0.3c-0.193-0.2-0.29-0.433-0.29-0.7s0.097-0.497,0.29-0.69s0.424-0.29,0.69-0.29l4.02,0.02
			c2.707,0,4.74-0.053,6.101-0.16c2.812-0.227,4.727-0.667,5.739-1.32c0.347-0.227,0.624-0.54,0.83-0.94
			c0.207-0.4,0.511-0.6,0.91-0.6c0.267,0,0.497,0.097,0.69,0.29s0.29,0.423,0.29,0.69
			C108.943,159.237,108.916,159.364,108.863,159.484z M108.653,122.454c-0.193,0.193-0.424,0.29-0.69,0.29
			c-0.467,0-0.78-0.227-0.939-0.68c-0.4-1.12-1.014-2.22-1.841-3.3c-0.133-0.187-0.199-0.394-0.199-0.62
			c0-0.267,0.097-0.497,0.29-0.69c0.192-0.193,0.423-0.29,0.689-0.29c0.307,0,0.566,0.127,0.78,0.38
			c0.387,0.48,0.826,1.16,1.32,2.04c0.586,1.027,0.88,1.747,0.88,2.16C108.943,122.024,108.847,122.261,108.653,122.454z
			 M108.653,115.954c-0.193,0.193-0.424,0.29-0.69,0.29c-0.093,0-0.18-0.007-0.26-0.02c-2.88-0.787-4.32-2.507-4.32-5.16
			c0-3.08,0.407-6.287,1.221-9.62c0.053-0.213,0.079-0.393,0.079-0.54c0-0.293-0.093-0.44-0.279-0.44
			c-0.32,0-0.714,0.193-1.181,0.58c-0.293,0.24-1.173,1.06-2.64,2.46c-1.813,1.72-3.493,3.347-5.04,4.88v6.88
			c0,0.267-0.097,0.497-0.29,0.69c-0.193,0.193-0.423,0.29-0.689,0.29c-0.268,0-0.497-0.097-0.69-0.29
			c-0.193-0.193-0.29-0.423-0.29-0.69v-4.88c-1.106,1.147-1.92,2.04-2.439,2.68c-0.2,0.253-0.447,0.38-0.74,0.38
			c-0.28,0-0.521-0.09-0.721-0.27c-0.199-0.18-0.3-0.417-0.3-0.71c0-0.16,0.026-0.293,0.08-0.4l0.061-0.1
			c0.466-0.92,1.112-2.006,1.939-3.26c0.707-1.04,1.413-2.087,2.12-3.14v-4.5h-0.74c-0.906,0-1.71-0.336-2.41-1.01
			c-0.699-0.673-1.05-1.47-1.05-2.39c0-0.267,0.097-0.497,0.29-0.69s0.424-0.29,0.69-0.29c0.413,0,0.713,0.207,0.899,0.62
			c0.146,0.387,0.294,0.773,0.44,1.16c0.227,0.414,0.606,0.62,1.14,0.62h0.74c0-0.08-0.007-0.22-0.02-0.42
			c-0.014-0.2-0.021-0.36-0.021-0.48c0-1,0.34-1.5,1.021-1.5c0.68,0,1.02,0.5,1.02,1.5c0,0.12-0.007,0.28-0.02,0.48
			c-0.014,0.2-0.021,0.34-0.021,0.42c0.934,0,1.613,0.08,2.04,0.24c0.707,0.267,1.061,0.793,1.061,1.58
			c0,0.507-0.207,1.034-0.62,1.58c-0.268,0.36-0.761,1.08-1.48,2.16c1.173-1.16,2.96-2.853,5.36-5.08c0.84-0.72,1.673-1.08,2.5-1.08
			c0.68,0,1.227,0.23,1.64,0.69s0.62,1.037,0.62,1.73c0,0.307-0.054,0.66-0.16,1.06c-0.773,3.04-1.16,6.074-1.16,9.1
			c0,0.947,0.261,1.673,0.78,2.18c0.4,0.387,1.1,0.74,2.1,1.06c0.48,0.16,0.721,0.48,0.721,0.96
			C108.943,115.531,108.847,115.761,108.653,115.954z M108.063,80.786c0.586,0.093,0.88,0.42,0.88,0.98
			c0,0.28-0.097,0.517-0.29,0.71s-0.424,0.29-0.69,0.29c-0.333,0-0.8-0.02-1.399-0.06c-0.667-0.04-1.141-0.067-1.42-0.08v7.34
			c0,2.027-0.587,3.494-1.761,4.4c-1.026,0.787-2.566,1.18-4.62,1.18c-0.267,0-0.496-0.097-0.689-0.29s-0.29-0.423-0.29-0.69
			c0-0.267,0.097-0.497,0.29-0.69c0.193-0.193,0.423-0.29,0.689-0.29c1.521,0,2.601-0.22,3.24-0.66
			c0.787-0.546,1.18-1.533,1.18-2.96v-7.36h-0.779c-1.507,0-2.86,0.02-4.061,0.06c-0.16,0-0.473,0.02-0.939,0.06
			c-0.414,0.027-0.733,0.04-0.96,0.04c-0.28,0-0.527-0.087-0.74-0.26c-0.214-0.173-0.32-0.393-0.32-0.66c0-0.626,0.3-0.98,0.9-1.06
			c0.2-0.027,0.793-0.053,1.78-0.08c1.333-0.053,2.767-0.08,4.3-0.08h0.819c0-1.293,0.467-2.353,1.4-3.18
			c0.866-0.773,1.96-1.193,3.28-1.26h0.1c0.267-0.013,0.497,0.08,0.69,0.28c0.193,0.2,0.29,0.434,0.29,0.7
			c0,0.56-0.294,0.887-0.88,0.98c-1.947,0.307-2.92,1.047-2.92,2.22v0.3C105.81,80.652,106.783,80.692,108.063,80.786z
			 M100.883,68.624c1.653,0.467,3.134,1.093,4.44,1.88c1.586,0.947,2.746,2.04,3.479,3.28c0.094,0.173,0.141,0.346,0.141,0.52
			c0,0.267-0.097,0.497-0.29,0.69c-0.193,0.193-0.424,0.29-0.69,0.29c-0.333,0-0.613-0.154-0.84-0.46
			c-1.373-1.92-3.453-3.307-6.24-4.16c-0.187,2.946-2.16,4.42-5.92,4.42c-1.359,0-2.514-0.28-3.46-0.84
			c-1.146-0.693-1.72-1.673-1.72-2.94c0-1.173,0.56-2.08,1.68-2.72c0.934-0.533,2.033-0.8,3.3-0.8c1.36,0,2.74,0.126,4.141,0.38
			c-0.014-0.387-0.073-1.773-0.181-4.16c-0.079-1.693-0.119-3.086-0.119-4.18c0-1.587,0.06-2.667,0.18-3.24s0.446-0.86,0.979-0.86
			c0.267,0,0.497,0.097,0.69,0.29s0.29,0.423,0.29,0.69c0,0.333-0.03,0.847-0.09,1.54c-0.061,0.693-0.09,1.213-0.09,1.56l0.02,0.56
			c0.44,0.027,0.854,0.04,1.24,0.04c1.227,0,2.153-0.1,2.78-0.3c0.96-0.307,1.612-0.9,1.96-1.78c0.08-0.2,0.22-0.787,0.42-1.76
			c0.12-0.56,0.446-0.84,0.979-0.84c0.267,0,0.497,0.097,0.69,0.29s0.29,0.423,0.29,0.69c0,2.04-0.747,3.533-2.24,4.48
			c-1.214,0.787-2.867,1.18-4.96,1.18c-0.36,0-0.733-0.006-1.12-0.02C100.703,63.744,100.79,65.837,100.883,68.624z"/>
	</g>
</g>
</svg>
