<?xml version="1.0" encoding="utf-8"?>
<!-- Generator: Adobe Illustrator 18.1.1, SVG Export Plug-In . SVG Version: 6.00 Build 0)  -->
<svg version="1.1" id="レイヤー_1" xmlns="http://www.w3.org/2000/svg" xmlns:xlink="http://www.w3.org/1999/xlink" x="0px"
	 y="0px" viewBox="-15 292.8 580.6 209.2" enable-background="new -15 292.8 580.6 209.2" xml:space="preserve">
<g>
	<path fill="#444444" d="M226.4,443.5l-3.7,0.1c-1.4,0-2,0.2-2.4,0.7c-0.2,0.4-0.4,0.7-0.4,0.9s-0.1,0.3-0.3,0.3s-0.2-0.1-0.2-0.4
		c0-0.4,0.5-2.6,0.5-2.8c0.1-0.3,0.1-0.5,0.3-0.5s0.4,0.2,1.1,0.3c0.7,0.1,1.7,0.1,2.5,0.1h9.8c0.8,0,1.3-0.1,1.7-0.1
		c0.4-0.1,0.6-0.1,0.7-0.1c0.2,0,0.2,0.1,0.2,0.5c0,0.5-0.1,2.2-0.1,2.9c0,0.2-0.1,0.4-0.2,0.4c-0.2,0-0.2-0.1-0.3-0.5V445
		c0-0.6-0.7-1.3-2.9-1.4l-3.1-0.1v10.1c0,2.3,0,4.2,0.1,5.3c0.1,0.7,0.2,1.2,1,1.3c0.3,0,0.9,0.1,1.3,0.1c0.3,0,0.4,0.1,0.4,0.2
		c0,0.2-0.2,0.2-0.5,0.2c-1.6,0-3.2-0.1-3.9-0.1c-0.6,0-2.1,0.1-3.1,0.1c-0.3,0-0.5-0.1-0.5-0.2c0-0.1,0.1-0.2,0.4-0.2
		c0.4,0,0.7,0,0.9-0.1c0.5-0.1,0.6-0.6,0.7-1.4c0.1-1,0.1-3,0.1-5.3v-10H226.4z"/>
	<path fill="#444444" d="M240.6,449.3c0-3.8,0-4.4,0-5.2c0-0.8-0.2-1.2-1.1-1.4c-0.2-0.1-0.6-0.1-1-0.1c-0.3,0-0.4,0-0.4-0.2
		s0.2-0.2,0.5-0.2c0.7,0,1.4,0,2,0s1.2,0,1.6,0c0.8,0,5.7,0,6.2,0s0.9-0.1,1.1-0.1c0.1,0,0.3-0.1,0.4-0.1s0.1,0.1,0.1,0.2
		c0,0.2-0.1,0.5-0.2,1.6c0,0.2-0.1,1.3-0.1,1.6c0,0.1-0.1,0.3-0.2,0.3c-0.2,0-0.2-0.1-0.2-0.3s0-0.6-0.1-0.9
		c-0.2-0.4-0.4-0.7-1.7-0.9c-0.4,0-3-0.1-3.5-0.1c-0.1,0-0.2,0.1-0.2,0.2v6.3c0,0.2,0,0.3,0.2,0.3c0.5,0,3.4,0,4,0
		c0.6-0.1,1-0.1,1.2-0.4c0.2-0.2,0.3-0.3,0.4-0.3s0.2,0,0.2,0.2c0,0.1-0.1,0.5-0.2,1.8c0,0.5-0.1,1.5-0.1,1.7c0,0.2,0,0.5-0.2,0.5
		s-0.2-0.1-0.2-0.2c0-0.2,0-0.6-0.1-0.9c-0.1-0.5-0.5-0.9-1.4-1c-0.5,0-2.9-0.1-3.5-0.1c-0.1,0-0.1,0.1-0.1,0.2v2c0,0.8,0,3.1,0,3.8
		c0,1.7,0.4,2.1,3,2.1c0.6,0,1.7,0,2.3-0.3c0.6-0.3,0.9-0.8,1.1-1.8c0-0.3,0.1-0.4,0.3-0.4c0.2,0,0.2,0.2,0.2,0.4
		c0,0.6-0.2,2.2-0.3,2.7c-0.2,0.6-0.4,0.6-1.3,0.6c-1.9,0-3.2,0-4.3-0.1c-1.1,0-1.8-0.1-2.6-0.1c-0.3,0-0.8,0-1.4,0s-1.2,0-1.7,0
		c-0.3,0-0.5-0.1-0.5-0.2c0-0.1,0.1-0.2,0.4-0.2c0.4,0,0.7,0,0.9-0.1c0.5-0.1,0.6-0.6,0.7-1.4c0.1-1,0.1-3,0.1-5.3v-4.2H240.6z"/>
	<path fill="#444444" d="M257.7,457.5c0,1.9,0.4,2.6,0.9,2.7c0.4,0.1,0.9,0.2,1.3,0.2c0.3,0,0.4,0,0.4,0.2s-0.2,0.2-0.6,0.2
		c-1.6,0-2.6-0.1-3.1-0.1c-0.2,0-1.4,0.1-2.7,0.1c-0.3,0-0.5,0-0.5-0.2c0-0.1,0.1-0.2,0.4-0.2s0.8,0,1.1-0.1
		c0.6-0.2,0.7-0.9,0.8-3.1l0.2-14.6c0-0.5,0.1-0.8,0.3-0.8c0.3,0,0.5,0.3,0.9,0.8c0.3,0.3,4.1,4.4,7.7,7.9c1.7,1.7,5,5.2,5.4,5.6
		h0.1l-0.2-11.1c0-1.5-0.2-2-0.8-2.2c-0.4-0.1-1-0.1-1.3-0.1s-0.4-0.1-0.4-0.2c0-0.2,0.3-0.2,0.6-0.2c1.3,0,2.5,0.1,3,0.1
		c0.3,0,1.2-0.1,2.4-0.1c0.3,0,0.6,0,0.6,0.2c0,0.1-0.1,0.2-0.4,0.2c-0.2,0-0.4,0-0.7,0.1c-0.7,0.2-0.9,0.7-0.9,2.1l-0.3,15.6
		c0,0.5-0.1,0.8-0.3,0.8c-0.3,0-0.6-0.3-0.8-0.5c-1.6-1.5-4.7-4.7-7.3-7.3c-2.7-2.7-5.4-5.8-5.9-6.2h-0.1L257.7,457.5z"/>
	<path fill="#444444" d="M278.3,460.5c-0.4-0.2-0.5-0.3-0.5-0.8c0-1.4,0.1-2.8,0.1-3.2c0-0.4,0.1-0.6,0.3-0.6c0.2,0,0.2,0.2,0.2,0.4
		c0,0.3,0.1,0.8,0.2,1.3c0.5,1.8,2,2.5,3.5,2.5c2.2,0,3.3-1.5,3.3-2.8c0-1.2-0.4-2.3-2.4-4l-1.1-0.9c-2.7-2.1-3.7-3.9-3.7-5.9
		c0-2.7,2.3-4.7,5.7-4.7c1.6,0,2.6,0.2,3.3,0.4c0.2,0,0.3,0.1,0.3,0.3c0,0.3-0.1,1-0.1,3c0,0.5-0.1,0.7-0.3,0.7
		c-0.2,0-0.2-0.1-0.2-0.4c0-0.2-0.1-1-0.6-1.6c-0.4-0.5-1.1-1.2-2.7-1.2c-1.8,0-2.9,1.1-2.9,2.5c0,1.1,0.6,2,2.6,3.6l0.7,0.5
		c3,2.2,4.1,4,4.1,6.3c0,1.4-0.5,3.1-2.3,4.3c-1.2,0.8-2.6,1-3.9,1C280.5,461.2,279.4,461,278.3,460.5z"/>
	<path fill="#444444" d="M306.8,450c0.1,0,0.1,0,0.1-0.2v-0.5c0-3.8,0-4.4-0.1-5.2c0-0.8-0.2-1.2-1.1-1.4c-0.2-0.1-0.6-0.1-1-0.1
		c-0.3,0-0.4,0-0.4-0.2s0.2-0.2,0.5-0.2c1.3,0,2.9,0.1,3.6,0.1c0.6,0,2.2-0.1,3.1-0.1c0.3,0,0.5,0,0.5,0.2s-0.1,0.2-0.4,0.2
		c-0.2,0-0.4,0-0.7,0.1c-0.7,0.1-0.9,0.5-0.9,1.4c0,0.8,0,1.5,0,5.2v4.4c0,2.3,0,4.2,0.1,5.3c0.1,0.7,0.2,1.2,1,1.3
		c0.3,0,0.9,0.1,1.3,0.1c0.3,0,0.4,0.1,0.4,0.2c0,0.2-0.2,0.2-0.5,0.2c-1.6,0-3.2-0.1-3.9-0.1c-0.6,0-2.1,0.1-3.1,0.1
		c-0.3,0-0.5-0.1-0.5-0.2c0-0.1,0.1-0.2,0.4-0.2c0.4,0,0.7,0,0.9-0.1c0.5-0.1,0.6-0.6,0.7-1.4c0.1-1,0.1-3,0.1-5.3v-2.2
		c0-0.1-0.1-0.1-0.1-0.1h-9.4c-0.1,0-0.1,0-0.1,0.1v2.2c0,2.3,0,4.2,0.1,5.3c0.1,0.7,0.2,1.2,1,1.3c0.3,0,0.9,0.1,1.3,0.1
		c0.3,0,0.4,0.1,0.4,0.2c0,0.2-0.2,0.2-0.5,0.2c-1.6,0-3.2-0.1-3.9-0.1c-0.6,0-2.1,0.1-3.1,0.1c-0.3,0-0.5-0.1-0.5-0.2
		c0-0.1,0.1-0.2,0.4-0.2c0.4,0,0.7,0,0.9-0.1c0.5-0.1,0.6-0.6,0.7-1.4c0.1-1,0.1-3,0.1-5.3v-4.4c0-3.8,0-4.4,0-5.2
		c0-0.8-0.2-1.2-1.1-1.4c-0.2-0.1-0.6-0.1-1-0.1c-0.3,0-0.4,0-0.4-0.2s0.2-0.2,0.5-0.2c1.3,0,2.9,0.1,3.6,0.1c0.6,0,2.2-0.1,3.1-0.1
		c0.3,0,0.5,0,0.5,0.2s-0.1,0.2-0.4,0.2c-0.2,0-0.4,0-0.7,0.1c-0.7,0.1-0.9,0.5-0.9,1.4c0,0.8,0,1.5,0,5.2v0.5
		c0,0.1,0.1,0.2,0.1,0.2h9.3V450z"/>
	<path fill="#444444" d="M318.1,449.3c0-3.8,0-4.4,0-5.2c0-0.8-0.3-1.3-0.8-1.4c-0.3-0.1-0.6-0.1-0.9-0.1c-0.2,0-0.4,0-0.4-0.2
		c0-0.1,0.2-0.2,0.6-0.2c0.9,0,2.5,0.1,3.2,0.1c0.6,0,2.1-0.1,3-0.1c0.3,0,0.5,0,0.5,0.2s-0.1,0.2-0.4,0.2s-0.4,0-0.7,0.1
		c-0.7,0.1-0.9,0.5-0.9,1.4c0,0.8,0,1.5,0,5.2v4.4c0,2.4,0,4.4,0.1,5.4c0.1,0.7,0.2,1.1,1,1.2c0.3,0,0.9,0.1,1.3,0.1
		c0.3,0,0.4,0.1,0.4,0.2c0,0.2-0.2,0.2-0.5,0.2c-1.6,0-3.2-0.1-3.9-0.1c-0.6,0-2.1,0.1-3.1,0.1c-0.3,0-0.5-0.1-0.5-0.2
		c0-0.1,0.1-0.2,0.4-0.2c0.4,0,0.7,0,0.9-0.1c0.5-0.1,0.6-0.5,0.7-1.2c0.1-1,0.1-3,0.1-5.4v-4.4H318.1z"/>
	<path fill="#444444" d="M330.7,457.5c0,1.9,0.4,2.6,0.9,2.7c0.4,0.1,0.9,0.2,1.3,0.2c0.3,0,0.4,0,0.4,0.2s-0.2,0.2-0.6,0.2
		c-1.6,0-2.6-0.1-3.1-0.1c-0.2,0-1.4,0.1-2.7,0.1c-0.3,0-0.5,0-0.5-0.2c0-0.1,0.1-0.2,0.4-0.2s0.8,0,1.1-0.1
		c0.6-0.2,0.7-0.9,0.8-3.1l0.2-14.6c0-0.5,0.1-0.8,0.3-0.8c0.3,0,0.5,0.3,0.9,0.8c0.3,0.3,4.1,4.4,7.7,7.9c1.7,1.7,5,5.2,5.4,5.6
		h0.1l-0.2-11.1c0-1.5-0.2-2-0.8-2.2c-0.4-0.1-1-0.1-1.3-0.1s-0.4-0.1-0.4-0.2c0-0.2,0.3-0.2,0.6-0.2c1.3,0,2.5,0.1,3,0.1
		c0.3,0,1.2-0.1,2.4-0.1c0.3,0,0.6,0,0.6,0.2c0,0.1-0.1,0.2-0.4,0.2c-0.2,0-0.4,0-0.7,0.1c-0.7,0.2-0.9,0.7-0.9,2.1l-0.3,15.6
		c0,0.5-0.1,0.8-0.3,0.8c-0.3,0-0.6-0.3-0.8-0.5c-1.6-1.5-4.7-4.7-7.3-7.3c-2.7-2.7-5.4-5.8-5.9-6.2h-0.1L330.7,457.5z"/>
	<path fill="#444444" d="M357.9,444.5c-0.3-0.9-0.6-1.5-0.9-1.8c-0.3-0.2-0.8-0.2-1-0.2s-0.4,0-0.4-0.2s0.2-0.2,0.5-0.2
		c1.3,0,2.6,0.1,2.9,0.1c0.2,0,1.3-0.1,2.7-0.1c0.3,0,0.5,0.1,0.5,0.2c0,0.2-0.2,0.2-0.4,0.2c-0.2,0-0.4,0-0.6,0.1
		c-0.2,0.1-0.3,0.3-0.3,0.5c0,0.3,0.2,1.2,0.5,2.3c0.4,1.6,2.7,9.1,3.2,10.5h0.1l4.8-12.9c0.2-0.7,0.4-0.9,0.6-0.9
		c0.3,0,0.4,0.4,0.7,1.2l5.2,12.5h0.1c0.4-1.7,2.4-8.2,3.3-11.1c0.2-0.6,0.2-1.1,0.2-1.4c0-0.4-0.2-0.7-1.2-0.7
		c-0.2,0-0.4-0.1-0.4-0.2c0-0.2,0.2-0.2,0.6-0.2c1.3,0,2.3,0.1,2.6,0.1c0.2,0,1.2-0.1,2.1-0.1c0.3,0,0.4,0,0.4,0.2s-0.1,0.2-0.3,0.2
		c-0.2,0-0.6,0-0.9,0.1c-0.6,0.2-0.9,1.2-1.4,2.6c-1.1,3.1-3.7,11-4.9,14.7c-0.3,0.9-0.4,1.2-0.7,1.2c-0.2,0-0.4-0.3-0.8-1.2
		l-5.1-12.4l0,0c-0.5,1.3-3.8,10-4.8,12.3c-0.5,1-0.6,1.3-0.9,1.3c-0.2,0-0.3-0.3-0.6-0.9L357.9,444.5z"/>
	<path fill="#444444" d="M386.4,451c0-3.2,0-3.8,0-4.4c0-0.7-0.2-0.9-0.9-1.1c-0.2,0-0.5-0.1-0.9-0.1c-0.2,0-0.4-0.1-0.4-0.2
		s0.2-0.2,0.5-0.2c1.1,0,2.5,0,3.1,0c0.7,0,5.5,0,5.9,0s0.7-0.1,0.9-0.1c0.1,0,0.2-0.1,0.3-0.1c0.1,0,0.1,0.1,0.1,0.2
		s-0.1,0.4-0.2,1.4c0,0.2-0.1,1.1-0.1,1.4c0,0.1-0.1,0.3-0.2,0.3s-0.2-0.1-0.2-0.3c0-0.1,0-0.5-0.1-0.8c-0.2-0.4-0.3-0.7-1.4-0.8
		c-0.4,0-3-0.1-3.4-0.1c-0.1,0-0.1,0.1-0.1,0.2v5.2c0,0.1,0,0.2,0.1,0.2c0.5,0,3.3,0,3.8,0s0.8-0.1,1-0.3c0.2-0.1,0.2-0.3,0.3-0.3
		c0.1,0,0.2,0.1,0.2,0.2s0,0.5-0.2,1.5c0,0.4-0.1,1.3-0.1,1.4c0,0.2,0,0.5-0.2,0.5c-0.1,0-0.2-0.1-0.2-0.2c0-0.2,0-0.5-0.1-0.8
		c-0.1-0.4-0.4-0.7-1.2-0.8c-0.4,0-2.9-0.1-3.4-0.1c-0.1,0-0.1,0.1-0.1,0.2v1.7c0,0.7,0,2.5,0,3.1c0,1.4,0.7,1.8,2.9,1.8
		c0.6,0,1.5,0,2.1-0.3c0.5-0.2,0.8-0.7,0.9-1.6c0-0.2,0.1-0.3,0.2-0.3c0.2,0,0.2,0.3,0.2,0.5c0,0.5-0.2,1.9-0.3,2.3
		c-0.1,0.5-0.3,0.5-1.2,0.5c-1.6,0-2.9,0-4-0.1c-1.1,0-1.9,0-2.5,0c-0.2,0-0.7,0-1.2,0s-1.1,0-1.5,0c-0.3,0-0.4-0.1-0.4-0.2
		c0-0.1,0.1-0.2,0.3-0.2c0.3,0,0.6,0,0.8-0.1c0.4-0.1,0.6-0.5,0.6-1.1c0.1-0.9,0.1-2.5,0.1-4.5V451H386.4z"/>
	<path fill="#444444" d="M400.7,451c0-3.2,0-3.8,0-4.4c0-0.7-0.2-0.9-0.9-1.1c-0.2,0-0.5-0.1-0.9-0.1c-0.2,0-0.4-0.1-0.4-0.2
		s0.2-0.2,0.5-0.2c1.1,0,2.5,0,2.9,0c1.1,0,2.5,0,3.3,0c3.9,0,4.6,2,4.6,3.1c0,1.6-1.2,2.9-2.4,3.7c1.8,0.6,4,2.1,4,4.5
		c0,2.2-1.8,4.6-5.8,4.6c-0.2,0-1,0-1.7-0.1c-0.7,0-1.5,0-1.9,0c-0.2,0-0.7,0-1.2,0s-1.1,0-1.5,0c-0.3,0-0.4-0.1-0.4-0.2
		c0-0.1,0.1-0.2,0.3-0.2c0.3,0,0.6,0,0.8-0.1c0.4-0.1,0.6-0.5,0.6-1.1c0.1-0.9,0.1-2.5,0.1-4.5V451z M403.5,451.3
		c0,0.2,0.1,0.2,0.1,0.2c0.2,0,0.5,0.1,1,0.1c0.7,0,1.3-0.1,1.7-0.4c0.6-0.4,1-1.2,1-2.2c0-1.4-0.8-3.2-2.7-3.2c-0.3,0-0.7,0-0.9,0
		c-0.1,0-0.2,0.1-0.2,0.3V451.3z M403.5,457.5c0,1.4,0.1,1.8,0.8,2.1c0.6,0.2,1.1,0.2,1.6,0.2c1.2,0,2.7-0.6,2.7-3
		c0-1-0.4-2.6-2.1-3.7c-0.4-0.3-1-0.5-1.9-0.5h-0.9c-0.1,0-0.1,0-0.1,0.1v4.8H403.5z"/>
	<path fill="#444444" d="M414.8,444.5c-0.3-0.9-0.6-1.5-0.9-1.8c-0.3-0.2-0.8-0.2-1-0.2s-0.4,0-0.4-0.2s0.2-0.2,0.5-0.2
		c1.3,0,2.6,0.1,2.9,0.1s1.3-0.1,2.7-0.1c0.3,0,0.5,0.1,0.5,0.2c0,0.2-0.2,0.2-0.4,0.2c-0.2,0-0.4,0-0.6,0.1
		c-0.2,0.1-0.3,0.3-0.3,0.5c0,0.3,0.2,1.2,0.5,2.3c0.4,1.6,2.7,9.1,3.2,10.5h0.1l4.8-12.9c0.2-0.7,0.4-0.9,0.6-0.9
		c0.3,0,0.4,0.4,0.7,1.2l5.1,12.4h0.1c0.4-1.7,2.4-8.2,3.3-11.1c0.2-0.6,0.2-1.1,0.2-1.4c0-0.4-0.2-0.7-1.2-0.7
		c-0.2,0-0.4-0.1-0.4-0.2c0-0.2,0.2-0.2,0.6-0.2c1.3,0,2.3,0.1,2.6,0.1c0.2,0,1.2-0.1,2.1-0.1c0.3,0,0.4,0,0.4,0.2
		c0,0.2-0.1,0.2-0.3,0.2c-0.2,0-0.6,0-0.9,0.1c-0.6,0.2-0.9,1.2-1.4,2.6c-1.1,3.1-3.7,11-4.9,14.7c-0.3,0.9-0.4,1.2-0.7,1.2
		c-0.2,0-0.4-0.3-0.8-1.2l-5.1-12.4l0,0c-0.5,1.3-3.8,10-4.8,12.3c-0.5,1-0.6,1.3-0.9,1.3c-0.2,0-0.3-0.3-0.6-0.9L414.8,444.5z"/>
	<path fill="#444444" d="M441,452.9c0-3.6,2.5-8.2,9.1-8.2c5.5,0,8.9,3,8.9,7.9c0,4.8-3.5,8.6-9.1,8.6
		C443.5,461.1,441,456.6,441,452.9z M455.8,453.3c0-4.6-2.8-7.5-6.3-7.5c-2.4,0-5.3,1.3-5.3,6.5c0,4.3,2.5,7.7,6.6,7.7
		C452.3,459.9,455.8,459.2,455.8,453.3z"/>
	<path fill="#444444" d="M463.8,451c0-3.2,0-3.8,0-4.4c0-0.7-0.2-0.9-0.9-1.1c-0.2,0-0.5-0.1-0.9-0.1c-0.2,0-0.4-0.1-0.4-0.2
		s0.2-0.2,0.5-0.2c1.1,0,2.5,0,3,0c0.7,0,2.7,0,3.4,0c1.4,0,3,0.1,4.1,0.9c0.6,0.4,1.5,1.5,1.5,2.9c0,1.6-0.9,2.9-3,4.6
		c1.9,2.4,3.5,4.3,4.8,5.6c1.2,1.2,2,1.3,2.3,1.4c0.2,0,0.3,0,0.5,0s0.3,0.1,0.3,0.2c0,0.2-0.1,0.2-0.4,0.2h-2.1
		c-1.2,0-1.8-0.1-2.4-0.4c-0.9-0.5-1.8-1.5-3-3.1c-0.9-1.1-1.8-2.5-2.1-2.9c-0.1-0.1-0.2-0.1-0.4-0.1h-2c-0.1,0-0.2,0-0.2,0.2v0.3
		c0,2,0,3.6,0.1,4.5c0.1,0.6,0.2,1,0.8,1.1c0.3,0,0.8,0.1,1.1,0.1c0.2,0,0.3,0.1,0.3,0.2s-0.2,0.2-0.4,0.2c-1.3,0-3.1-0.1-3.4-0.1
		c-0.4,0-1.8,0.1-2.7,0.1c-0.3,0-0.4-0.1-0.4-0.2s0.1-0.2,0.3-0.2c0.3,0,0.6,0,0.8-0.1c0.4-0.1,0.6-0.5,0.6-1.1
		c0.1-0.9,0.1-2.5,0.1-4.5V451H463.8z M466.6,452.6c0,0.2,0,0.3,0.2,0.4c0.5,0.1,1.1,0.2,1.7,0.2c0.9,0,1.2-0.1,1.5-0.3
		c0.7-0.5,1.4-1.4,1.4-3.1c0-3-2-3.7-3.3-3.7c-0.5,0-1.1,0-1.3,0.1c-0.1,0-0.2,0.1-0.2,0.3L466.6,452.6L466.6,452.6z"/>
	<path fill="#444444" d="M483.6,451.9L483.6,451.9c0.8-0.8,4-3.9,4.6-4.6s1.1-1.2,1.1-1.6c0-0.2-0.1-0.4-0.3-0.4
		c-0.2,0-0.3-0.1-0.3-0.2c0-0.1,0.1-0.2,0.3-0.2c0.5,0,1.7,0,2.2,0c0.7,0,1.9,0,2.5,0c0.2,0,0.4,0,0.4,0.2c0,0.1-0.1,0.2-0.3,0.2
		c-0.3,0-0.9,0.1-1.3,0.2c-0.7,0.2-1.4,0.7-2.3,1.6c-0.7,0.6-3.9,3.7-4.6,4.5c0.8,1,5,5.4,5.9,6.2c1,0.9,1.8,1.8,3,2.2
		c0.6,0.3,1.1,0.3,1.3,0.3c0.2,0,0.3,0.1,0.3,0.2c0,0.1-0.1,0.2-0.5,0.2h-1.9c-0.6,0-1,0-1.5,0c-1.2-0.1-1.9-0.5-2.8-1.4
		c-0.9-0.8-5.1-5.7-5.6-6.3l-0.2-0.3h-0.1v1.9c0,1.9,0,3.6,0,4.5c0,0.6,0.2,1,0.8,1.1c0.3,0,0.8,0.1,1.1,0.1c0.2,0,0.3,0.1,0.3,0.2
		c0,0.1-0.2,0.2-0.4,0.2c-1.2,0-2.8-0.1-3.3-0.1s-1.9,0.1-2.7,0.1c-0.3,0-0.4-0.1-0.4-0.2c0-0.1,0.1-0.2,0.3-0.2
		c0.3,0,0.6,0,0.8-0.1c0.4-0.1,0.6-0.5,0.6-1.1c0.1-0.9,0.1-2.5,0.1-4.5v-3.7c0-3.2,0-3.8,0-4.4c0-0.7-0.2-0.9-0.9-1.1
		c-0.2,0-0.5-0.1-0.9-0.1c-0.2,0-0.4-0.1-0.4-0.2c0-0.1,0.2-0.2,0.5-0.2c1.1,0,2.5,0,3,0s2.1,0,2.8,0c0.3,0,0.5,0,0.5,0.2
		c0,0.1-0.1,0.2-0.3,0.2c-0.2,0-0.3,0-0.6,0.1c-0.6,0.1-0.8,0.4-0.8,1.1c0,0.7,0,1.3,0,4.4L483.6,451.9L483.6,451.9z"/>
	<path fill="#444444" d="M496.5,460.5c-0.3-0.1-0.4-0.2-0.4-0.7c0-1.1,0.1-2.4,0.1-2.8c0-0.3,0.1-0.5,0.3-0.5c0.2,0,0.2,0.2,0.2,0.3
		c0,0.3,0.1,0.7,0.2,1.1c0.5,1.6,2.1,2.1,3.5,2.1c1.9,0,3-1.2,3-2.7c0-0.9-0.2-1.8-2.2-3l-1.3-0.7c-2.6-1.5-3.4-2.9-3.4-4.8
		c0-2.6,2.5-4.2,5.5-4.2c1.4,0,2.5,0.2,3.1,0.3c0.2,0,0.3,0.1,0.3,0.3c0,0.3-0.1,0.9-0.1,2.5c0,0.4-0.1,0.7-0.3,0.7
		c-0.1,0-0.2-0.1-0.2-0.4c0-0.2-0.1-0.8-0.6-1.4c-0.3-0.4-1-1-2.4-1c-1.6,0-3,0.8-3,2.2c0,0.9,0.3,1.7,2.3,2.8l0.9,0.5
		c2.9,1.6,3.8,3.2,3.8,5.1c0,1.6-0.6,2.8-2.2,3.9c-1,0.7-2.5,0.9-3.6,0.9C498.8,461.1,497.4,461,496.5,460.5z"/>
	<path fill="#444444" d="M522.3,451.8c0,0,0.1,0,0.1-0.1v-0.4c0-3.2,0-4,0-4.6c0-0.7-0.2-0.9-0.9-1.1c-0.2,0-0.5-0.1-0.8-0.1
		c-0.2,0-0.4-0.1-0.4-0.2c0-0.1,0.1-0.2,0.5-0.2c1.2,0,2.7,0,3.3,0c0.5,0,2,0,2.8,0c0.3,0,0.5,0,0.5,0.2c0,0.1-0.1,0.2-0.4,0.2
		c-0.2,0-0.4,0-0.6,0.1c-0.6,0.1-0.7,0.4-0.8,1.1c0,0.7,0,1.3,0,4.4v3.7c0,1.9,0,3.6,0.1,4.5c0.1,0.6,0.2,1,0.9,1.1
		c0.3,0,0.8,0.1,1.1,0.1c0.2,0,0.3,0.1,0.3,0.2s-0.2,0.2-0.4,0.2c-1.4,0-2.8-0.1-3.4-0.1c-0.5,0-2,0.1-2.9,0.1
		c-0.3,0-0.5-0.1-0.5-0.2s0.1-0.2,0.3-0.2c0.3,0,0.6,0,0.8-0.1c0.4-0.1,0.6-0.5,0.6-1.1c0.1-0.9,0.1-2.5,0.1-4.4v-1.6
		c0-0.1-0.1-0.1-0.1-0.1h-8.2c-0.1,0-0.1,0-0.1,0.1v1.6c0,1.9,0,3.5,0.1,4.4c0.1,0.6,0.2,1,0.8,1.1c0.3,0,0.8,0.1,1.1,0.1
		c0.2,0,0.3,0.1,0.3,0.2s-0.2,0.2-0.4,0.2c-1.4,0-2.9-0.1-3.5-0.1c-0.5,0-1.9,0.1-2.8,0.1c-0.3,0-0.4-0.1-0.4-0.2s0.1-0.2,0.3-0.2
		c0.3,0,0.6,0,0.8-0.1c0.4-0.1,0.6-0.5,0.6-1.1c0.1-0.9,0.1-2.5,0.1-4.5v-3.7c0-3.2,0-3.8,0-4.4c0-0.7-0.2-0.9-0.9-1.1
		c-0.2,0-0.5-0.1-0.9-0.1c-0.2,0-0.4-0.1-0.4-0.2c0-0.1,0.2-0.2,0.5-0.2c1.2,0,2.6,0,3.2,0c0.5,0,2,0,2.9,0c0.3,0,0.4,0,0.4,0.2
		c0,0.1-0.1,0.2-0.4,0.2c-0.2,0-0.4,0-0.6,0.1c-0.6,0.1-0.8,0.4-0.8,1.1c0,0.7,0,1.4,0,4.6v0.4c0,0.1,0.1,0.1,0.1,0.1H522.3z"/>
	<path fill="#444444" d="M530.1,452.9c0-3.6,2.5-8.2,9.1-8.2c5.5,0,8.9,3,8.9,7.9c0,4.8-3.5,8.6-9.1,8.6
		C532.7,461.1,530.1,456.6,530.1,452.9z M544.9,453.3c0-4.6-2.8-7.5-6.3-7.5c-2.4,0-5.3,1.3-5.3,6.5c0,4.3,2.5,7.7,6.6,7.7
		C541.4,459.9,544.9,459.2,544.9,453.3z"/>
	<path fill="#444444" d="M552.9,451c0-3.2,0-3.8,0-4.4c0-0.7-0.2-0.9-0.9-1.1c-0.2,0-0.5-0.1-0.9-0.1c-0.2,0-0.4-0.1-0.4-0.2
		s0.2-0.2,0.5-0.2c1.1,0,2.5,0,3.1,0c0.9,0,2.6,0,3.6,0c2.7,0,3.7,0.9,4.1,1.2c0.5,0.4,1.1,1.4,1.1,2.5c0,3-2.4,5.1-5.5,5.1
		c-0.1,0-0.5,0-0.6,0s-0.3-0.1-0.3-0.2c0-0.2,0.2-0.3,0.7-0.3c1.2,0,2.9-1.3,2.9-3.4c0-0.7-0.1-2.1-1.3-3.1
		c-0.8-0.7-1.7-0.8-2.2-0.8c-0.3,0-0.7,0-0.9,0.1c-0.1,0-0.2,0.2-0.2,0.4v8.3c0,1.9,0,3.6,0.1,4.5c0.1,0.6,0.2,1,0.8,1.1
		c0.3,0,0.8,0.1,1.1,0.1c0.2,0,0.3,0.1,0.3,0.2c0,0.1-0.2,0.2-0.4,0.2c-1.5,0-3-0.1-3.6-0.1c-0.5,0-1.9,0.1-2.7,0.1
		c-0.3,0-0.4-0.1-0.4-0.2c0-0.1,0.1-0.2,0.3-0.2c0.3,0,0.6,0,0.8-0.1c0.4-0.1,0.6-0.5,0.6-1.1c0.1-0.9,0.1-2.5,0.1-4.5V451H552.9z"
		/>
</g>
<g>
	<path fill="#444444" d="M228.2,487.4c0,2,0,3.6,0.1,4.4c0.1,0.6,0.2,1.1,0.8,1.1c0.3,0,0.7,0.1,1,0.1s0.4,0.1,0.4,0.2
		c0,0.1-0.1,0.2-0.5,0.2c-1.3,0-2.6-0.1-3.2-0.1s-1.8,0.1-2.6,0.1c-0.3,0-0.4,0-0.4-0.2c0-0.1,0.1-0.2,0.3-0.2c0.3,0,0.6,0,0.7-0.1
		c0.4-0.1,0.5-0.5,0.6-1.1c0.1-0.9,0.1-2.4,0.1-4.4v-3.7c0-3.2,0-3.7,0-4.4c0-0.7-0.2-1-0.9-1.2c-0.2,0-0.5-0.1-0.8-0.1
		c-0.2,0-0.4,0-0.4-0.2c0-0.2,0.2-0.2,0.5-0.2c0.5,0,1.1,0,1.7,0c0.5,0,1,0,1.3,0c0.8,0,5,0,5.5,0c0.4,0,0.6,0,0.9-0.1
		c0.1,0,0.2-0.1,0.3-0.1s0.1,0.1,0.1,0.2c0,0.1-0.1,0.4-0.2,0.9c0,0.2-0.1,1.4-0.1,1.7c0,0.2-0.1,0.3-0.2,0.3
		c-0.1,0-0.2-0.1-0.2-0.3s0-0.5-0.1-0.8c-0.1-0.3-0.6-0.6-1.4-0.6l-3.2-0.1c-0.1,0-0.2,0.1-0.2,0.3v5.2c0,0.1,0,0.2,0.1,0.2h2.7
		c0.4,0,0.6,0,0.9,0c0.4,0,0.7-0.1,0.9-0.4c0.1-0.1,0.1-0.2,0.3-0.2c0.1,0,0.1,0.1,0.1,0.2s-0.1,0.6-0.2,1.3c0,0.4-0.1,1.4-0.1,1.5
		c0,0.2,0,0.4-0.2,0.4c-0.1,0-0.2-0.1-0.2-0.3c0-0.1,0-0.4-0.1-0.6c-0.1-0.3-0.4-0.7-1.1-0.7c-0.5-0.1-2.7-0.1-3.1-0.1
		c-0.1,0-0.1,0-0.1,0.2v1.7H228.2z"/>
	<path fill="#444444" d="M237.3,485.1c0-2.7,0-3.2,0-3.7c0-0.6-0.2-0.8-0.8-1c-0.1,0-0.5-0.1-0.7-0.1s-0.3-0.1-0.3-0.2
		c0-0.1,0.1-0.2,0.4-0.2c1,0,2.2,0,2.7,0s1.7,0,2.3,0c0.3,0,0.4,0,0.4,0.2c0,0.2-0.1,0.2-0.3,0.2s-0.3,0-0.5,0.1
		c-0.5,0.1-0.6,0.3-0.7,1c0,0.6,0,1.1,0,3.7v2.5c0,2.6,0.5,3.6,1.4,4.3c0.8,0.6,1.7,0.7,2.3,0.7c0.8,0,1.7-0.2,2.4-0.9
		c1-1,1.1-2.5,1.1-4.3v-2.2c0-2.7,0-3.2,0-3.7c0-0.6-0.2-0.8-0.8-1c-0.1,0-0.5-0.1-0.7-0.1s-0.3-0.1-0.3-0.2c0-0.1,0.1-0.2,0.4-0.2
		c0.9,0,2.2,0,2.2,0c0.2,0,1.4,0,2.1,0c0.2,0,0.4,0,0.4,0.2c0,0.2-0.1,0.2-0.3,0.2c-0.2,0-0.3,0-0.5,0.1c-0.5,0.1-0.6,0.3-0.7,1
		c0,0.6,0,1.1,0,3.7v1.9c0,2-0.2,4-1.7,5.3c-1.3,1.1-2.7,1.3-3.9,1.3c-1,0-2.8,0-4.2-1.2c-0.9-0.8-1.7-2.1-1.7-4.7L237.3,485.1
		L237.3,485.1z"/>
	<path fill="#444444" d="M252.9,493.2c-0.3-0.1-0.4-0.2-0.4-0.6c0-1,0.1-2.1,0.1-2.3c0-0.3,0.1-0.5,0.2-0.5c0.2,0,0.2,0.2,0.2,0.3
		c0,0.2,0.1,0.6,0.2,0.9c0.4,1.3,1.8,1.7,2.9,1.7c1.6,0,2.5-1,2.5-2.2c0-0.8-0.2-1.5-1.8-2.5l-1.1-0.6c-2.2-1.3-2.9-2.5-2.9-4
		c0-2.2,2.1-3.6,4.6-3.6c1.2,0,2.1,0.2,2.6,0.3c0.2,0,0.2,0.1,0.2,0.2c0,0.2-0.1,0.7-0.1,2.1c0,0.4-0.1,0.6-0.2,0.6
		s-0.2-0.1-0.2-0.3c0-0.2-0.1-0.7-0.5-1.2c-0.3-0.3-0.9-0.8-2-0.8c-1.3,0-2.5,0.7-2.5,1.9c0,0.8,0.3,1.4,1.9,2.3l0.7,0.4
		c2.4,1.3,3.2,2.7,3.2,4.3c0,1.3-0.5,2.4-1.8,3.3c-0.9,0.6-2.1,0.7-3.1,0.7C254.8,493.6,253.7,493.5,252.9,493.2z"/>
	<path fill="#444444" d="M265.1,485.1c0-2.7,0-3.2,0-3.7c0-0.6-0.2-0.8-0.6-0.9c-0.2-0.1-0.4-0.1-0.7-0.1c-0.2,0-0.3,0-0.3-0.2
		c0-0.1,0.1-0.1,0.4-0.1c0.7,0,1.9,0,2.5,0c0.5,0,1.6,0,2.3,0c0.2,0,0.4,0,0.4,0.1c0,0.2-0.1,0.2-0.3,0.2c-0.2,0-0.3,0-0.5,0.1
		c-0.5,0.1-0.6,0.3-0.7,1c0,0.6,0,1.1,0,3.7v3.1c0,1.7,0,3.1,0.1,3.9c0.1,0.5,0.2,0.7,0.7,0.8c0.2,0,0.7,0.1,0.9,0.1
		c0.2,0,0.3,0.1,0.3,0.2c0,0.1-0.1,0.2-0.4,0.2c-1.2,0-2.5-0.1-2.9-0.1s-1.7,0.1-2.4,0.1c-0.2,0-0.4-0.1-0.4-0.2
		c0-0.1,0.1-0.2,0.3-0.2c0.3,0,0.5,0,0.6-0.1c0.4-0.1,0.5-0.3,0.5-0.9c0.1-0.7,0.1-2.1,0.1-3.8v-3.2H265.1z"/>
	<path fill="#444444" d="M271.6,486.7c0-3,2.1-6.9,7.7-6.9c4.6,0,7.5,2.6,7.5,6.6s-2.9,7.2-7.7,7.2
		C273.7,493.6,271.6,489.8,271.6,486.7z M284,487c0-3.9-2.3-6.3-5.3-6.3c-2,0-4.4,1.1-4.4,5.4c0,3.6,2.1,6.5,5.5,6.5
		C281.1,492.7,284,492.1,284,487z"/>
	<path fill="#444444" d="M291.9,491c0,1.4,0.3,1.8,0.6,1.9c0.3,0.1,0.7,0.1,1,0.1c0.2,0,0.3,0.1,0.3,0.2s-0.2,0.2-0.4,0.2
		c-1.2,0-2-0.1-2.4-0.1c-0.2,0-1,0.1-2,0.1c-0.2,0-0.4,0-0.4-0.2c0-0.1,0.1-0.2,0.3-0.2c0.3,0,0.6,0,0.8-0.1
		c0.5-0.1,0.5-0.6,0.6-2.1l0.2-10.5c0-0.4,0.1-0.6,0.3-0.6c0.2,0,0.5,0.3,0.8,0.6c0.2,0.2,3,3,5.6,5.6c1.2,1.2,3.7,3.7,3.9,4h0.1
		l-0.2-7.8c0-1.1-0.2-1.4-0.6-1.6c-0.3-0.1-0.7-0.1-1-0.1c-0.2,0-0.3-0.1-0.3-0.2c0-0.1,0.2-0.2,0.5-0.2c1,0,1.9,0,2.3,0
		c0.2,0,0.9,0,1.8,0c0.2,0,0.4,0,0.4,0.2c0,0.1-0.1,0.2-0.3,0.2c-0.2,0-0.3,0-0.6,0.1c-0.5,0.1-0.6,0.5-0.7,1.5l-0.2,11.1
		c0,0.4-0.1,0.6-0.3,0.6c-0.3,0-0.6-0.2-0.7-0.4c-1.1-1.1-3.4-3.2-5.3-5.1c-2-1.9-3.9-4-4.3-4.4h-0.1L291.9,491z"/>
	<path fill="#444444" d="M312.5,486.7c0-3,2.1-6.9,7.7-6.9c4.6,0,7.5,2.6,7.5,6.6s-2.9,7.2-7.7,7.2
		C314.6,493.6,312.5,489.8,312.5,486.7z M324.9,487c0-3.9-2.3-6.3-5.3-6.3c-2,0-4.4,1.1-4.4,5.4c0,3.6,2.1,6.5,5.5,6.5
		C322,492.7,324.9,492.1,324.9,487z"/>
	<path fill="#444444" d="M334.1,488.3c0,1.7,0,2.9,0.1,3.7c0.1,0.5,0.2,0.9,0.7,0.9c0.2,0,0.6,0.1,0.9,0.1c0.2,0,0.3,0.1,0.3,0.2
		s-0.1,0.2-0.4,0.2c-1.2,0-2.4-0.1-2.9-0.1s-1.6,0.1-2.3,0.1c-0.2,0-0.4,0-0.4-0.2c0-0.1,0.1-0.2,0.3-0.2c0.3,0,0.5,0,0.6-0.1
		c0.4-0.1,0.5-0.4,0.5-0.9c0.1-0.7,0.1-2.1,0.1-3.8v-3.1c0-2.7,0-3.2,0-3.7c0-0.6-0.2-0.8-0.8-1c-0.1,0-0.5-0.1-0.7-0.1
		s-0.3-0.1-0.3-0.2s0.1-0.2,0.4-0.2c0.9,0,2.1,0,2.6,0c0.7,0,4.8,0,5.2,0c0.3,0,0.6,0,0.7-0.1c0.1,0,0.2-0.1,0.3-0.1
		c0.1,0,0.1,0.1,0.1,0.2c0,0.1-0.1,0.3-0.1,0.8c0,0.2-0.1,1.2-0.1,1.4c0,0.1-0.1,0.4-0.2,0.4s-0.2-0.1-0.2-0.3c0-0.1,0-0.4-0.1-0.7
		c-0.1-0.2-0.5-0.5-1.2-0.5l-3-0.1c-0.1,0-0.2,0-0.2,0.2v4.3c0,0.1,0,0.2,0.1,0.2h2.6c0.3,0,0.6,0,0.8,0c0.3,0,0.6-0.1,0.8-0.3
		c0.1-0.1,0.1-0.2,0.2-0.2s0.1,0.1,0.1,0.2c0,0.1-0.1,0.6-0.1,1.1c0,0.4-0.1,1.2-0.1,1.3s0,0.4-0.2,0.4c-0.1,0-0.2-0.1-0.2-0.2
		c0-0.1,0-0.3-0.1-0.5c-0.1-0.2-0.3-0.6-0.9-0.6c-0.5,0-2.6-0.1-2.9-0.1c-0.1,0-0.1,0-0.1,0.1v1.5H334.1z"/>
	<path fill="#444444" d="M354.4,479.7c-0.2-0.8-0.5-1.3-0.8-1.5c-0.2-0.1-0.6-0.2-0.8-0.2c-0.2,0-0.3,0-0.3-0.2
		c0-0.1,0.2-0.2,0.5-0.2c1.1,0,2.2,0.1,2.4,0.1c0.2,0,1.1-0.1,2.3-0.1c0.3,0,0.4,0.1,0.4,0.2c0,0.2-0.2,0.2-0.4,0.2
		c-0.2,0-0.4,0-0.5,0.1c-0.2,0.1-0.2,0.2-0.2,0.5c0,0.3,0.2,1,0.5,1.9c0.4,1.4,2.3,7.7,2.7,8.8h0.1l4-10.8c0.2-0.6,0.4-0.7,0.5-0.7
		c0.2,0,0.3,0.3,0.6,1l4.3,10.4h0.1c0.4-1.4,2-6.9,2.8-9.3c0.1-0.5,0.2-0.9,0.2-1.2s-0.2-0.6-1-0.6c-0.2,0-0.4-0.1-0.4-0.2
		c0-0.1,0.2-0.2,0.5-0.2c1.1,0,2,0.1,2.2,0.1c0.1,0,1-0.1,1.7-0.1c0.2,0,0.4,0,0.4,0.2c0,0.1-0.1,0.2-0.3,0.2c-0.2,0-0.5,0-0.7,0.1
		c-0.5,0.2-0.7,1-1.2,2.2c-1,2.6-3.1,9.2-4.2,12.3c-0.2,0.7-0.3,1-0.6,1c-0.2,0-0.3-0.2-0.6-1l-4.3-10.4l0,0
		c-0.4,1.1-3.2,8.4-4,10.3c-0.4,0.9-0.5,1.1-0.7,1.1s-0.3-0.2-0.5-0.8L354.4,479.7z"/>
	<path fill="#444444" d="M378.4,485.1c0-2.7,0-3.2,0-3.7c0-0.6-0.2-0.8-0.8-1c-0.1,0-0.5-0.1-0.7-0.1s-0.3-0.1-0.3-0.2
		c0-0.1,0.1-0.2,0.4-0.2c1,0,2.1,0,2.6,0c0.6,0,4.6,0,5,0c0.3,0,0.6-0.1,0.8-0.1c0.1,0,0.2-0.1,0.3-0.1c0.1,0,0.1,0.1,0.1,0.2
		c0,0.1-0.1,0.3-0.1,1.1c0,0.2-0.1,1-0.1,1.2c0,0.1-0.1,0.3-0.2,0.3s-0.1-0.1-0.1-0.2c0-0.1,0-0.4-0.1-0.6c-0.1-0.3-0.3-0.6-1.2-0.6
		c-0.3,0-2.5-0.1-2.9-0.1c-0.1,0-0.1,0.1-0.1,0.2v4.4c0,0.1,0,0.2,0.1,0.2c0.4,0,2.8,0,3.2,0c0.4,0,0.7-0.1,0.9-0.3
		c0.1-0.1,0.2-0.2,0.3-0.2s0.1,0.1,0.1,0.2c0,0.1,0,0.4-0.1,1.3c0,0.4-0.1,1.1-0.1,1.2c0,0.1,0,0.4-0.2,0.4c-0.1,0-0.2-0.1-0.2-0.1
		c0-0.2,0-0.4-0.1-0.6c-0.1-0.4-0.3-0.6-1-0.7c-0.3,0-2.4-0.1-2.9-0.1c-0.1,0-0.1,0.1-0.1,0.2v1.4c0,0.6,0,2.1,0,2.6
		c0,1.2,0.6,1.5,2.5,1.5c0.5,0,1.2,0,1.7-0.2s0.7-0.6,0.8-1.3c0-0.2,0.1-0.3,0.2-0.3s0.2,0.2,0.2,0.4c0,0.4-0.1,1.6-0.2,2
		c-0.1,0.5-0.3,0.5-1,0.5c-1.4,0-2.5,0-3.4-0.1c-0.9,0-1.6,0-2.1,0c-0.2,0-0.6,0-1,0s-0.9,0-1.3,0c-0.2,0-0.4-0.1-0.4-0.2
		c0-0.1,0.1-0.2,0.3-0.2c0.3,0,0.5,0,0.6-0.1c0.4-0.1,0.5-0.4,0.5-0.9c0.1-0.7,0.1-2.1,0.1-3.8L378.4,485.1L378.4,485.1z"/>
	<path fill="#444444" d="M390.4,485.1c0-2.7,0-3.2,0-3.7c0-0.6-0.2-0.8-0.8-1c-0.1,0-0.5-0.1-0.7-0.1s-0.3-0.1-0.3-0.2
		c0-0.1,0.1-0.2,0.4-0.2c1,0,2.1,0,2.5,0c0.9,0,2.1,0,2.7,0c3.3,0,3.9,1.7,3.9,2.6c0,1.4-1,2.4-2.1,3.1c1.5,0.5,3.4,1.7,3.4,3.8
		c0,1.9-1.5,3.8-4.9,3.8c-0.2,0-0.8,0-1.5-0.1c-0.6,0-1.3,0-1.6,0c-0.2,0-0.6,0-1,0s-0.9,0-1.3,0c-0.2,0-0.4-0.1-0.4-0.2
		c0-0.1,0.1-0.2,0.3-0.2c0.3,0,0.5,0,0.6-0.1c0.4-0.1,0.5-0.4,0.5-0.9c0.1-0.7,0.1-2.1,0.1-3.8v-2.8H390.4z M392.7,485.4
		c0,0.1,0.1,0.2,0.1,0.2c0.2,0,0.4,0.1,0.9,0.1c0.6,0,1.1-0.1,1.4-0.3c0.5-0.4,0.8-1,0.8-1.9c0-1.2-0.7-2.7-2.3-2.7
		c-0.2,0-0.6,0-0.8,0c-0.1,0-0.2,0.1-0.2,0.3v4.3H392.7z M392.7,490.6c0,1.2,0.1,1.5,0.6,1.7s0.9,0.2,1.3,0.2c1,0,2.2-0.5,2.2-2.5
		c0-0.8-0.4-2.2-1.7-3.1c-0.4-0.3-0.9-0.5-1.6-0.5h-0.8c-0.1,0-0.1,0-0.1,0.1v4.1H392.7z"/>
	<path fill="#444444" d="M410.7,488.9c-0.1,0-0.1,0-0.2,0.1l-1,2.4c-0.2,0.4-0.3,0.9-0.3,1.1c0,0.3,0.2,0.5,0.7,0.5h0.3
		c0.2,0,0.3,0.1,0.3,0.2c0,0.1-0.1,0.2-0.3,0.2c-0.6,0-1.5-0.1-2-0.1c-0.2,0-1.2,0.1-2.1,0.1c-0.2,0-0.3,0-0.3-0.2
		c0-0.1,0.1-0.2,0.2-0.2c0.2,0,0.4,0,0.5,0c0.8-0.1,1.1-0.7,1.5-1.6l4.8-11.1c0.2-0.5,0.4-0.7,0.5-0.7c0.3,0,0.4,0.2,0.5,0.6
		c0.4,1,3.5,8.2,4.7,10.9c0.7,1.6,1.2,1.8,1.6,1.9c0.3,0,0.5,0.1,0.7,0.1s0.2,0.1,0.2,0.2c0,0.1-0.1,0.2-0.8,0.2c-0.6,0-2,0-3.5,0
		c-0.3,0-0.5,0-0.5-0.1c0-0.1,0-0.2,0.2-0.2c0.1,0,0.2-0.2,0.2-0.4l-1.4-3.6c0-0.1-0.1-0.1-0.2-0.1h-4.3V488.9z M414.6,488
		c0.1,0,0.1,0,0.1-0.1l-1.7-4.5c0-0.1,0-0.2-0.1-0.2s-0.1,0.1-0.1,0.2l-1.8,4.4c0,0.1,0,0.1,0.1,0.1h3.5V488z"/>
	<path fill="#444444" d="M424.2,491c0,1.4,0.3,1.8,0.6,1.9c0.3,0.1,0.7,0.1,1,0.1c0.2,0,0.3,0.1,0.3,0.2s-0.2,0.2-0.4,0.2
		c-1.2,0-2-0.1-2.4-0.1c-0.2,0-1,0.1-2,0.1c-0.2,0-0.4,0-0.4-0.2c0-0.1,0.1-0.2,0.3-0.2c0.2,0,0.6,0,0.8-0.1
		c0.5-0.1,0.5-0.6,0.6-2.1l0.2-10.5c0-0.4,0.1-0.6,0.3-0.6c0.2,0,0.5,0.3,0.8,0.6c0.2,0.2,3,3,5.6,5.6c1.2,1.2,3.7,3.7,3.9,4h0.1
		l-0.2-7.8c0-1.1-0.2-1.4-0.6-1.6c-0.3-0.1-0.7-0.1-1-0.1c-0.2,0-0.3-0.1-0.3-0.2c0-0.1,0.2-0.2,0.5-0.2c1,0,1.9,0,2.3,0
		c0.2,0,0.9,0,1.8,0c0.2,0,0.4,0,0.4,0.2c0,0.1-0.1,0.2-0.3,0.2c-0.2,0-0.3,0-0.6,0.1c-0.5,0.1-0.6,0.5-0.7,1.5l-0.2,11.1
		c0,0.4-0.1,0.6-0.3,0.6c-0.3,0-0.6-0.2-0.7-0.4c-1.1-1.1-3.4-3.2-5.3-5.1c-2-1.9-3.9-4-4.3-4.4h-0.1L424.2,491z"/>
	<path fill="#444444" d="M440.5,485.1c0-2.7,0-3.2,0-3.7c0-0.6-0.2-0.8-0.8-1c-0.1,0-0.5-0.1-0.7-0.1s-0.3-0.1-0.3-0.2
		c0-0.1,0.1-0.2,0.4-0.2c1,0,2.1,0,2.6,0c0.6,0,1.9,0,3,0c2.3,0,5.4,0,7.4,2c0.9,0.9,1.7,2.4,1.7,4.5c0,2.2-1,3.9-2,4.9
		c-0.8,0.8-2.8,2.1-6.1,2.1c-0.7,0-1.5-0.1-2.2-0.1c-0.7-0.1-1.4-0.1-1.8-0.1c-0.2,0-0.6,0-1,0s-0.9,0-1.3,0c-0.2,0-0.4-0.1-0.4-0.2
		c0-0.1,0.1-0.2,0.3-0.2c0.3,0,0.5,0,0.6-0.1c0.4-0.1,0.5-0.4,0.5-0.9c0.1-0.7,0.1-2.1,0.1-3.8L440.5,485.1L440.5,485.1z
		 M442.9,487.1c0,1.9,0,3.2,0,3.6c0,0.4,0.1,1.1,0.2,1.2c0.2,0.3,1,0.7,2.4,0.7c1.7,0,2.9-0.3,4-1.2c1.2-1,1.6-2.6,1.6-4.4
		c0-2.2-0.9-3.7-1.7-4.4c-1.7-1.5-3.7-1.7-5.1-1.7c-0.4,0-1,0-1.1,0.1c-0.2,0.1-0.2,0.1-0.2,0.4c0,0.6,0,2.1,0,3.4L442.9,487.1
		L442.9,487.1z"/>
	<path fill="#444444" d="M470.7,492.2c2.1,0,2.9-0.5,3.3-1.1c0.2-0.3,0.3-0.7,0.4-1c0-0.2,0.1-0.3,0.2-0.3c0.2,0,0.2,0.1,0.2,0.6
		c0,0.7-0.3,2-0.4,2.5c-0.1,0.4-0.2,0.5-0.6,0.5c-3.5,0-7-0.1-11.2-0.1c-0.2,0-0.4-0.1-0.4-0.2c0-0.1,0.1-0.2,0.3-0.6
		c2.9-4.6,6-9.3,8.8-13.6h-4.1c-1.1,0-2.3,0.1-3,0.4c-0.7,0.4-1.1,1.1-1.1,1.6c0,0.3-0.1,0.4-0.2,0.4s-0.2-0.1-0.2-0.4
		c0-0.5,0.3-2.4,0.4-3c0-0.3,0.1-0.4,0.2-0.4c0.2,0,0.3,0.1,0.8,0.1c2,0.1,3,0.1,3.8,0.1h6.3c0.2,0,0.4,0.1,0.4,0.2
		c0,0.1-0.1,0.2-0.2,0.4c-2.9,4.7-6,9.4-9,13.9L470.7,492.2L470.7,492.2z"/>
	<path fill="#444444" d="M479.1,483.7c0-3.2,0-3.7,0-4.4s-0.2-1-0.9-1.2c-0.2,0-0.5-0.1-0.8-0.1c-0.2,0-0.4,0-0.4-0.2
		c0-0.1,0.1-0.2,0.5-0.2c0.6,0,1.2,0,1.7,0s1,0,1.3,0c0.7,0,4.8,0,5.2,0c0.4,0,0.7-0.1,0.9-0.1c0.1,0,0.2-0.1,0.3-0.1
		c0.1,0,0.1,0.1,0.1,0.2c0,0.1-0.1,0.4-0.2,1.3c0,0.2-0.1,1.1-0.1,1.4c0,0.1-0.1,0.2-0.2,0.2s-0.2-0.1-0.2-0.3c0-0.1,0-0.5-0.1-0.7
		c-0.1-0.4-0.4-0.6-1.4-0.7c-0.4,0-2.5-0.1-3-0.1c-0.1,0-0.1,0.1-0.1,0.2v5.3c0,0.1,0,0.2,0.1,0.2c0.5,0,2.8,0,3.3,0s0.8-0.1,1-0.3
		c0.1-0.2,0.2-0.3,0.3-0.3c0.1,0,0.1,0,0.1,0.2c0,0.1-0.1,0.5-0.2,1.5c0,0.4-0.1,1.2-0.1,1.4c0,0.2,0,0.4-0.2,0.4
		c-0.1,0-0.2-0.1-0.2-0.2c0-0.2,0-0.5-0.1-0.7c-0.1-0.4-0.4-0.7-1.2-0.8c-0.4,0-2.5-0.1-2.9-0.1c-0.1,0-0.1,0.1-0.1,0.2v1.6
		c0,0.7,0,2.6,0,3.2c0,1.4,0.4,1.7,2.5,1.7c0.5,0,1.4,0,2-0.2c0.5-0.2,0.8-0.7,0.9-1.5c0-0.2,0.1-0.3,0.2-0.3c0.2,0,0.2,0.2,0.2,0.4
		c0,0.5-0.2,1.9-0.3,2.3c-0.1,0.5-0.3,0.5-1.1,0.5c-1.6,0-2.7,0-3.6-0.1c-0.9,0-1.5-0.1-2.2-0.1c-0.2,0-0.7,0-1.2,0s-1,0-1.4,0
		c-0.3,0-0.4-0.1-0.4-0.2c0-0.1,0.1-0.2,0.3-0.2c0.3,0,0.6,0,0.7-0.1c0.4-0.1,0.5-0.5,0.6-1.1c0.1-0.9,0.1-2.5,0.1-4.4v-3.5H479.1z"
		/>
	<path fill="#444444" d="M493.4,490.6c0,1.6,0.3,2.2,0.7,2.3c0.4,0.1,0.7,0.1,1.1,0.1c0.2,0,0.4,0,0.4,0.2c0,0.2-0.2,0.2-0.5,0.2
		c-1.3,0-2.2-0.1-2.6-0.1c-0.2,0-1.2,0.1-2.2,0.1c-0.3,0-0.5,0-0.5-0.2c0-0.1,0.1-0.2,0.3-0.2c0.3,0,0.6,0,0.9-0.1
		c0.5-0.2,0.6-0.8,0.6-2.6l0.2-12.3c0-0.4,0.1-0.7,0.3-0.7c0.2,0,0.4,0.3,0.8,0.6c0.2,0.3,3.4,3.7,6.4,6.7c1.4,1.4,4.2,4.4,4.6,4.7
		h0.1l-0.2-9.3c0-1.3-0.2-1.7-0.7-1.9c-0.3-0.1-0.8-0.1-1.1-0.1c-0.2,0-0.3-0.1-0.3-0.2c0-0.2,0.2-0.2,0.5-0.2
		c1.1,0,2.1,0.1,2.5,0.1c0.2,0,1-0.1,2-0.1c0.3,0,0.5,0,0.5,0.2c0,0.1-0.1,0.2-0.4,0.2c-0.2,0-0.4,0-0.6,0.1
		c-0.6,0.2-0.7,0.6-0.8,1.8l-0.2,13.1c0,0.5-0.1,0.6-0.3,0.6s-0.5-0.2-0.7-0.5c-1.3-1.2-4-4-6.1-6.1c-2.3-2.2-4.6-4.8-4.9-5.2h-0.1
		L493.4,490.6z"/>
</g>
<g>
	<path fill="#494949" d="M278.3,351.1c-14.7-14.4-27.5,5.7-22.7,11.4c-11.5,8-0.9,22.2,4.4,19.5c6.1,5.3,11.9-4.7,8.3-7.8
		c-3.6-3.2-6.4,1.7-6.4,1.7c-0.7,1.3-4.6,0.9-2.5-2.7c2.8-4.9,9.4-4.2,11.9-1.5s4.7,7.3-0.3,13.6c-3.8,5.5-14.4,3.9-21.5-4.8
		c-7.1-8.7,0.9-17.8,0.9-17.8s1.9-2.2-1.4-6.2c-3.4-3.9-12.3-4.4-12.7,0.6c0,0-5-4.9-12.3,3.4c-7.3,8.3,2.4,16.8,6.9,17.8
		s6-3.5,4-6.2c-2-2.7-2.3,1.4-4.4,0.5c-2.1-0.9-0.6-5.4,3.9-4.4c9,3.1,4,14.3-1.5,13.9c-5.5-0.4-9.4-1.7-11.9-8.3
		c-1,1.1-3.2,7.7,1.1,10.5s0.4,5.7-4.9,5c-5.3-0.7-3.9-3.4-6.2-11.3c-2.3-7.9-11.3-6-15.8-2.6c-0.6,0.4-1.1,0.6-1.7,0.7
		c8.8,10,15,22.5,17.5,36.5c1.1-0.1,2.2-0.4,3.2-0.9c0.8,4.6,9.9,8.2,14.8,2.7c4.9-5.5,5.6-10.3,0-16.1c-5.6-5.9,0.4-9.9,4.5-6.3
		s7.1,1.9,11.6-1.5c-3,9.6,4.5,4.9,7.5,11.5s16.5,9.1,20.7-2.4c6.7,3,19.2-8.5,13.6-19.9C298.4,373.2,294.9,354.9,278.3,351.1z"/>
</g>
<path fill="#6D6D6D" d="M36.1,388.2l1.2-1.1c-2.5-6.4-5-12.8-7.6-19.2c-2.4-10.9,0.3-22-1.3-33.1c-4.2-4-6.8-2.1-10-4.2
	c-3.6-2.4-5.9-8.2-9.4-10.8c-0.8,0.2-1.6,0.4-2.4,0.5c-0.8,0.4-1.6,0.9-2.4,1.3c-5.6,23.2,5.2,44.3,29.6,66.3
	C34.5,388,35.3,388.1,36.1,388.2z"/>
<path fill="#939393" d="M42.6,368.8c3.7-6.4,1.9-15,5.4-22.2c4.6-9.4,19.8-20.4,19.4-30.5c-1.9-3.2-4.1-4.6-6.8-7
	c0.8-5.3,1.4-9.2-1.1-15c-1.5-0.4-3.1-0.8-4.6-1.3c-1.9,1.4-3.7,2.7-5.6,4.1c-3.6,5.7-7.2,11.3-10.8,16.9c-6,13.8-8,39.8,3.3,54.9
	C42.1,368.8,42.3,368.8,42.6,368.8z"/>
<path fill="#515151" d="M38.2,406.1l1.6-1.4c-0.2-0.8-0.5-1.6-0.7-2.4c-1.8-3.8-7.4-5.5-10.7-8.2c-6.3-7.5-12.5-14.9-18.8-22.4
	c-3.2-1.6-21-1.3-24.6,1.7C-16.1,400.1,25.7,406.3,38.2,406.1z"/>
<path fill="#AAAAAA" d="M68.2,325.2c-3.8,8.9-12.9,15.9-11.8,25.2c0.1,0.2,0.2,0.3,0.2,0.5l0,0c0.4,0.5,0.8,0.9,1.2,1.2
	c0.2,0,0.3,0.1,0.5,0.1c0.2-0.1,0.4-0.1,0.6-0.1c0.3-0.1,0.6-0.3,0.9-0.4c0.6-0.2,1.2-0.4,1.8-0.6c4.2-3.1,8.4-6.1,12.6-9.2
	c9.5-2.4,18.9-4.8,28.4-7.2c5.1-5.1,0.5-6.9,1.9-11.6c1.9-6,8.5-6.5,5.5-13.2C104.4,299.5,78.5,315.5,68.2,325.2z"/>
<path fill="#494949" d="M55.3,421.6c-0.3-2.2-0.1-2.8-1.8-5.3c-8.2-2.3-29.7-7.9-37.4-2.4c-2.8,3.5-5.7,7-8.5,10.5
	c-1.4,6.8,8.2,10.2,12.5,11.1C32.6,438.2,44.5,433.9,55.3,421.6z"/>
<path fill="#494949" d="M130,336.8c-45.4,0-82.1,36.8-82.1,82.1c0,45.4,36.8,82.1,82.1,82.1c45.4,0,82.1-36.8,82.1-82.1
	S175.4,336.8,130,336.8z"/>
<path fill="#FFFFFF" d="M129.4,489.2L129.4,489.2c0-10-63.6-5.3-63.6-74.3c0-34.1,30.5-60,63.6-60c33.2,0,63.6,26,63.6,60
	C193,483.9,129.4,479,129.4,489.2z"/>
<g>
	<path fill="#494949" d="M138,406.1c-3-1.4-5.8-2.2-8.3-2.3c-0.1,0-2.1,0.4-6,1.2c-4.1,0.9-6.5,1.3-7.2,1.4c0.6-3.9,1.7-7,3.5-9.3
		c0.2-0.3,0.3-0.6,0.4-0.9c0.1-1.8-1.1-3.6-3.6-5.1c5.1-1.2,10.5-1.6,16.2-1.3c0.7,0,1.6,0.1,3,0.3c1.3,0.2,2.3,0.3,3,0.3
		c4.2,0.2,6.3-0.9,6.4-3.3c0.2-2.9-1.5-5.4-5.1-7.4c-3-1.6-6.1-2.6-9.4-2.8c-1.9-0.1-6.7,0.7-14.4,2.2c-5.1,1.2-10.3,2.2-15.4,3.3
		c-8.5,1.6-15.3,0.1-16.6,0.1c-1.9-0.1-3.7-0.6-5.2-1.4l-0.8,0.6c0.2,1.5,1.3,3.8,3.5,6.9c2.1,3.1,3.8,4.9,5.2,5.3
		c6.9-2.5,14.3-1.5,18.2-1.4c0,0.5,0.5,1.4,1.2,2.9c0.7,1.2,1,2.8,0.9,4.8c-0.1,2.6-0.6,5-1.2,7.4c-9.4,2-14.5,3-15.6,2.9
		c-2.3-0.1-4.6-0.8-6.9-1.9l-0.8,1.2c0.4,1.9,1.4,4.3,3.2,7.2c1.9,3.2,3.7,5,5,5.4c2.6-1.7,4.5-2.9,5.8-3.4c1.6-0.7,3.9-1,6.7-1.2
		c-6,14.8-14.7,28.4-31.8,38.3l0.8,0.6c1.8,0.3,3.6,0.5,5.2,0.6c15.4,0.8,24.6-10.6,33.4-31.6c0,0,0,0.1,0.1,0.1
		c0.1-0.1,0.1-0.2,0.2-0.3c0.2-0.4,0.4-0.8,0.7-1.2c0.8-1.6,1.5-3.4,2.4-5c0-0.2,0.1-0.3,0.2-0.5c0.1-0.3,0.3-0.6,0.4-0.9
		c0.1-0.2,0.2-0.4,0.3-0.6c0.1-0.3,0.3-0.6,0.6-0.9c0.3-0.3,0.6-0.5,1-0.6c0.1,0,0.2-0.1,0.3-0.1c0.3-0.1,0.7-0.2,1.1-0.2
		c0.1,0,0.2,0,0.3,0c2.1-0.2,4.2-0.2,6.4-0.1c1.3,0.1,3.4,0.3,6.1,0.7s4.7,0.7,6.1,0.7c1.5,0.1,3-0.4,4.1-1.3c1.2-1,1.8-2.3,1.9-3.8
		C143.3,409.8,141.6,407.8,138,406.1z"/>
	<path fill="#494949" d="M188.3,448.9c0.1,1-0.1,1.8-0.5,2.6c-0.9,1.6-3.8,3.2-9.1,4.8c-4.3,1.3-8.1,2.1-11.2,2.5
		c-5.8,0.6-11.7,0.5-17.9-0.4c-6.6-0.9-12.1-2.4-16.2-4.7c-6.9-3.7-11.6-7.4-14.1-11.3c-2.4-3.7-4.3-6.9-5.6-9.6
		c-2.1-4.5-3.4-6.9-3.5-7.3c-1.5-2.8-3.3-5.1-5.3-6.7l0.1-0.9c1.1-0.3,2-0.5,3-0.6c2.1-0.2,4.7,0.1,8,0.9c3.7,0.9,5.6,2,5.8,3.4
		c0,0.5,0.1,1.2,0.1,1.9c0.1,1,0.2,1.5,0.2,1.9c0.2,2.1,1,4.2,2.1,6.2c0.2,0.5,1.4,2.3,3.8,5.7c3.1,4.3,7.9,7.6,14.4,9.8
		s13.3,3,20.1,2.3c6.1-0.7,9-3.4,8.5-8.4c-0.3-3-1.5-5.9-3.7-8.6l0.2-0.9c3.6,1.5,7.7,4.1,12.3,7.8
		C185.3,443.5,188.1,446.6,188.3,448.9z"/>
	<path fill="#494949" d="M157.6,433c0.7,3.5-0.4,5.6-3.2,6.1c-2,0.4-3.7-0.2-5.1-1.8c-0.3-0.3-1.1-1.7-2.4-4.3
		c-1.5-3-3.4-5.7-5.3-8.1l-0.1-1c0.5-0.2,1-0.3,1.5-0.4c3.4-0.7,6.5-0.1,9.3,1.7C155.2,427,157,429.6,157.6,433z"/>
	<path fill="#494949" d="M185.8,423.1c0.5,2.8-1.2,4.5-4.8,5.1c-0.8,0.1-2.2-0.3-4.3-1.3c-1.6-0.8-3.7-2.2-6.4-4.3
		c-2.7-2.1-4.7-3.6-6.1-4.3l-0.2-0.7c1.8-1,3.6-1.6,5.3-1.8c3.1-0.5,6.3-0.1,9.8,1.2C183,418.3,185.3,420.4,185.8,423.1z"/>
</g>
</svg>
