<?xml version="1.0" encoding="utf-8"?>
<!-- Generator: Adobe Illustrator 18.1.1, SVG Export Plug-In . SVG Version: 6.00 Build 0)  -->
<svg version="1.1" id="レイヤー_1" xmlns="http://www.w3.org/2000/svg" xmlns:xlink="http://www.w3.org/1999/xlink" x="0px"
	 y="0px" width="726.6px" height="559.9px" viewBox="-93.1 -303.8 726.6 559.9" enable-background="new -93.1 -303.8 726.6 559.9"
	 xml:space="preserve">
<g id="レイヤー_2" display="none">
</g>
<path fill="#8DAA63" d="M585.4,36.3c-44.5-28.7-66.3,28.5-51.3,40.3c-24.7,26.1,9.2,56.4,21.1,46.9c18,10.4,27.7-17.9,17-24
	s-15.2,7.7-15.2,7.7c-1.1,3.8-11.1,4.5-7.8-5.5c4.6-13.7,21.5-15.3,29.2-9.9c7.8,5.5,15.7,16,6.2,34.6c-6.8,15.7-34.4,17.2-56.6-0.9
	c-22.2-18.1-6.8-45.2-6.8-45.2s3.8-6.6-6.8-14.7c-10.6-8.2-33.2-4.8-31.8,8c0,0-15.1-9.8-29.2,14.8c-14,24.6,14.6,41,26.5,41.2
	s13.3-11.9,6.9-17.8c-6.5-5.9-4.9,4.8-10.8,3.6c-5.9-1.2-4.4-13.3,7.5-13.1c24.4,3.1,17.5,34,3.5,35.8s-24.5,0.6-34.3-14.7
	c-1.9,3.3-4.2,21.1,8.2,26c12.4,4.9,3.9,14.1-9.8,15.1c-13.5,0.9-11.5-6.6-21.4-25.3c-7.9-14.8-23.1-12.1-33.8-4.9
	c-8.1,8.6-17.1,16.4-26.6,23.3c4.7,0.5,9.7,0,14.5-1.1c16.2-3.8,16.7,10.7,11.7,17.5c-3.8,6.6-9.8,22.7,8.8,24.6
	c-5.4,20.8,30,38.8,50.7,23.5c4.5,11.3,29.2,15.5,38.5-0.8c9.4-16.4,8.8-28.7-8.4-40.6c-17.1-12-4.1-25.2,8.2-18.1
	c12.4,7.1,19,1.1,28.5-9.9c-2.7,25.7,13.8,10.1,24.8,25.1s46.1,14.4,50.9-16.6c18.4,4,44-31.4,23.9-57.1
	C647.5,81.6,629.3,37.5,585.4,36.3z"/>
<g>
	<path fill="#8DAA63" d="M97.8,54.8C85.1,48,68,48.4,59.9,64c-10.4,0.6-23.8,10.9-17.4,32c10.7-7.3,34.7-31.7,56.2-1.8
		c13.7,19.2-9.4,42-21.8,32.4c-5.9-4.6-5.1-11.5,6.8-9.3c4,4.9,13.1-4.2,3.4-17c-15.9-21.1-45.4,3.5-38.4,13.9
		c8.9,13.2,4,17.8-9.9,19.1c19.9,12.1,16.8,62.6-19.9,66.3c-36.7,3.6-39.1-33.4-28.5-45c16.6-18.1,31.5,2.4,27,12.2
		c-4.6,9.9-11.8,6.8-16.8-3.2c-7.8,7.1,0.8,33.6,24.3,19.5c20.5-12.2,8.6-48.4-2.2-49c1.9-5.3-11.5-32.6-32.8-30.6
		c-19.3-14.4-57-0.4-53,29.7c-40.8,9.8-41.9,80.2,8.5,81.6c33.9,60.9,98.3,48.3,114.1,2.2c18.6,2.6,38.7-8.9,26.5-40.7
		c10.7,6.8,28.7-2.4,31.9-23.3c16.6,19.1,32.5-1.9,33.4-10.8s11.5-5.1,17.3,4.1c15.1,23.5,33.9,19.4,42.7,9.9
		C161,139.7,119.8,102.7,97.8,54.8z"/>
</g>
<path fill="#F9CB08" d="M54.8-80.7l2.8-2.5c-5.9-15-11.8-30-17.7-45c-5.5-25.4,0.8-51.3-2.9-77.5c-9.9-9.4-15.9-4.8-23.4-9.8
	c-8.5-5.7-13.7-19.1-22-25.3c-1.9,0.5-3.6,0.8-5.5,1.3c-1.9,1.1-3.8,2-5.5,3.1c-13.3,54.2,11.9,103.6,68.9,155
	C51.1-81.1,53-81,54.8-80.7z"/>
<path fill="#ED703E" d="M70-125.9c8.6-15,4.4-35.1,12.7-51.9c10.8-22.1,46.3-47.8,45.3-71.5c-4.6-7.5-9.5-10.7-15.9-16.4
	c2-12.4,3.3-21.7-2.5-35.2c-3.6-0.9-7.3-2-10.8-2.9c-4.4,3.2-8.7,6.5-13.1,9.7c-8.4,13.2-16.7,26.4-25.1,39.6
	c-14.1,32.3-18.7,93,7.7,128.4C68.8-126,69.4-126,70-125.9z"/>
<path fill="#F9CB08" d="M59.8-38.9l3.8-3.3C63-44.1,62.5-46,62-47.9c-4.1-8.8-17.3-12.8-25-19.2c-14.6-17.4-29.3-35-43.9-52.4
	c-7.7-3.6-49.3-2.8-57.7,4C-67.2-52.9,30.5-38.5,59.8-38.9z"/>
<path fill="#F9CB08" d="M130-228c-8.9,20.8-30.3,37.2-27.5,58.9c0.2,0.4,0.4,0.7,0.6,1.1l0.1,0.1c0.9,1.1,1.8,2,2.7,2.8
	c0.4,0.1,0.7,0.1,1.1,0.4c0.5-0.1,1.1-0.2,1.5-0.4c0.7-0.4,1.5-0.7,2.2-0.9c1.4-0.5,2.8-0.9,4.2-1.3c9.8-7.2,19.7-14.4,29.4-21.5
	c22.1-5.7,44.3-11.3,66.3-16.8c12-12,1.2-16.2,4.6-27.1c4.5-14,19.9-15.3,12.8-30.7C214.5-288,153.9-250.6,130-228z"/>
<path fill="#F9CB08" d="M99.8-2.6C99-7.7,99.6-9.1,95.7-15c-19.2-5.4-69.3-18.4-87.5-5.5C1.5-12.4-5.1-4.1-11.8,4
	c-3.3,15.9,19.2,23.9,29.3,26C46.5,36.3,74.4,26.3,99.8-2.6z"/>
<path fill="#ED703E" d="M865.7-210.2l2.7-2.3c-5.4-14.3-10.8-28.7-16.2-43c-4.9-24.2,1.5-48.8-1.7-73.6c-9.3-9.1-15-4.8-22.1-9.7
	c-8-5.4-12.7-18.3-20.5-24.3c-1.8,0.4-3.5,0.7-5.3,1.1c-1.8,0.9-3.6,1.9-5.3,2.8c-13.5,51.2,9.8,98.6,63.2,148.3
	C862.3-210.6,864-210.4,865.7-210.2z"/>
<path fill="#F7C90B" d="M880.8-252.9c8.4-14,4.6-33.2,12.8-49.1c10.6-20.8,44.7-44.7,44-67.2c-4.2-7.2-8.9-10.3-14.9-15.8
	c2-11.8,3.4-20.5-1.9-33.4c-3.4-1-6.9-2-10.3-3c-4.2,3-8.4,6-12.6,9c-8.1,12.4-16.2,24.8-24.4,37.2c-13.8,30.5-19.1,88,5.4,122.1
	C879.6-253.1,880.2-253,880.8-252.9z"/>
<path fill="#F7C90B" d="M869.9-170.4l3.6-3.1c-0.5-1.8-1-3.6-1.5-5.4c-3.8-8.5-16.2-12.5-23.4-18.6c-13.7-16.8-27.3-33.6-41-50.4
	c-7.3-3.5-46.8-3.4-54.8,3C749.4-185.5,842-170.4,869.9-170.4z"/>
<path fill="#F7C90B" d="M939.2-348.9c-8.9,19.9-29.7,35.3-27,56.1l-1.8,1.5l4.9,5.8c12.3-8.7,24.6-17.4,36.9-26.1
	c21.1-5,42.2-10,63.2-15.1c11.6-11.2,1.3-15.4,4.7-25.6c4.4-13.2,19.1-14.2,12.7-29C1020.4-404.8,962.3-370.1,939.2-348.9z"/>
<path fill="#F7C90B" d="M964.3-293.5c0.5,1.8,1,3.6,1.5,5.4c6,9.6,31.3,7.5,42,11.2c14.7,7.6,29.4,15.2,44.1,22.8
	c12.1-1.8,35-14.7,45.4-23.3c-0.4-4.7-0.7-9.4-1.1-14.1C1062.1-327.3,1002.2-326.1,964.3-293.5z"/>
<path fill="#F7C90B" d="M907.3-135.3c-0.7-4.8-0.1-6.1-3.8-11.8c-18.1-5.5-65.6-18.5-83-6.5c-6.4,7.7-12.9,15.3-19.3,23
	c-3.4,15.1,17.9,23,27.4,25.2C856.2-99.1,882.8-108.3,907.3-135.3z"/>
<path fill="#F7C90B" d="M1022.1-249c-3.5,0-4.7,0.8-8.9,4.2c2.2,10.3,14.8,20.8,21,32.2c15.7,29,41.6,59.6,72.3,32.3
	C1109.5-220.1,1050.7-257.1,1022.1-249z"/>
<path fill="#F7C90B" d="M946.1-129.7c-15.2,0.3-36.7,7.1-51.2,16.5c-6.3,14.2-12.4,25.7-2,41.7c2.5,5.9,9,8.1,14.2,11.3
	C938-62.7,971-100.2,946.1-129.7z"/>
<path fill="#F7C90B" d="M1016.3-182.4c1.4,21.1-17.1,87.5,38.9,75.5C1090-133.7,1042.2-203.1,1016.3-182.4z"/>
<path fill="#F7C90B" d="M968.4-123.5c-19.4,37.6,23.6,68.6,44,41.1C1031.6-108.3,996.2-144.9,968.4-123.5z"/>
<path fill="none" d="M317.9,79.1c-67.9,0-123-55.1-123-123c0-44.3,23.5-83.2,58.7-104.8c-68.2,10.2-120.5,69-120.5,140
	c0,78.2,63.4,141.6,141.6,141.6c61,0,112.9-38.5,132.9-92.6C385,64.2,353.2,79.1,317.9,79.1z"/>
<path fill="#F9CB08" d="M274.6-200.8c-106.1,0-192.1,86-192.1,192.1s86,192.1,192.1,192.1s192.1-86,192.1-192.1
	S380.7-200.8,274.6-200.8z M274.6,132.9C196.4,132.9,133,69.5,133-8.7c0-71,52.3-129.9,120.5-140c-35.2,21.6-58.6,60.5-58.6,104.8
	c0,67.9,55.1,123,123,123c35.3,0,67.2-14.9,89.6-38.8C387.5,94.4,335.6,132.9,274.6,132.9z"/>
<path fill="#F9CB08" d="M416.2-8.7c0,17.2-3.1,33.7-8.7,49c20.7-22,33.4-51.6,33.4-84.2c0-67.9-55.1-123-123-123
	c-23.6,0-45.6,6.6-64.3,18.1c6.9-1,13.9-1.6,21.1-1.6C352.8-150.3,416.2-86.9,416.2-8.7z"/>
<path fill="#F9CB08" d="M194.9-43.9c0,67.9,55.1,123,123,123c35.3,0,67.2-14.9,89.6-38.8c5.6-15.3,8.7-31.8,8.7-49
	c0-78.2-63.4-141.6-141.6-141.6c-7.2,0-14.2,0.5-21.1,1.6C218.3-127.1,194.9-88.2,194.9-43.9z"/>
</svg>
