<?xml version="1.0" encoding="utf-8"?>
<!-- Generator: Adobe Illustrator 18.1.1, SVG Export Plug-In . SVG Version: 6.00 Build 0)  -->
<svg version="1.1" id="レイヤー_1" xmlns="http://www.w3.org/2000/svg" xmlns:xlink="http://www.w3.org/1999/xlink" x="0px"
	 y="0px" width="542.2px" height="459.1px" viewBox="-72.1 -72.1 542.2 459.1" enable-background="new -72.1 -72.1 542.2 459.1"
	 xml:space="preserve">
<g id="レイヤー_2" display="none">
</g>
<path fill="#FFDA00" d="M59.2,171l1.9-3.5c-11.2-12.7-22.4-25.4-33.6-38.1C13,106.3,10,78.5-3,54c-13.1-5.7-17.4,0.9-26.6-1.3
	C-40,50-50,38.7-60.4,35.5c-1.7,1.2-3.3,2.1-5,3.2c-1.5,1.8-3,3.3-4.3,5c6.2,58.3,48.8,98,123.4,128.4
	C55.4,171.9,57.4,171.4,59.2,171z"/>
<path fill="#ED703E" d="M70.1,126c3.1-17.9-8.2-36.2-6-55.8c2.8-25.7,28.6-63.7,19.2-86.8c-7.2-5.8-13.2-7.2-21.6-10.5
	c-2.5-13-4.5-22.6-15-33.9c-3.9,0.4-7.9,0.6-11.7,1c-3.2,4.7-6.3,9.5-9.5,14.3c-3.6,16-7.1,32-10.6,48.1
	c-2.4,36.9,14.8,98.5,53.5,124C68.9,126.3,69.5,126.1,70.1,126z"/>
<path fill="#FFDA00" d="M78.1,215.5l2.6-4.6c-1.3-1.7-2.4-3.4-3.6-5.1c-7.2-7.2-21.7-6.5-31.5-10c-20.6-12-41.4-24.1-62.1-36.1
	c-8.9-0.8-49.7,14.9-55.5,24.6C-52.3,247.1,49.3,226.4,78.1,215.5z"/>
<path fill="#FFDA00" d="M102.9,1.7c-1.4,23.7-16.6,47.6-6.1,68c0.3,0.3,0.6,0.5,1,0.9l0.1,0.1c1.3,0.8,2.5,1.3,3.7,1.8
	c0.4,0,0.7-0.2,1.2,0c0.5-0.3,1-0.6,1.3-0.9c0.5-0.6,1.2-1.2,1.9-1.7c1.2-1,2.4-1.9,3.7-2.8c7.1-10.6,14.3-21.3,21.3-31.7
	c19.8-13.5,39.7-27,59.5-40.3c7.6-16.1-4.6-16.4-5.1-28.4c-0.6-15.4,14.2-22.2,1.7-34.9C164.8-87.7,118.4-29.1,102.9,1.7z"/>
<path fill="#FFDA00" d="M111.3,248.6c-2.6-4.7-2.5-6.3-8.5-10.8c-20.9,1.5-75,6.6-88.4,25.8c-3.7,10.4-7.3,20.9-11,31.3
	c2.4,16.9,27.5,16.7,38.2,15.2C72.5,306.1,96.5,286.2,111.3,248.6z"/>
<path fill="#ED703E" d="M549.8-482l3.5-0.8c2-15.5,4-31,5.9-46.5c7.1-24.2,24.7-43.3,33.6-67.2c-4-12.6-11.2-11.5-15.3-19.3
	c-4.6-8.7-2.7-22.6-6.9-31.7c-1.8-0.5-3.5-1-5.3-1.5c-2.1,0-4.2,0-6.1,0c-36.6,39.7-38.3,93.6-13.9,163.9
	C546.9-484,548.4-483,549.8-482z"/>
<path fill="#F7C90B" d="M583.8-513.3c14.3-8.6,20-27.7,35-38.1c19.5-13.7,61.7-18.9,71.8-39.5c-0.3-8.5-3.1-13.5-5.9-21.4
	c7.4-9.7,12.9-16.9,14.2-31c-2.6-2.5-5.3-5.1-7.9-7.6c-5.2,0.7-10.4,1.4-15.7,2.1c-13.2,7.3-26.5,14.6-39.8,21.9
	c-27,20.9-59.3,70.2-53.5,112.6C582.8-514,583.3-513.7,583.8-513.3z"/>
<path fill="#F7C90B" d="M534.6-444.1l4.7-1.1c0.4-1.9,0.8-3.7,1.2-5.6c0.6-9.5-8.6-19-12.2-27.9c-4.3-21.7-8.5-43.3-12.9-65
	c-4.9-6.6-40.6-25.4-50.8-23.5C433.2-515.3,509.4-457.5,534.6-444.1z"/>
<path fill="#F7C90B" d="M682.3-571.9c-17.5,13.7-43.6,17.6-51.1,37.7l-2.3,0.5l1.6,7.6c15.2-2,30.5-3.9,45.7-5.9
	c21.4,5.6,42.8,11.2,64.2,16.6c15.8-4.6,8.5-13.3,16.5-20.8c10.3-9.8,24-3.7,25.3-20.1C782.3-583.5,713.3-580,682.3-571.9z"/>
<path fill="#F7C90B" d="M678.5-510c-0.4,1.9-0.8,3.7-1.2,5.6c0.8,11.5,24.6,21.7,32.5,30.2c9.6,13.9,19.2,27.8,28.9,41.6
	c11.8,4.2,38.6,3.5,52.1,0.7c1.9-4.4,3.9-8.8,5.7-13.2C782.8-493.7,728.2-521.2,678.5-510z"/>
<path fill="#F7C90B" d="M551.5-394.6c1.7-4.7,2.8-5.5,2.2-12.5c-13.7-13.6-50.3-48-71.7-45.5c-9.4,3.9-18.9,7.6-28.4,11.5
	c-10.3,12,5.1,29.3,12.7,35.8C488.2-386.4,516.5-382,551.5-394.6z"/>
<path fill="#F7C90B" d="M709.3-442.2c-3.2-1.7-4.6-1.5-10-0.5c-2.9,10.3,3.4,25.8,3.5,39.1c0.3,33.6,9,73.6,49.7,63.7
	C774.3-374.4,739-435.9,709.3-442.2z"/>
<path fill="#F7C90B" d="M583.8-371c-13.8-7-36.5-11.1-54-9.6c-12.5,9.8-23.5,17.2-21.7,36.6c-0.6,6.5,4.2,11.6,7.4,17
	C544.5-314.5,592.2-332.5,583.8-371z"/>
<path fill="#F7C90B" d="M672.3-385c-8.8,19.7-57.2,70.7-1,86.6C715.4-305.9,705.5-391.3,672.3-385z"/>
<path fill="#F7C90B" d="M600.9-354.8c-35.5,24.6-11.5,73.1,20,58.1C650.6-310.9,636.2-360.8,600.9-354.8z"/>
<path fill="#FFDA00" d="M278,2.8c-106.1,0-192.1,86-192.1,192.1S171.9,387,278,387s192.1-86,192.1-192.1S384.1,2.8,278,2.8z
	 M278,336.5c-78.2,0-141.6-63.4-141.6-141.6c0-71,52.3-129.9,120.5-140c-35.2,21.6-58.6,60.5-58.6,104.8c0,67.9,55.1,123,123,123
	c35.3,0,67.2-14.9,89.6-38.8C390.9,298,339,336.5,278,336.5z"/>
</svg>
