<?xml version="1.0" encoding="utf-8"?>
<!-- Generator: Adobe Illustrator 18.1.1, SVG Export Plug-In . SVG Version: 6.00 Build 0)  -->
<svg version="1.1" id="レイヤー_1" xmlns="http://www.w3.org/2000/svg" xmlns:xlink="http://www.w3.org/1999/xlink" x="0px"
	 y="0px" viewBox="10 158.1 631.5 477.9" enable-background="new 10 158.1 631.5 477.9" xml:space="preserve">
<image display="none" overflow="visible" enable-background="new    " width="2000" height="480" xlink:href="449316581D1D37F1.jpg"  transform="matrix(1.0738 0 0 0.1341 -1393.459 137.6137)">
</image>
<path fill="#494949" d="M598.6,441.4c-37.8-24.4-56.3,24.2-43.6,34.2c-21,22.2,7.8,47.9,17.9,39.8c15.3,8.8,23.5-15.2,14.4-20.4
	c-9.1-5.2-12.9,6.5-12.9,6.5c-0.9,3.2-9.4,3.8-6.6-4.7c3.9-11.6,18.3-13,24.8-8.4c6.6,4.7,13.3,13.6,5.3,29.4
	c-5.8,13.3-29.2,14.6-48.1-0.8c-18.9-15.4-5.8-38.4-5.8-38.4s3.2-5.6-5.8-12.5c-9-7-28.2-4.1-27,6.8c0,0-12.8-8.3-24.8,12.6
	c-11.9,20.9,12.4,34.8,22.5,35c10.1,0.2,11.3-10.1,5.9-15.1c-5.5-5-4.2,4.1-9.2,3.1s-3.7-11.3,6.4-11.1c20.7,2.6,14.9,28.9,3,30.4
	c-11.9,1.5-20.8,0.5-29.1-12.5c-1.6,2.8-3.6,17.9,7,22.1c10.5,4.2,3.3,12-8.3,12.8c-11.5,0.8-9.8-5.6-18.2-21.5
	c-6.7-12.6-19.6-10.3-28.7-4.2c-6.9,7.3-14.5,13.9-22.6,19.8c4,0.4,8.2,0,12.3-0.9c13.8-3.2,14.2,9.1,9.9,14.9
	c-3.2,5.6-8.3,19.3,7.5,20.9c-4.6,17.7,25.5,33,43.1,20c3.8,9.6,24.8,13.2,32.7-0.7c8-13.9,7.5-24.4-7.1-34.5
	c-14.5-10.2-3.5-21.4,7-15.4c10.5,6,16.1,0.9,24.2-8.4c-2.3,21.8,11.7,8.6,21.1,21.3c9.4,12.7,39.2,12.2,43.2-14.1
	c15.6,3.4,37.4-26.7,20.3-48.5C651.4,479.9,635.9,442.4,598.6,441.4z"/>
<g>
	<path fill="#494949" d="M173.4,463.7c-10.8-5.8-25.3-5.4-32.2,7.8c-8.8,0.5-20.2,9.3-14.8,27.2c9.1-6.2,29.5-26.9,47.7-1.5
		c11.6,16.3-8,35.7-18.5,27.5c-5-3.9-4.3-9.8,5.8-7.9c3.4,4.2,11.1-3.6,2.9-14.4c-13.5-17.9-38.6,3-32.6,11.8
		c7.6,11.2,3.4,15.1-8.4,16.2c16.9,10.3,14.3,53.2-16.9,56.3c-31.2,3.1-33.2-28.4-24.2-38.2c14.1-15.4,26.8,2,22.9,10.4
		c-3.9,8.4-10,5.8-14.3-2.7c-6.6,6,0.7,28.5,20.6,16.6c17.4-10.4,7.3-41.1-1.9-41.6c1.6-4.5-9.8-27.7-27.9-26
		c-16.4-12.2-48.4-0.3-45,25.2c-34.7,8.3-35.6,68.1,7.2,69.3c28.8,51.7,83.5,41,96.9,1.9c15.8,2.2,32.9-7.6,22.5-34.6
		c9.1,5.8,24.4-2,27.1-19.8c14.1,16.2,27.6-1.6,28.4-9.2c0.8-7.6,9.8-4.3,14.7,3.5c12.8,20,28.8,16.5,36.3,8.4
		C227.1,535.8,192.1,504.4,173.4,463.7z"/>
</g>
<path display="none" fill="#D8A94C" d="M136.9,348.6l2.4-2.1c-5-12.7-10-25.5-15-38.2c-4.7-21.6,0.7-43.6-2.5-65.8
	c-8.4-8-13.5-4.1-19.9-8.3c-7.2-4.8-11.6-16.2-18.7-21.5c-1.6,0.4-3.1,0.7-4.7,1.1c-1.6,0.9-3.2,1.7-4.7,2.6
	c-11.3,46,10.1,88,58.5,131.7C133.8,348.3,135.4,348.4,136.9,348.6z"/>
<path display="none" fill="#ED703E" d="M149.8,310.2c7.3-12.7,3.7-29.8,10.8-44.1c9.2-18.7,39.3-40.6,38.5-60.7
	c-3.9-6.4-8.1-9.1-13.5-13.9c1.7-10.5,2.8-18.4-2.1-29.9c-3.1-0.8-6.2-1.7-9.2-2.5c-3.7,2.7-7.4,5.5-11.1,8.2
	c-7.1,11.2-14.2,22.4-21.3,33.6c-12,27.4-15.9,79,6.5,109.1C148.8,310.1,149.3,310.1,149.8,310.2z"/>
<path display="none" fill="#D8A94C" d="M141.2,384.1l3.2-2.8c-0.5-1.6-0.9-3.2-1.4-4.8c-3.5-7.5-14.7-10.9-21.2-16.3
	c-12.4-14.8-24.9-29.7-37.3-44.5c-6.5-3.1-41.9-2.4-49,3.4C33.3,372.2,116.3,384.5,141.2,384.1z"/>
<path display="none" fill="#D8A94C" d="M200.8,223.5c-7.6,17.7-25.7,31.6-23.4,50c0.2,0.3,0.3,0.6,0.5,0.9l0.1,0.1
	c0.8,0.9,1.5,1.7,2.3,2.4c0.3,0.1,0.6,0.1,0.9,0.3c0.4-0.1,0.9-0.2,1.3-0.3c0.6-0.3,1.3-0.6,1.9-0.8c1.2-0.4,2.4-0.8,3.6-1.1
	c8.3-6.1,16.7-12.2,25-18.3c18.8-4.8,37.6-9.6,56.3-14.3c10.2-10.2,1-13.8,3.9-23c3.8-11.9,16.9-13,10.9-26.1
	C272.6,172.5,221.1,204.3,200.8,223.5z"/>
<path display="none" fill="#D8A94C" d="M175.1,415c-0.7-4.3-0.2-5.5-3.5-10.5c-16.3-4.6-58.9-15.6-74.3-4.7
	c-5.7,6.9-11.3,13.9-17,20.8c-2.8,13.5,16.3,20.3,24.9,22.1C129.9,448,153.6,439.5,175.1,415z"/>
<circle display="none" fill="#C9AB2D" cx="323.6" cy="409.8" r="163.2"/>
<path display="none" fill="#FFFFFF" d="M323.6,556.3L323.6,556.3c-0.1-20.6-131.5-11-131.6-153.6c0-70.5,62.9-124.2,131.6-124.3
	c68.7,0.1,131.5,53.8,131.5,124.3C455.1,545.3,323.6,535.3,323.6,556.3z"/>
<g display="none">
	<path display="inline" fill="#C9AB2D" d="M341.4,384.3c-6.2-2.9-11.9-4.5-17.1-4.8c-0.3,0-4.4,0.9-12.4,2.6
		c-8.5,1.7-13.5,2.7-14.8,2.9c1.2-8.1,3.6-14.5,7.1-19.2c0.4-0.5,0.7-1.1,0.7-1.8c0.2-3.8-2.3-7.3-7.4-10.6
		c10.5-2.4,21.7-3.3,33.6-2.7c1.4,0.1,3.4,0.3,6.1,0.6c2.7,0.3,4.7,0.6,6.1,0.6c8.7,0.5,13.1-1.8,13.4-6.8c0.3-6-3.2-11-10.6-15.2
		c-6.2-3.5-12.7-5.4-19.5-5.7c-3.9-0.2-13.9,1.3-29.8,4.5c-10.6,2.3-21.2,4.5-31.8,6.7c-17.4,3.3-31.7,0.3-34.4,0.1
		c-4.1-0.2-7.6-1.2-10.6-3l-1.5,1.4c0.4,3.1,2.7,7.9,7.1,14.3c4.3,6.4,7.9,10,10.7,10.9c14.3-5.2,29.6-3.2,37.6-3c0.1,1,0.9,3,2.5,6
		c1.4,2.5,1.9,5.8,1.7,9.9c-0.3,5.3-1.2,10.4-2.7,15.4c-19.4,4.1-30.1,6.1-32.1,6c-4.7-0.3-9.5-1.6-14.3-4l-1.6,2.4
		c0.9,4,3.1,8.9,6.5,14.8c4,6.6,7.5,10.3,10.4,11.2c5.4-3.7,9.4-6,12-6.9c3.5-1.3,8.1-2.1,14-2.3c-12.4,30.6-30.4,58.8-65.7,79.3
		l1.4,1.1c3.8,0.6,7.4,1,10.7,1.2c31.7,1.7,50.9-21.9,69.1-65.5c0,0.1,0.1,0.1,0.1,0.2c0.1-0.2,0.2-0.4,0.3-0.6
		c0.4-0.8,0.8-1.7,1.3-2.5c1.7-3.4,3.1-6.9,5-10.3c0.1-0.3,0.2-0.7,0.3-1c0.2-0.7,0.5-1.3,0.9-1.8c0.1-0.4,0.3-0.8,0.6-1.2
		c0.3-0.7,0.7-1.3,1.2-1.7c0.5-0.6,1.2-1,2-1.2c0.2-0.1,0.4-0.1,0.7-0.2c0.6-0.2,1.3-0.4,2.2-0.3c0.2,0,0.4,0,0.6,0.1
		c4.3-0.3,8.8-0.4,13.3-0.1c2.8,0.2,7,0.6,12.6,1.5c5.5,0.8,9.7,1.3,12.6,1.5c3.3,0.2,6.1-0.8,8.6-2.8s3.8-4.7,4-7.9
		C352.4,391.9,348.8,388,341.4,384.3z"/>
	<path display="inline" fill="#C9AB2D" d="M445.4,473.1c0.2,2-0.1,3.8-1,5.3c-1.7,3.3-8,6.6-18.8,10c-9,2.7-16.7,4.4-23.2,5.1
		c-11.9,1.2-24.2,1-37-0.8c-13.8-1.8-25-5-33.5-9.7c-14.2-7.5-24-15.3-29.2-23.5c-5-7.6-8.8-14.2-11.5-20
		c-4.5-9.3-6.9-14.4-7.2-15.1c-3.2-5.8-6.8-10.4-10.9-13.9l0.3-1.8c2.1-0.6,4.2-1.1,6.2-1.3c4.4-0.4,9.8,0.1,16.4,1.7
		c7.5,1.8,11.5,4.1,11.9,6.9c0.1,1,0.2,2.3,0.2,4c0.2,1.9,0.3,3.2,0.4,4c0.4,4.4,1.9,8.7,4.4,12.9c0.4,0.9,3.1,4.9,8,11.8
		c6.3,8.9,16.2,15.7,29.8,20.4c13.5,4.7,27.4,6.3,41.6,4.8c12.8-1.3,18.6-7.1,17.6-17.3c-0.6-6.2-3.1-12.2-7.5-17.9l0.5-1.8
		c7.3,3.1,15.8,8.5,25.4,16.1C439.1,461.6,444.9,468.3,445.4,473.1z"/>
	<path display="inline" fill="#C9AB2D" d="M382,440.1c1.4,7.2-0.8,11.4-6.5,12.6c-4.2,0.8-7.7-0.5-10.6-3.8c-0.6-0.7-2.2-3.7-5-9
		c-3.3-6.1-6.9-11.7-10.9-16.7l-0.2-1.9c1-0.3,2.1-0.6,3.1-0.8c7-1.4,13.5-0.2,19.3,3.5C377.1,427.7,380.7,433.1,382,440.1z"/>
	<path display="inline" fill="#C9AB2D" d="M440.1,419.7c0.9,5.8-2.4,9.3-10,10.5c-1.6,0.3-4.6-0.7-8.9-2.8
		c-3.3-1.6-7.7-4.6-13.3-8.9c-5.6-4.3-9.8-7.3-12.8-8.9l-0.4-1.4c3.8-2,7.4-3.3,10.9-3.9c6.3-1,13.1-0.2,20.4,2.3
		C434.5,409.6,439.2,414,440.1,419.7z"/>
</g>
<path fill="#6D6D6D" d="M136.8,348.1l2.4-2.2c-5-12.7-10-25.5-15.1-38.2c-4.8-21.7,0.6-43.8-2.6-65.9c-8.4-8-13.5-4.2-19.9-8.4
	c-7.2-4.8-11.8-16.3-18.7-21.5c-1.6,0.4-3.2,0.8-4.8,1c-1.6,0.8-3.2,1.8-4.8,2.6c-11.2,46.2,10.4,88.2,59,132.1
	C133.6,347.7,135.2,347.9,136.8,348.1z"/>
<path fill="#939393" d="M149.8,309.5c7.4-12.7,3.8-29.9,10.8-44.2c9.2-18.7,39.4-40.6,38.6-60.8c-3.8-6.4-8.2-9.2-13.5-13.9
	c1.6-10.6,2.8-18.3-2.2-29.9c-3-0.8-6.2-1.6-9.2-2.6c-3.8,2.8-7.4,5.4-11.2,8.2c-7.2,11.4-14.3,22.5-21.5,33.7
	c-12,27.5-15.9,79.3,6.6,109.4C148.8,309.5,149.2,309.5,149.8,309.5z"/>
<path fill="#515151" d="M141,383.8l3.2-2.8c-0.4-1.6-1-3.2-1.4-4.8c-3.6-7.6-14.7-11-21.3-16.3C108.9,345,96.6,330.2,84,315.3
	c-6.4-3.2-41.8-2.6-49,3.4C32.9,371.8,116.1,384.2,141,383.8z"/>
<path fill="#AAAAAA" d="M200.8,222.6c-7.6,17.7-25.7,31.7-23.5,50.2c0.2,0.4,0.4,0.6,0.4,1l0,0c0.8,1,1.6,1.8,2.4,2.4
	c0.4,0,0.6,0.2,1,0.2c0.4-0.2,0.8-0.2,1.2-0.2c0.6-0.2,1.2-0.6,1.8-0.8c1.2-0.4,2.4-0.8,3.6-1.2c8.4-6.2,16.7-12.2,25.1-18.3
	c18.9-4.8,37.6-9.6,56.6-14.3c10.2-10.2,1-13.7,3.8-23.1c3.8-12,16.9-12.9,11-26.3C272.9,171.4,221.3,203.3,200.8,222.6z"/>
<path fill="#494949" d="M175.1,414.7c-0.6-4.4-0.2-5.6-3.6-10.6c-16.3-4.6-59.2-15.7-74.5-4.8c-5.6,7-11.4,13.9-16.9,20.9
	c-2.8,13.5,16.3,20.3,24.9,22.1C129.9,447.7,153.6,439.2,175.1,414.7z"/>
<path fill="#494949" d="M323.9,245.7c-90.4,0-163.5,73.3-163.5,163.5c0,90.4,73.3,163.5,163.5,163.5c90.4,0,163.5-73.3,163.5-163.5
	S414.3,245.7,323.9,245.7z"/>
<path fill="#FFFFFF" d="M322.7,549.3L322.7,549.3c0-19.9-126.7-10.5-126.7-147.9c0-67.9,60.7-119.6,126.7-119.6
	c66.2,0,126.7,51.9,126.7,119.6C449.4,538.8,322.7,529,322.7,549.3z"/>
<g>
	<path fill="#494949" d="M339.9,383.8c-5.9-2.9-11.5-4.4-16.5-4.6c-0.2,0-4.2,0.8-11.9,2.5c-8.2,1.7-13,2.7-14.4,2.9
		c1.1-7.8,3.4-14,6.9-18.6c0.4-0.6,0.6-1.1,0.8-1.7c0.2-3.6-2.1-7.1-7.1-10.1c10.1-2.3,20.9-3.3,32.3-2.7c1.3,0,3.3,0.2,5.9,0.6
		s4.6,0.6,5.9,0.6c8.4,0.4,12.6-1.7,12.8-6.5c0.4-5.7-3.1-10.7-10.1-14.7c-5.9-3.3-12.2-5.2-18.8-5.5c-3.8-0.2-13.4,1.3-28.7,4.4
		c-10.1,2.3-20.5,4.4-30.6,6.5c-16.8,3.3-30.4,0.2-33.1,0.2c-3.8-0.2-7.3-1.1-10.3-2.9l-1.5,1.1c0.4,3.1,2.7,7.7,6.9,13.8
		c4.2,6.1,7.7,9.8,10.3,10.5c13.8-5,28.5-3.1,36.2-2.9c0,1,1,2.9,2.5,5.7c1.3,2.5,1.9,5.5,1.7,9.6c-0.2,5.2-1.1,10-2.5,14.7
		c-18.8,4-28.9,5.9-31,5.7c-4.6-0.2-9.2-1.5-13.8-3.8l-1.5,2.3c0.8,3.8,2.9,8.6,6.3,14.4c3.8,6.3,7.3,10,10,10.7
		c5.2-3.4,9-5.7,11.5-6.7c3.3-1.3,7.8-1.9,13.4-2.3c-11.9,29.5-29.3,56.6-63.3,76.4l1.5,1.1c3.6,0.6,7.1,1,10.3,1.1
		c30.6,1.5,49-21,66.6-63c0,0,0,0.2,0.2,0.2c0.2-0.2,0.2-0.4,0.4-0.6c0.4-0.8,0.8-1.5,1.3-2.5c1.5-3.3,3.1-6.7,4.8-10
		c0-0.4,0.2-0.6,0.4-1c0.2-0.6,0.6-1.1,0.8-1.7c0.2-0.4,0.4-0.8,0.6-1.1c0.2-0.6,0.6-1.1,1.1-1.7c0.6-0.6,1.1-1,1.9-1.1
		c0.2,0,0.4-0.2,0.6-0.2c0.6-0.2,1.3-0.4,2.1-0.4c0.2,0,0.4,0,0.6,0c4.2-0.4,8.4-0.4,12.8-0.2c2.7,0.2,6.7,0.6,12.1,1.3
		c5.4,0.8,9.4,1.3,12.1,1.3c3.1,0.2,5.9-0.8,8.2-2.7c2.5-1.9,3.6-4.6,3.8-7.7C350.4,391.1,347,387.2,339.9,383.8z"/>
	<path fill="#494949" d="M440,469.1c0.2,1.9-0.2,3.6-1,5.2c-1.7,3.3-7.7,6.3-18.2,9.6c-8.6,2.7-16.1,4.2-22.4,5
		c-11.5,1.1-23.3,1-35.6-0.8c-13.2-1.7-24.1-4.8-32.3-9.4c-13.8-7.3-23.2-14.7-28.1-22.6c-4.8-7.3-8.6-13.8-11.1-19.1
		c-4.2-9-6.7-13.8-6.9-14.5c-3.1-5.5-6.5-10.1-10.5-13.4l0.2-1.7c2.1-0.6,4-1,5.9-1.1c4.2-0.4,9.4,0.2,15.9,1.7
		c7.3,1.7,11.1,4,11.5,6.7c0,1,0.2,2.3,0.2,3.8c0.2,1.9,0.4,3.1,0.4,3.8c0.4,4.2,1.9,8.4,4.2,12.4c0.4,1,2.9,4.6,7.7,11.3
		c6.1,8.6,15.7,15.1,28.7,19.5c13,4.4,26.4,5.9,40,4.6c12.2-1.3,18-6.7,17-16.6c-0.6-5.9-3.1-11.7-7.3-17.2l0.4-1.7
		c7.1,3.1,15.3,8.2,24.5,15.5C434,458.2,439.6,464.6,440,469.1z"/>
	<path fill="#494949" d="M378.9,437.4c1.3,6.9-0.8,11.1-6.3,12.1c-4,0.8-7.5-0.4-10.1-3.6c-0.6-0.6-2.1-3.4-4.8-8.6
		c-3.1-5.9-6.7-11.3-10.5-16.1l-0.2-1.9c1-0.4,1.9-0.6,3.1-0.8c6.7-1.3,13-0.2,18.6,3.4C374.2,425.5,377.6,430.7,378.9,437.4z"/>
	<path fill="#494949" d="M435,417.7c1,5.5-2.3,9-9.6,10.1c-1.5,0.2-4.4-0.6-8.6-2.7c-3.3-1.5-7.5-4.4-12.8-8.6s-9.4-7.1-12.2-8.6
		l-0.4-1.3c3.6-1.9,7.1-3.3,10.5-3.6c6.1-1,12.6-0.2,19.5,2.3C429.5,408.1,434,412.3,435,417.7z"/>
</g>
</svg>
