<?xml version="1.0" encoding="utf-8"?>
<!-- Generator: Adobe Illustrator 18.1.1, SVG Export Plug-In . SVG Version: 6.00 Build 0)  -->
<svg version="1.1" id="レイヤー_1" xmlns="http://www.w3.org/2000/svg" xmlns:xlink="http://www.w3.org/1999/xlink" x="0px"
	 y="0px" width="578.8px" height="45.8px" viewBox="0 0 578.8 45.8" enable-background="new 0 0 578.8 45.8" xml:space="preserve">
<g>
	<path d="M33.4,8.6c1.5,2.1,2.6,4.4,3.4,6.9c0.8,2.5,1.2,5.1,1.2,7.6c0,1.3-0.1,2.8-0.4,4.2c-0.2,1.5-0.6,2.9-1.1,4.4
		c-0.5,1.4-1.1,2.8-1.8,4.1c-0.7,1.3-1.6,2.4-2.5,3.4c-2.5,2.5-5.3,4.3-8.2,5.2c-2.9,1-6.1,1.4-9.5,1.4H0v-6.1h6.6h7.9
		c2.6,0,5-0.4,7-1.1c2.1-0.7,3.9-1.8,5.3-3.2c1.5-1.4,2.6-3.2,3.4-5.2c0.8-2.1,1.2-4.4,1.2-7c0-1.2-0.1-2.4-0.4-3.6
		c-0.2-1.2-0.6-2.3-1-3.4c-1.4-3.3-3.4-5.8-6.1-7.4c-2.7-1.6-5.7-2.4-9.2-2.4H6.6H0V0.1h14.8c3.7,0,7.2,0.6,10.5,1.9
		C28.5,3.3,31.2,5.5,33.4,8.6z"/>
	<path d="M44.5,0.1h6v45.8h-6V0.1z"/>
	<path d="M102.5,23.1L88.4,44c-1.4,0.6-2.8,1-4.3,1.3c-1.5,0.3-2.9,0.5-4.5,0.5h-0.1c-3.1,0-6.1-0.6-8.8-1.8
		c-2.7-1.2-5.1-2.8-7.1-4.9c-2-2.1-3.6-4.5-4.8-7.2c-1.2-2.7-1.7-5.7-1.7-8.8c0-3.2,0.6-6.2,1.7-9c1.1-2.8,2.7-5.2,4.7-7.3
		s4.4-3.7,7.1-4.9c2.7-1.2,5.7-1.8,8.9-1.8c2.1,0,4.1,0.3,6.1,0.8c2,0.5,3.8,1.3,5.5,2.4c1.7,1,3.3,2.3,4.7,3.8s2.6,3.1,3.6,4.9
		h-7.5c-1.6-1.8-3.4-3.3-5.3-4.4c-1.9-1.1-4.2-1.6-6.7-1.6c-2.3,0-4.5,0.5-6.4,1.4c-2,0.9-3.7,2.2-5.2,3.8s-2.6,3.4-3.4,5.5
		c-0.8,2.1-1.3,4.2-1.3,6.5c0,2.2,0.4,4.3,1.3,6.3c0.9,2,2,3.8,3.5,5.4c1.5,1.5,3.2,2.8,5.2,3.7c2,0.9,4.1,1.4,6.4,1.4
		c1.3,0,2.7-0.2,4-0.5l7.2-10.5H74.7v-5.8h20.6H102.5z"/>
	<path d="M108.9,0.1h6v45.8h-6V0.1z"/>
	<path d="M136.6,45.8h-6.7V6.2h-8.8V0h24.3v6.2h-8.8V45.8z"/>
	<path d="M151.7,0.2h8.2l31.4,45.6h-8.1l-9.2-13.4h-15.6v13.4h-6.6V0.2z M169.7,26.3L158.5,8.8h-0.2v17.5H169.7z"/>
	<path d="M198.2,0.1h6.8v39.7h15.9v6h-22.7V0.1z"/>
	<path d="M225.9,31.4V25H243v6.3H225.9z"/>
	<path d="M276,37.9c-0.6,1.5-1.4,2.7-2.4,3.7c-1,1-2.1,1.8-3.4,2.4c-1.2,0.6-2.6,1-4,1.3c-1.4,0.3-2.9,0.4-4.3,0.4h-13.7V0.1h11.9
		c1.5,0,2.9,0.1,4.2,0.4c1.4,0.3,2.6,0.7,3.8,1.3s2.2,1.4,3.1,2.4c0.9,1,1.7,2.2,2.2,3.6c0.3,0.8,0.5,1.6,0.7,2.4
		c0.1,0.8,0.2,1.7,0.2,2.5c0,1.9-0.3,3.5-1,4.8c-0.7,1.3-1.7,2.6-3.1,3.8c2.2,1.3,3.9,2.8,5.1,4.6c1.2,1.8,1.8,4,1.8,6.6
		C277.1,34.4,276.8,36.2,276,37.9z M260,6.2h-5.1V19h5.5c2.1,0,3.9-0.5,5.2-1.5c1.4-1,2-2.6,2-4.9c0-1.2-0.2-2.2-0.6-3.1
		c-0.4-0.8-1-1.5-1.6-2c-0.7-0.5-1.5-0.9-2.4-1.1C262.1,6.3,261.1,6.2,260,6.2z M268.8,27.9c-0.9-1.3-2-2-3.3-2.3
		c-1.3-0.3-2.7-0.4-4.2-0.4h-6.4v14.5h7.3c1.1,0,2.1-0.2,3.1-0.5c1-0.3,1.9-0.8,2.6-1.4c0.8-0.6,1.4-1.4,1.8-2.3
		c0.5-0.9,0.7-1.9,0.7-3.1c0-0.8-0.2-1.6-0.5-2.4C269.7,29.3,269.3,28.6,268.8,27.9z"/>
	<path d="M306.5,45.8c-3.2,0-6.2-0.6-8.9-1.8c-2.8-1.2-5.2-2.8-7.3-4.9c-2.1-2.1-3.7-4.5-4.9-7.3c-1.2-2.8-1.8-5.7-1.8-8.8
		c0-3.2,0.6-6.2,1.8-9c1.2-2.8,2.8-5.2,4.9-7.3c2.1-2.1,4.5-3.7,7.3-4.9c2.8-1.2,5.8-1.8,8.9-1.8c3.2,0,6.2,0.6,9,1.8
		c2.8,1.2,5.2,2.8,7.3,4.9c2.1,2.1,3.7,4.5,4.9,7.3c1.2,2.8,1.8,5.8,1.8,9c0,3.1-0.6,6.1-1.8,8.8c-1.2,2.8-2.9,5.2-5,7.2
		c-2.1,2.1-4.5,3.7-7.3,4.9C312.6,45.2,309.7,45.8,306.5,45.8z M306.5,5.9c-3.5,0-6.5,0.9-9.1,2.6c-2.6,1.7-4.6,4.2-5.9,7.4
		c-0.4,1.1-0.8,2.2-1.1,3.4c-0.3,1.2-0.4,2.4-0.4,3.7c0,1.2,0.1,2.4,0.4,3.6c0.3,1.2,0.6,2.4,1.1,3.5c1.4,3.1,3.4,5.6,5.9,7.3
		c2.6,1.7,5.6,2.6,9.1,2.6c3.7,0,6.8-1,9.5-2.9c2.7-2,4.7-4.6,5.9-8c0.7-2,1-3.9,1-5.9c0-2.4-0.4-4.6-1.2-6.6
		c-0.8-2.1-2-3.9-3.4-5.5c-1.5-1.6-3.2-2.8-5.2-3.7C311.1,6.4,308.9,5.9,306.5,5.9z"/>
	<path d="M335.7,45.8v-6.1l19.8-33.5h-18.8V0.1h26.3v6.1l-19.7,33.5h20.5v6.1H335.7z"/>
	<path d="M369.9,45.8v-6.1l19.8-33.5h-18.8V0.1h26.3v6.1l-19.7,33.5H398v6.1H369.9z"/>
	<path d="M408.1,45.8v-7.4h6.3v7.4H408.1z"/>
	<path d="M440.1,7.4c-2,0.9-3.7,2.1-5.1,3.7c-1.4,1.5-2.5,3.3-3.2,5.4c-0.7,2-1.1,4.2-1.1,6.4c0,2.4,0.4,4.6,1.2,6.6
		c0.8,2.1,1.9,3.9,3.3,5.4c1.4,1.5,3.1,2.8,5.1,3.7c2,0.9,4.2,1.3,6.6,1.3h7.4h1.2v6h-8.7v-0.1c-0.1,0.1-0.2,0.1-0.4,0.1
		c-3.5,0-6.6-0.6-9.4-1.9s-5.1-3-7-5.1c-1.9-2.1-3.3-4.6-4.4-7.3c-1-2.7-1.5-5.6-1.5-8.5c0-3.1,0.5-6,1.6-8.8
		c1.1-2.8,2.6-5.2,4.6-7.3c2-2.1,4.3-3.7,7.1-4.9c2.8-1.2,5.8-1.9,9.2-1.9h0.1h8.7V6h-1.2h-7.6C444.3,6,442.1,6.4,440.1,7.4z"/>
	<path d="M484.9,45.8c-3.2,0-6.2-0.6-8.9-1.8c-2.8-1.2-5.2-2.8-7.3-4.9c-2.1-2.1-3.7-4.5-4.9-7.3c-1.2-2.8-1.8-5.7-1.8-8.8
		c0-3.2,0.6-6.2,1.8-9c1.2-2.8,2.8-5.2,4.9-7.3c2.1-2.1,4.5-3.7,7.3-4.9c2.8-1.2,5.8-1.8,8.9-1.8c3.2,0,6.2,0.6,9,1.8
		c2.8,1.2,5.2,2.8,7.3,4.9c2.1,2.1,3.7,4.5,4.9,7.3c1.2,2.8,1.8,5.8,1.8,9c0,3.1-0.6,6.1-1.8,8.8c-1.2,2.8-2.9,5.2-5,7.2
		c-2.1,2.1-4.5,3.7-7.3,4.9C491,45.2,488.1,45.8,484.9,45.8z M484.9,5.9c-3.5,0-6.5,0.9-9.1,2.6c-2.6,1.7-4.6,4.2-5.9,7.4
		c-0.4,1.1-0.8,2.2-1.1,3.4c-0.3,1.2-0.4,2.4-0.4,3.7c0,1.2,0.1,2.4,0.4,3.6c0.3,1.2,0.6,2.4,1.1,3.5c1.4,3.1,3.4,5.6,5.9,7.3
		c2.6,1.7,5.6,2.6,9.1,2.6c3.7,0,6.8-1,9.5-2.9c2.7-2,4.7-4.6,5.9-8c0.7-2,1-3.9,1-5.9c0-2.4-0.4-4.6-1.2-6.6
		c-0.8-2.1-2-3.9-3.4-5.5c-1.5-1.6-3.2-2.8-5.2-3.7C489.6,6.4,487.3,5.9,484.9,5.9z"/>
	<path d="M539.2,24.1v-24h8.2l31.5,45.8h-8.2L546,8.7h-0.2v25.1v12l-6.6-10.1l-18-27h-0.1v37.1h-6.8V0.1h8.3L539.2,24.1z"/>
</g>
</svg>
