<?xml version="1.0" encoding="utf-8"?>
<!-- Generator: Adobe Illustrator 15.1.0, SVG Export Plug-In . SVG Version: 6.00 Build 0)  -->
<!DOCTYPE svg PUBLIC "-//W3C//DTD SVG 1.1//EN" "http://www.w3.org/Graphics/SVG/1.1/DTD/svg11.dtd" [
	<!ENTITY ns_flows "http://ns.adobe.com/Flows/1.0/">
	<!ENTITY ns_extend "http://ns.adobe.com/Extensibility/1.0/">
	<!ENTITY ns_ai "http://ns.adobe.com/AdobeIllustrator/10.0/">
	<!ENTITY ns_graphs "http://ns.adobe.com/Graphs/1.0/">
]>
<svg version="1.1" id="レイヤー_1" xmlns:x="&ns_extend;" xmlns:i="&ns_ai;" xmlns:graph="&ns_graphs;"
	 xmlns="http://www.w3.org/2000/svg" xmlns:xlink="http://www.w3.org/1999/xlink" xmlns:a="http://ns.adobe.com/AdobeSVGViewerExtensions/3.0/"
	 x="0px" y="0px" width="615.1px" height="165px" viewBox="0 0 615.1 165" style="enable-background:new 0 0 615.1 165;"
	 xml:space="preserve">
<g>
	<path d="M16.8,158.8c-1.1,0-2.3,0-3.4-0.1c-3.3-0.2-6.8-0.6-10.4-1.1l-0.3,0L0,155.4l1.3-0.7c33-19.2,55.7-43.3,67.6-71.7
		c-4.8,0.3-8.6,1-11.5,2.1c-2.5,0.9-6.2,3.1-11.3,6.5l-0.4,0.3l-0.4-0.1c-3.1-0.9-6.6-4.5-10.6-11.1c-3.4-5.7-5.5-10.6-6.4-14.5
		l-0.1-0.4l2.2-3.4l0.8,0.4c4.4,2.3,8.9,3.5,13.3,3.7l0.1,0c1.5,0,8-1,29.9-5.7c1.3-4.5,2.1-9.2,2.3-13.9c0.2-3.7-0.3-6.7-1.5-9
		c-1.5-2.8-2.1-4.4-2.4-5.3c-7.5,0-17.9,2.5-30.9,7.2l-0.3,0.1l-0.3-0.1c-3-0.9-6.5-4.4-10.8-10.8c-4.3-6.4-6.6-11-7-14.2l-0.1-0.5
		l2.4-2.1l0.6,0.4c2.8,1.6,6,2.6,9.8,2.8c0.1,0,0.2,0,0.3,0c3,0,12.6-1.5,28.4-4.5c9.9-2,20.2-4.2,30.4-6.4C110,1.4,119.1,0,123.5,0
		c0.3,0,0.6,0,0.8,0c6.6,0.4,13,2.2,19.1,5.6c7.4,4.2,11,9.4,10.7,15.6c-0.3,5-4.3,7.6-11.8,7.6c-0.7,0-1.4,0-2.1-0.1
		c-1.3-0.1-3.3-0.3-5.9-0.6c-2.6-0.3-4.5-0.5-5.8-0.6c-2.3-0.1-4.7-0.2-7-0.2c-7.9,0-15.5,0.8-22.8,2.3c3.9,3,5.8,6.2,5.6,9.7
		c0,0.9-0.4,1.6-0.9,2.3c-3,4.1-5.2,9.6-6.4,16.5c2.2-0.4,6.5-1.2,12.8-2.5c11.5-2.5,11.8-2.5,12.1-2.5c5.1,0.3,10.7,1.8,16.8,4.7
		c7.5,3.7,11.2,7.8,10.9,12.3c-0.2,3.4-1.6,6.2-4.2,8.3c-2.4,2-5.1,2.9-8.2,2.9c0,0,0,0,0,0c-0.3,0-0.5,0-0.8,0
		c-2.8-0.1-6.9-0.6-12.1-1.4c-5.3-0.8-9.3-1.3-12-1.4c-1.8-0.1-3.5-0.1-5.3-0.1c-2.4,0-4.9,0.1-7.4,0.3l-0.1,0l-0.1,0
		c-0.1,0-0.3,0-0.4,0c-0.1,0-0.2,0-0.2,0c-0.5,0-1,0.1-1.4,0.3l-0.1,0l-0.1,0c-0.2,0-0.3,0.1-0.5,0.1c-0.7,0.2-1.2,0.5-1.6,0.9
		c-0.4,0.4-0.7,0.8-0.9,1.4l0,0.1l-0.1,0.1c-0.2,0.3-0.3,0.6-0.5,0.9l0,0.1l-0.1,0.1c-0.3,0.5-0.6,1-0.7,1.5
		c-0.1,0.3-0.2,0.6-0.3,0.8l0,0.1l-0.1,0.1c-1.2,2-2.2,4.2-3.1,6.3c-0.5,1.2-1.1,2.3-1.6,3.5c-0.5,0.8-0.9,1.6-1.2,2.4
		c0,0-0.3,0.6-0.4,0.7l-0.6,1C68.7,138.7,45.6,158.8,16.8,158.8z"/>
	<path d="M138.3,58.7c-6-2.8-11.4-4.3-16.4-4.6c-0.3,0-4.2,0.8-11.9,2.5c-8.2,1.7-12.9,2.6-14.2,2.8c1.2-7.8,3.5-13.9,6.8-18.4
		c0.4-0.5,0.6-1.1,0.7-1.7c0.2-3.6-2.2-7-7.1-10.2c10-2.3,20.8-3.2,32.2-2.6c1.3,0.1,3.2,0.3,5.8,0.6c2.6,0.3,4.5,0.5,5.8,0.6
		c8.3,0.4,12.6-1.7,12.9-6.6c0.3-5.7-3.1-10.6-10.2-14.6c-6-3.3-12.2-5.1-18.7-5.5c-3.8-0.2-13.3,1.3-28.6,4.3
		c-10.2,2.2-20.3,4.3-30.5,6.4c-16.7,3.2-26.4,4.7-29,4.5c-3.9-0.2-7.3-1.2-10.2-2.9l-1.4,1.3c0.4,3,2.6,7.6,6.8,13.8
		c4.2,6.2,7.6,9.6,10.3,10.4c13.7-5,24.4-7.4,32.1-7.3c0.1,0.9,0.9,2.9,2.4,5.8c1.3,2.4,1.9,5.6,1.6,9.5c-0.3,5.1-1.1,10-2.5,14.7
		c-18.6,4-28.9,5.9-30.8,5.8c-4.6-0.2-9.1-1.5-13.7-3.9l-1.5,2.3c0.8,3.8,2.9,8.6,6.3,14.2c3.8,6.3,7.2,9.9,10,10.7
		c5.1-3.5,9-5.7,11.5-6.6c3.3-1.3,7.8-2,13.4-2.2c-11.9,29.4-34.7,53.9-68.7,73.6l1.3,1c3.6,0.6,7.1,1,10.3,1.1
		c30.4,1.6,54.4-18.5,71.9-60.3c0,0.1,0.1,0.1,0.1,0.2c0.1-0.2,0.2-0.4,0.3-0.6c0.4-0.8,0.8-1.6,1.3-2.4c1.6-3.3,3-6.7,4.8-9.8
		c0.1-0.3,0.2-0.6,0.3-0.9c0.2-0.6,0.5-1.2,0.8-1.7c0.1-0.4,0.3-0.8,0.6-1.1c0.3-0.6,0.6-1.2,1.1-1.7c0.5-0.5,1.2-0.9,2-1.2
		c0.2-0.1,0.4-0.1,0.6-0.2c0.6-0.2,1.3-0.4,2.1-0.3c0.2,0,0.4,0,0.5,0.1c4.2-0.3,8.4-0.4,12.8-0.1c2.7,0.1,6.7,0.6,12,1.4
		c5.3,0.8,9.3,1.3,12.1,1.4c3.1,0.2,5.9-0.7,8.3-2.7c2.4-2,3.7-4.5,3.8-7.6C148.9,66,145.5,62.2,138.3,58.7z"/>
	<path d="M182.4,163.1c-6.9,0-14.1-0.5-21.3-1.5c-13.3-1.8-24.3-4.9-32.5-9.4c-13.7-7.2-23.3-14.9-28.4-22.9
		c-4.8-7.2-8.5-13.7-11.1-19.3c-4.1-8.6-6.6-13.7-6.9-14.4c-3-5.4-6.4-9.8-10.2-13l-0.4-0.4l0.4-2.9l0.6-0.2
		c2.1-0.6,4.2-1.1,6.2-1.3c0.9-0.1,1.9-0.1,3-0.1c3.7,0,8.1,0.6,13.1,1.8c7.7,1.9,11.7,4.3,12.2,7.4c0.1,1,0.2,2.2,0.2,4l0.4,3.7
		c0.4,4,1.8,8.1,4.1,12l0,0.1l0,0.1c0.2,0.5,1.4,2.5,7.6,11.1c5.9,8.4,15.4,14.8,28.1,19.2c9.7,3.4,19.8,5.1,29.9,5.1
		c3.1,0,6.4-0.2,9.5-0.5c5.9-0.6,10.2-2.2,12.8-4.8c2.6-2.6,3.6-6.1,3.2-10.7c-0.6-5.7-2.9-11.3-7-16.7l-0.3-0.4l0.9-3.3l1.1,0.5
		c7.1,3,15.4,8.3,24.6,15.6c10.9,8.5,16.4,15,16.9,19.9c0.2,2.1-0.1,4-1.1,5.7c-1.8,3.4-7.9,6.7-18.6,10c-8.6,2.6-16.2,4.3-22.5,4.9
		C192.2,162.8,187.3,163.1,182.4,163.1z"/>
	<path d="M238.1,141.8c0.2,1.9-0.1,3.6-1,5.1c-1.7,3.2-7.7,6.3-18,9.6c-8.6,2.6-16,4.3-22.3,4.9c-11.4,1.2-23.2,0.9-35.5-0.7
		c-13.3-1.8-24-4.8-32.2-9.3c-13.7-7.2-23-14.7-28-22.5c-4.8-7.3-8.5-13.6-11-19.2c-4.3-9-6.6-13.8-7-14.5
		c-3.1-5.6-6.6-10-10.4-13.3l0.2-1.7c2-0.6,4-1,6-1.2c4.2-0.4,9.4,0.1,15.8,1.6c7.2,1.7,11,3.9,11.4,6.6c0.1,0.9,0.1,2.2,0.2,3.9
		c0.2,1.8,0.3,3.1,0.4,3.8c0.4,4.2,1.8,8.3,4.2,12.4c0.4,0.9,2.9,4.7,7.7,11.3c6.1,8.6,15.6,15.1,28.6,19.5c13,4.5,26.3,6,39.9,4.6
		c12.2-1.2,17.9-6.8,16.9-16.6c-0.6-5.9-3-11.7-7.2-17.2l0.5-1.7c7.1,3,15.2,8.2,24.4,15.5C232.1,130.8,237.6,137.2,238.1,141.8z"/>
	<path d="M168.7,125.4c-3.3,0-6.2-1.4-8.6-4.3c-0.4-0.4-1.3-1.8-4.9-8.8c-3.1-5.8-6.6-11.1-10.4-15.8l-0.2-0.2l-0.3-3l0.8-0.2
		c1-0.3,2.1-0.6,3.1-0.8c1.9-0.4,3.7-0.6,5.5-0.6c4.9,0,9.5,1.4,13.7,4.1c5.8,3.7,9.5,9.1,10.8,16.1c1.8,9.4-2.8,12.4-7.1,13.2
		C170.4,125.4,169.5,125.4,168.7,125.4z"/>
	<path d="M177.3,112.2c1.4,7-0.7,11-6.3,12c-4,0.8-7.4-0.4-10.1-3.7c-0.5-0.6-2.1-3.5-4.8-8.6c-3.1-5.9-6.6-11.2-10.5-16l-0.2-1.8
		c1-0.3,2-0.5,3-0.7c6.7-1.3,12.9-0.2,18.5,3.4C172.5,100.3,176,105.4,177.3,112.2z"/>
	<path d="M222.9,103.7c-1.8,0-4.5-0.9-8.4-2.8c-3.2-1.6-7.6-4.5-12.9-8.7c-5.2-4.1-9.3-6.9-12.1-8.4l-0.4-0.2l-0.7-2.5l0.7-0.4
		c3.7-2,7.4-3.3,10.8-3.8c1.8-0.3,3.6-0.4,5.5-0.4c4.6,0,9.5,0.9,14.6,2.7c8.5,3,13.3,7.5,14.2,13.3c0.5,3.1-0.2,5.6-2,7.6
		c-1.8,1.8-4.6,3.1-8.4,3.7C223.3,103.7,223.1,103.7,222.9,103.7z"/>
	<path d="M233,92.6c0.9,5.6-2.3,8.9-9.6,10.1c-1.5,0.2-4.4-0.7-8.5-2.7c-3.2-1.6-7.4-4.4-12.7-8.6c-5.3-4.1-9.4-7-12.3-8.5l-0.4-1.3
		c3.6-1.9,7.1-3.2,10.5-3.7c6.1-1,12.6-0.2,19.5,2.2C227.6,83,232.1,87.1,233,92.6z"/>
</g>
<g>
	<path d="M265.4,102.2h-1.7c-1,0-1.7,0.1-2.2,0.3s-0.9,0.6-1.2,1.3s-0.5,1.4-0.6,2.3h-1.7v-5.7H278v5.7h-1.7
		c-0.3-1.5-0.8-2.6-1.3-3.1s-1.5-0.8-2.7-0.8h-1.7v14c0,0.9,0.2,1.5,0.5,1.9c0.3,0.4,1,0.5,1.9,0.5h0.5v1.6h-11v-1.6h0.5
		c1,0,1.6-0.2,1.9-0.5s0.4-1,0.4-1.9V102.2z"/>
	<path d="M287.5,110.8v4.9c0,0.9,0.1,1.6,0.2,1.8s0.4,0.5,0.9,0.7s1.2,0.3,2.1,0.3c1.3,0,2.3-0.2,2.9-0.5s1.2-0.9,1.6-1.7
		c0.5-0.8,0.8-1.7,1-2.6h1.6l-0.1,6.5h-18.2v-1.6h0.4c1,0,1.6-0.2,1.9-0.5c0.3-0.4,0.4-1,0.4-1.9v-11.8c0-0.9-0.2-1.5-0.5-1.9
		c-0.3-0.4-0.9-0.5-1.9-0.5h-0.4v-1.6h16.9l0.3,5.1h-1.6c-0.3-0.9-0.6-1.6-1-2.1s-0.7-0.9-1.1-1c-0.4-0.2-1-0.2-1.9-0.2h-3.7v6.9
		h1.8c0.9,0,1.5-0.2,1.8-0.5s0.5-1,0.5-2h1.7v6.7h-1.7c0-0.1,0-0.2,0-0.3c0-0.6-0.1-1.1-0.4-1.5s-0.9-0.7-1.8-0.7H287.5z"/>
	<path d="M304.3,106.1v9.1c0,1.5,0.3,2.4,0.8,2.8s1.2,0.6,2,0.6v1.6h-7.5v-1.6c0.6,0,1.2-0.2,1.7-0.5s0.8-0.7,0.9-1.1s0.2-1,0.2-1.9
		v-10.1c0-2-0.9-3-2.8-3v-1.6h6.7l10.9,12.2v-7.3c0-2.2-0.9-3.3-2.7-3.3v-1.6h7.1v1.6c-0.5,0-1,0.1-1.4,0.4c-0.4,0.3-0.7,0.6-0.9,1
		s-0.2,1-0.2,1.9v15.2h-1.9L304.3,106.1z"/>
	<path d="M323.9,120v-6.8h1.8c0.5,2,1.2,3.5,2.2,4.4s2,1.3,3.2,1.3c0.8,0,1.5-0.2,2-0.7s0.7-1.1,0.7-1.8c0-0.5-0.2-1-0.5-1.4
		s-1.1-1-2.2-1.6c-2.3-1.1-3.8-1.9-4.6-2.5s-1.4-1.2-1.9-2s-0.7-1.8-0.7-2.8c0-1.7,0.6-3.1,1.8-4.2s2.6-1.7,4.3-1.7
		c1.7,0,3.1,0.6,4.3,1.7c0.2-0.3,0.4-0.7,0.5-1.3h1.7v5.9h-1.6c-0.3-1.3-0.8-2.4-1.7-3.2s-1.7-1.3-2.8-1.3c-0.8,0-1.4,0.2-1.8,0.6
		c-0.5,0.4-0.7,1-0.7,1.6c0,0.5,0.1,1,0.4,1.4s0.7,0.8,1.2,1.1s1.6,0.8,3.2,1.5c1.4,0.7,2.5,1.3,3.2,1.8s1.2,1.2,1.6,2
		s0.6,1.7,0.6,2.6c0,1.8-0.6,3.2-1.9,4.4s-2.8,1.8-4.6,1.8c-1,0-2-0.2-3-0.6c-1-0.4-1.8-1-2.4-1.7c-0.2,0.4-0.4,1-0.5,1.6H323.9z"/>
	<path d="M347.8,110.8v5.5c0,0.9,0.2,1.6,0.5,1.9s1,0.5,2.1,0.5v1.6H340v-1.6c1,0,1.7-0.2,2.1-0.5c0.3-0.3,0.5-1,0.5-1.9v-11.7
		c0-0.9-0.2-1.6-0.5-1.9c-0.3-0.3-1-0.5-2.1-0.5v-1.6h10.4v1.6c-1,0-1.7,0.2-2.1,0.5c-0.3,0.3-0.5,1-0.5,1.9v4.5h8.2v-4.5
		c0-0.9-0.2-1.6-0.5-1.9c-0.3-0.4-1-0.5-2-0.5v-1.6h10.3v1.6c-1.1,0-1.8,0.2-2.1,0.5c-0.3,0.3-0.5,1-0.5,1.9v11.7
		c0,0.9,0.2,1.6,0.5,1.9s1,0.5,2.1,0.5v1.6h-10.3v-1.6c1,0,1.7-0.2,2-0.5s0.5-1,0.5-1.9v-5.5H347.8z"/>
	<path d="M365.3,102.1v-1.6h10.5v1.6h-0.3c-1,0-1.6,0.2-1.9,0.5c-0.3,0.4-0.4,1-0.4,1.9v11.7c0,0.9,0.2,1.5,0.5,1.9
		c0.3,0.4,0.9,0.5,1.9,0.5h0.3v1.6h-10.5v-1.6c1.1,0,1.8-0.2,2.1-0.5s0.5-1,0.5-1.9v-11.7c0-0.9-0.2-1.6-0.5-1.9
		S366.4,102.1,365.3,102.1z"/>
	<path d="M382.1,106.1v9.1c0,1.5,0.3,2.4,0.8,2.8s1.2,0.6,2,0.6v1.6h-7.5v-1.6c0.6,0,1.2-0.2,1.7-0.5s0.8-0.7,0.9-1.1s0.2-1,0.2-1.9
		v-10.1c0-2-0.9-3-2.8-3v-1.6h6.7l10.9,12.2v-7.3c0-2.2-0.9-3.3-2.7-3.3v-1.6h7.1v1.6c-0.5,0-1,0.1-1.4,0.4c-0.4,0.3-0.7,0.6-0.9,1
		s-0.2,1-0.2,1.9v15.2h-1.9L382.1,106.1z"/>
	<path d="M414.8,120.7l-4.8-15.7c-0.4-1.4-0.8-2.2-1.1-2.5s-0.8-0.4-1.5-0.4v-1.6h9.1v1.6c-1.1,0-1.6,0.3-1.6,1
		c0,0.4,0.1,0.8,0.2,1.3l2.8,8.9l4.2-12.8h2.3l5,12.8l2.2-8.1c0.2-0.6,0.2-1.1,0.2-1.4c0-1.1-0.6-1.7-1.9-1.7v-1.6h6.4v1.6
		c-0.6,0-1.1,0.2-1.6,0.6s-1,1.7-1.5,3.8l-4,14.3h-2.3l-5.2-13.3l-4.5,13.3H414.8z"/>
	<path d="M442.1,114.2c0,1.6,0.3,2.8,0.8,3.6c0.5,0.8,1.4,1.2,2.4,1.2c1.2,0,2.2-0.6,3.2-1.8l1.4,0.8c-0.6,0.8-1.4,1.5-2.4,2
		c-1,0.5-2.2,0.8-3.4,0.8c-1.9,0-3.6-0.6-5-1.8s-2.1-2.8-2.1-4.8s0.7-3.6,2-4.7c1.3-1.1,2.9-1.7,4.8-1.7c1.9,0,3.4,0.5,4.6,1.6
		s1.8,2.6,1.8,4.8H442.1z M442.1,112.7h3.7c-0.1-2.2-0.7-3.2-1.9-3.2c-0.6,0-1.1,0.3-1.4,0.8S442.1,111.6,442.1,112.7z"/>
	<path d="M457.6,118.5l-2.6,2.1h-1.2v-16c0-0.7-0.1-1.3-0.3-1.5c-0.2-0.3-0.8-0.4-1.6-0.4v-1.6l6.7-1v9.2c0.6-0.5,1.3-0.9,2-1.1
		s1.4-0.4,2.2-0.4c1.7,0,3.1,0.6,4.3,1.8s1.8,2.7,1.8,4.6c0,2-0.6,3.5-1.8,4.7s-2.7,1.8-4.4,1.8c-0.9,0-1.8-0.2-2.6-0.5
		C459.1,119.8,458.3,119.2,457.6,118.5z M458.5,117c0.4,0.6,0.8,1,1.3,1.3s0.9,0.4,1.4,0.4c0.8,0,1.5-0.4,1.9-1.1s0.6-1.8,0.6-3.3
		s-0.2-2.6-0.6-3.3s-1-1.1-1.8-1.1c-0.5,0-1,0.1-1.4,0.4s-0.9,0.6-1.3,1.1V117z"/>
	<path d="M477,120.7l-4.8-15.7c-0.4-1.4-0.8-2.2-1.1-2.5s-0.8-0.4-1.5-0.4v-1.6h9.1v1.6c-1.1,0-1.6,0.3-1.6,1c0,0.4,0.1,0.8,0.2,1.3
		l2.8,8.9l4.2-12.8h2.3l5,12.8l2.2-8.1c0.2-0.6,0.2-1.1,0.2-1.4c0-1.1-0.6-1.7-1.9-1.7v-1.6h6.4v1.6c-0.6,0-1.1,0.2-1.6,0.6
		s-1,1.7-1.5,3.8l-4,14.3h-2.3l-5.2-13.3l-4.5,13.3H477z"/>
	<path d="M499,114.3c0-2,0.7-3.6,2.1-4.7s3.1-1.7,5.2-1.7c2,0,3.7,0.6,5.2,1.7s2.2,2.7,2.2,4.8c0,2-0.7,3.6-2.2,4.7
		s-3.2,1.8-5.2,1.8c-2,0-3.7-0.6-5.1-1.7S499,116.4,499,114.3z M504.1,114.1c0,1.9,0.2,3.2,0.5,3.9c0.3,0.7,0.9,1.1,1.8,1.1
		c0.7,0,1.2-0.3,1.7-0.9s0.6-2,0.6-4c0-1.9-0.2-3.1-0.6-3.8s-1-1-1.8-1c-0.6,0-1.2,0.3-1.6,0.8S504.1,112.2,504.1,114.1z"/>
	<path d="M522.1,110.9c0.6-1,1.2-1.8,1.9-2.3s1.5-0.8,2.4-0.8c0.8,0,1.5,0.3,1.9,0.8s0.6,1.1,0.6,1.7c0,0.6-0.2,1.1-0.5,1.5
		s-0.8,0.6-1.4,0.6c-0.3,0-0.6-0.1-0.8-0.2s-0.5-0.4-0.8-0.8c-0.4-0.4-0.7-0.6-1.1-0.6c-0.6,0-1.1,0.4-1.4,1.2s-0.5,1.9-0.5,3.5v1.3
		c0,0.7,0.1,1.2,0.3,1.5s0.7,0.4,1.6,0.4h0.3v1.6h-8.9v-1.6c0.8,0,1.4-0.1,1.6-0.4s0.3-0.8,0.3-1.5v-4.2c0-0.7-0.1-1.3-0.3-1.5
		c-0.2-0.3-0.8-0.4-1.6-0.4v-1.6l6.1-1.3C521.9,108.6,522,109.6,522.1,110.9z"/>
	<path d="M536.4,115.5v1.3c0,0.7,0.1,1.2,0.3,1.5s0.6,0.4,1.3,0.5v1.6h-8.3v-1.6c0.8,0,1.4-0.1,1.6-0.4c0.2-0.3,0.4-0.8,0.4-1.6
		v-12.2c0-0.7-0.1-1.3-0.4-1.5s-0.8-0.4-1.7-0.4v-1.6l6.8-1v13.5l3.1-2.2c0.6-0.4,0.9-0.8,0.9-1c0-0.1-0.1-0.3-0.2-0.3
		c-0.1-0.1-0.5-0.1-1-0.1v-1.6h6.7v1.6c-1.1,0-2.3,0.5-3.7,1.5l-1.1,0.8l3,4.1c0.7,1,1.3,1.7,1.7,2s0.8,0.5,1.1,0.5v1.6h-7.7v-1.6
		c0.6,0,0.9-0.2,0.9-0.5c0-0.1-0.2-0.4-0.5-0.9l-2-2.7L536.4,115.5z"/>
	<path d="M548.8,120.8l-0.1-4h1.4c0.8,1.7,2.2,2.5,4.2,2.5c0.8,0,1.6-0.1,2.1-0.4s0.8-0.6,0.8-1c0-0.3-0.2-0.6-0.5-0.7
		c-0.3-0.2-1-0.4-2.1-0.6c-1.7-0.3-2.9-0.7-3.7-1s-1.4-0.8-1.9-1.4s-0.7-1.4-0.7-2.2c0-1.2,0.5-2.2,1.5-3s2.3-1.1,4-1.1
		c1.3,0,2.6,0.3,3.9,0.8c0.2-0.2,0.4-0.5,0.6-0.8h1.2l0.1,3.6h-1.2c-0.8-1.5-2.3-2.2-4.5-2.2c-0.7,0-1.3,0.1-1.8,0.4
		s-0.7,0.5-0.7,0.9c0,0.4,0.2,0.7,0.6,0.9c0.4,0.2,1.3,0.4,2.7,0.7c1.5,0.3,2.6,0.6,3.4,0.9s1.4,0.8,1.8,1.4s0.7,1.3,0.7,2.1
		c0,1.3-0.6,2.3-1.7,3.1s-2.5,1.2-4.2,1.2c-1.3,0-2.6-0.3-4-0.8c-0.3,0.2-0.5,0.5-0.6,0.8H548.8z"/>
	<path d="M568.9,112.2v4.6c0,0.7,0.1,1.2,0.3,1.5s0.6,0.5,1.2,0.5v1.6h-8.2v-1.6c0.8,0,1.4-0.1,1.6-0.4s0.3-0.8,0.3-1.5v-12.1
		c0-0.7-0.1-1.2-0.3-1.5s-0.8-0.4-1.6-0.4v-1.6l6.7-1.2v9.9c0.6-0.7,1.3-1.2,2.1-1.6s1.5-0.5,2.3-0.5c1,0,1.9,0.2,2.6,0.7
		s1.2,1,1.4,1.6s0.4,1.5,0.4,2.6v4.1c0,0.8,0.1,1.3,0.4,1.5s0.7,0.4,1.5,0.4v1.6h-8.2v-1.6c0.4,0,0.7-0.1,1-0.4s0.5-0.7,0.5-1.6
		v-4.6c0-1.3-0.5-1.9-1.4-1.9c-0.4,0-0.8,0.2-1.2,0.5S569.3,111.6,568.9,112.2z"/>
	<path d="M580.9,114.3c0-2,0.7-3.6,2.1-4.7s3.1-1.7,5.2-1.7c2,0,3.7,0.6,5.2,1.7s2.2,2.7,2.2,4.8c0,2-0.7,3.6-2.2,4.7
		s-3.2,1.8-5.2,1.8c-2,0-3.7-0.6-5.1-1.7S580.9,116.4,580.9,114.3z M585.9,114.1c0,1.9,0.2,3.2,0.5,3.9c0.3,0.7,0.9,1.1,1.8,1.1
		c0.7,0,1.2-0.3,1.7-0.9s0.6-2,0.6-4c0-1.9-0.2-3.1-0.6-3.8s-1-1-1.8-1c-0.6,0-1.2,0.3-1.6,0.8S585.9,112.2,585.9,114.1z"/>
	<path d="M603.7,119.1v4.8c0,0.7,0.1,1.2,0.3,1.5s0.8,0.4,1.6,0.4h0.5v1.6H597v-1.6c0.8,0,1.4-0.1,1.6-0.4c0.2-0.3,0.4-0.8,0.4-1.5
		v-11.5c0-0.7-0.1-1.3-0.4-1.5s-0.8-0.4-1.7-0.4v-1.6l6.4-1.1c0.2,0.7,0.3,1.4,0.3,2.1c0.7-0.7,1.4-1.2,2.2-1.6s1.6-0.5,2.4-0.5
		c1.6,0,2.9,0.6,4,1.8s1.7,2.7,1.7,4.6c0,2-0.6,3.5-1.8,4.8c-1.2,1.2-2.6,1.8-4.2,1.8c-0.8,0-1.5-0.1-2.2-0.4
		S604.4,119.7,603.7,119.1z M603.7,117.3c0.4,0.4,0.8,0.7,1.2,0.9c0.4,0.2,0.9,0.3,1.4,0.3c0.9,0,1.6-0.3,2-1s0.7-1.7,0.7-3.1
		c0-1.5-0.2-2.6-0.6-3.3s-1-1.1-1.8-1.1c-0.6,0-1.1,0.2-1.6,0.6c-0.5,0.4-0.9,0.8-1.2,1.3V117.3z"/>
</g>
<g>
	<path d="M276.4,142.9h-1.2c-0.2-1-0.5-1.7-0.8-2.1c-0.4-0.4-0.7-0.7-1.2-0.8c-0.4-0.1-1-0.2-1.8-0.2h-3.1v6.1h1.6
		c0.8,0,1.3-0.1,1.5-0.4s0.4-0.8,0.5-1.7h1.2v5.7h-1.2c0-0.7-0.1-1.1-0.2-1.4c-0.1-0.3-0.3-0.5-0.6-0.6c-0.3-0.1-0.7-0.2-1.2-0.2
		h-1.6v5.1c0,0.7,0.1,1.2,0.4,1.5c0.3,0.3,0.9,0.5,2,0.5h0.4v1.2h-8.8v-1.2c1,0,1.7-0.2,2-0.5c0.3-0.3,0.5-0.8,0.5-1.6v-10.8
		c0-0.5-0.1-0.9-0.2-1.1c-0.1-0.3-0.3-0.5-0.7-0.6c-0.4-0.2-0.9-0.2-1.6-0.2v-1.2h14.1L276.4,142.9z"/>
	<path d="M291.9,155.5c-0.2,0-0.7,0-1.3,0.1c-0.6,0-1.3,0.1-2,0.2c-0.8,0.1-1.4,0.2-1.8,0.2v-1.9c-1.1,1.3-2.4,1.9-3.9,1.9
		c-1.1,0-1.9-0.2-2.5-0.7s-0.9-1-1-1.6c-0.1-0.6-0.2-1.2-0.2-1.8v-3.7c0-0.5,0-0.9-0.1-1.1c-0.1-0.2-0.2-0.4-0.5-0.5
		c-0.3-0.1-0.7-0.2-1.3-0.2v-1.2h5.1v7c0,1.4,0.6,2.2,1.7,2.2c0.6,0,1.2-0.2,1.6-0.7c0.4-0.5,0.8-0.9,1-1.3v-4.2
		c0-0.5,0-0.9-0.1-1.1c-0.1-0.2-0.2-0.4-0.5-0.5c-0.3-0.1-0.7-0.2-1.3-0.2v-1.2h5.2v7.6c0,0.4,0,0.7,0.1,0.9s0.2,0.3,0.5,0.5
		c0.3,0.1,0.7,0.2,1.2,0.2V155.5z"/>
	<path d="M304.1,152.6c0,0.7-0.2,1.3-0.7,1.9c-0.4,0.5-1,0.9-1.8,1.2c-0.8,0.3-1.6,0.4-2.6,0.4c-0.7,0-1.3-0.1-2-0.2
		c-0.7-0.1-1.3-0.3-1.8-0.6l-0.5,0.7h-1l-0.1-3.3h1.1c0.2,0.6,0.6,1.1,1.3,1.5c0.7,0.5,1.6,0.7,2.9,0.7c0.3,0,0.7,0,1-0.1
		c0.4,0,0.7-0.2,1.1-0.4c0.3-0.2,0.5-0.5,0.5-1c0-0.4-0.2-0.7-0.5-0.8c-0.4-0.2-1-0.4-2-0.6c-1.2-0.3-2.1-0.6-2.9-0.8
		c-0.7-0.3-1.4-0.6-1.9-1.1s-0.8-1.1-0.8-1.9c0-1,0.5-1.8,1.4-2.4c0.9-0.6,2.1-0.9,3.6-0.9c0.9,0,1.7,0.1,2.2,0.2s1,0.3,1.4,0.5
		l0.3-0.6h1v2.9h-1c-0.1-0.3-0.3-0.7-0.6-1s-0.8-0.5-1.3-0.7c-0.5-0.2-1.2-0.2-1.9-0.2c-0.6,0-1.2,0.1-1.8,0.2
		c-0.6,0.1-0.9,0.4-0.9,0.9c0,0.2,0.1,0.4,0.2,0.5c0.1,0.1,0.3,0.2,0.6,0.4s0.8,0.3,1.5,0.4s1.1,0.3,1.3,0.3
		c1.4,0.3,2.5,0.8,3.4,1.3C303.6,150.4,304.1,151.3,304.1,152.6z"/>
	<path d="M312.4,155.6h-6.9v-1.2h0.4c0.5,0,0.8-0.1,1.1-0.2c0.2-0.1,0.4-0.3,0.4-0.6s0.1-0.6,0.1-1.1v-3.8c0-0.5,0-0.9-0.1-1.1
		c-0.1-0.2-0.2-0.4-0.5-0.5c-0.3-0.1-0.7-0.2-1.3-0.2v-1.2l5.2-1.1v7.8c0,0.7,0.1,1.2,0.3,1.5s0.7,0.4,1.4,0.4V155.6z M311,139.8
		c0,0.5-0.2,0.9-0.5,1.3c-0.4,0.4-0.8,0.5-1.3,0.5c-0.5,0-0.9-0.2-1.3-0.6c-0.4-0.4-0.6-0.8-0.6-1.3c0-0.5,0.2-0.9,0.5-1.3
		s0.8-0.5,1.3-0.5c0.5,0,1,0.2,1.3,0.5S311,139.3,311,139.8z"/>
	<path d="M326.6,150.4c0,1.2-0.3,2.2-0.8,3s-1.3,1.5-2.3,2c-1,0.5-2,0.7-3.1,0.7c-1.1,0-2.1-0.2-3-0.6c-1-0.4-1.7-1-2.3-1.9
		c-0.6-0.8-0.9-1.9-0.9-3.1c0-1.8,0.6-3.2,1.9-4.2c1.3-1,2.7-1.4,4.5-1.4c1.3,0,2.4,0.3,3.3,0.8s1.6,1.2,2.1,2
		C326.4,148.5,326.6,149.4,326.6,150.4z M323.1,150.3c0-1.4-0.2-2.5-0.6-3.2s-1.1-1.1-2.2-1.1c-0.7,0-1.3,0.2-1.6,0.5
		c-0.4,0.3-0.7,0.8-0.8,1.5c-0.2,0.7-0.2,1.5-0.2,2.6c0,1.3,0.2,2.4,0.5,3.2s1.1,1.2,2.3,1.2c0.8,0,1.4-0.2,1.8-0.7
		c0.4-0.4,0.7-1,0.8-1.7C323.1,151.9,323.1,151.1,323.1,150.3z"/>
	<path d="M342.7,155.6h-6.6v-1.2c0.5,0,0.9-0.1,1.1-0.2c0.2-0.1,0.3-0.3,0.4-0.6s0.1-0.7,0.1-1.3v-3.6c0-0.7-0.1-1.3-0.3-1.7
		c-0.2-0.4-0.6-0.6-1.3-0.6c-0.9,0-1.6,0.3-2,1c-0.4,0.7-0.7,1.5-0.7,2.4v2.8c0,0.7,0.1,1.1,0.3,1.4s0.6,0.4,1.3,0.4v1.2h-6.7v-1.2
		c0.5,0,1,0,1.2-0.1c0.3-0.1,0.4-0.3,0.5-0.5c0.1-0.2,0.1-0.6,0.1-1.2v-4.1c0-0.6-0.1-1-0.3-1.2c-0.2-0.2-0.7-0.3-1.5-0.3v-1.2
		l4.9-1.1c0.1,0.5,0.1,0.9,0.1,1.4c0,0.1,0,0.2,0,0.3c0,0.1,0,0.2,0,0.3c0.5-0.6,1.1-1,1.7-1.4c0.6-0.4,1.3-0.5,2.2-0.5
		c0.7,0,1.4,0.1,2,0.4c0.6,0.3,1,0.7,1.4,1.2s0.5,1.2,0.5,1.9v4.3c0,0.7,0.1,1.2,0.3,1.5c0.2,0.3,0.7,0.4,1.5,0.4V155.6z"/>
	<path d="M363.2,150.4c0,1.2-0.3,2.2-0.8,3s-1.3,1.5-2.3,2c-1,0.5-2,0.7-3.1,0.7c-1.1,0-2.1-0.2-3-0.6c-1-0.4-1.7-1-2.3-1.9
		c-0.6-0.8-0.9-1.9-0.9-3.1c0-1.8,0.6-3.2,1.9-4.2c1.3-1,2.7-1.4,4.5-1.4c1.3,0,2.4,0.3,3.3,0.8s1.6,1.2,2.1,2
		C363,148.5,363.2,149.4,363.2,150.4z M359.7,150.3c0-1.4-0.2-2.5-0.6-3.2s-1.1-1.1-2.2-1.1c-0.7,0-1.3,0.2-1.6,0.5
		c-0.4,0.3-0.7,0.8-0.8,1.5c-0.2,0.7-0.2,1.5-0.2,2.6c0,1.3,0.2,2.4,0.5,3.2s1.1,1.2,2.3,1.2c0.8,0,1.4-0.2,1.8-0.7
		c0.4-0.4,0.7-1,0.8-1.7C359.6,151.9,359.7,151.1,359.7,150.3z"/>
	<path d="M376,140.6c0,0.5-0.2,0.8-0.5,1.1c-0.3,0.3-0.7,0.4-1.1,0.4c-0.5,0-0.9-0.2-1.1-0.5s-0.4-0.8-0.6-1.3c-0.2-0.7-0.6-1-1.2-1
		c-0.6,0-0.9,0.2-1.1,0.6c-0.1,0.4-0.2,1.1-0.2,2v3.4h2.6v1.2h-2.6v6.2c0,0.5,0,0.9,0.1,1.1s0.2,0.4,0.4,0.5
		c0.2,0.1,0.6,0.2,1.1,0.2h0.5v1.2h-7.4v-1.2h0.6c0.5,0,0.8-0.1,1-0.2c0.2-0.1,0.4-0.3,0.4-0.6s0.1-0.6,0.1-1.1v-6.2h-2.1v-1.2h2.1
		v-1.5c0-0.5,0-1,0.1-1.5c0.1-0.5,0.2-1,0.5-1.5c0.3-0.6,0.7-1.2,1.2-1.5c0.5-0.4,1.1-0.7,1.7-0.8c0.6-0.2,1.2-0.2,1.8-0.2
		c1,0,1.7,0.1,2.3,0.4c0.6,0.3,0.9,0.6,1.2,1S376,140.3,376,140.6z"/>
	<path d="M411,139.6c-0.6,0.1-1.1,0.2-1.4,0.3c-0.3,0.2-0.5,0.4-0.7,0.8c-0.2,0.4-0.4,1.1-0.7,2l-3.6,13.2H403l-4.4-12.4l-4.1,12.4
		h-1.7l-4-13.6c-0.2-0.8-0.5-1.4-0.7-1.8c-0.2-0.4-0.4-0.6-0.7-0.8c-0.3-0.1-0.6-0.2-1.1-0.2v-1.2h7.5v1.2c-0.6,0-1,0-1.3,0.1
		s-0.4,0.3-0.4,0.7c0,0.3,0.1,0.7,0.3,1.4l2.5,8.6l4-12h1.7l4.3,12l2.2-8.1c0.2-0.6,0.2-1,0.2-1.3c0-0.6-0.2-1-0.6-1.2
		c-0.4-0.2-0.9-0.3-1.5-0.3v-1.2h5.9V139.6z"/>
	<path d="M427.5,149.9l-0.1,5.7H412v-1.2c1.1,0,1.7-0.2,2-0.5s0.5-0.8,0.5-1.6v-10.8c0-0.5,0-0.9-0.1-1.1c-0.1-0.3-0.3-0.5-0.7-0.6
		c-0.4-0.2-0.9-0.2-1.7-0.2v-1.2h14.3l0.2,4.5h-1.2c-0.3-1-0.6-1.7-0.9-2.1c-0.3-0.4-0.7-0.7-1.2-0.8c-0.4-0.1-1.1-0.1-1.9-0.1h-3.2
		v6.1h1.8c0.6,0,1-0.1,1.3-0.2c0.3-0.1,0.5-0.3,0.6-0.6s0.2-0.8,0.2-1.4h1.2v5.7h-1.2c0-0.6-0.1-1.1-0.3-1.4
		c-0.1-0.3-0.3-0.5-0.6-0.6c-0.3-0.1-0.7-0.2-1.3-0.2h-1.8v4c0,0.7,0,1.2,0.1,1.5s0.1,0.6,0.3,0.8c0.1,0.2,0.4,0.4,0.7,0.5
		c0.3,0.1,0.8,0.1,1.4,0.1h1.4c0.6,0,1.1-0.1,1.7-0.2c0.5-0.1,1-0.5,1.6-1.1c0.5-0.6,0.9-1.6,1.1-2.9H427.5z"/>
	<path d="M444.6,151.1c0,1-0.2,1.8-0.7,2.4c-0.5,0.6-1.1,1.1-1.9,1.4c-0.8,0.3-1.5,0.5-2.2,0.6s-1.4,0.2-2.1,0.2h-8.6v-1.2
		c0.7,0,1.3-0.1,1.6-0.2c0.4-0.2,0.6-0.4,0.7-0.6c0.1-0.3,0.2-0.7,0.2-1.2v-10.9c0-0.8-0.2-1.3-0.5-1.6s-1-0.4-2-0.4v-1.2
		c1.2,0,2.4-0.1,3.5-0.1s2,0,2.7-0.1c0.7,0,1.2,0,1.5,0h0.5c0.9,0,1.8,0.1,2.8,0.3c1,0.2,1.8,0.6,2.6,1.2c0.8,0.6,1.2,1.6,1.2,2.8
		c0,0.9-0.3,1.7-1,2.3s-1.7,1.2-3.2,1.6c1,0.2,1.9,0.5,2.6,0.9c0.7,0.4,1.3,0.9,1.7,1.6S444.6,150.3,444.6,151.1z M440.2,142.6
		c0-0.6-0.1-1.1-0.4-1.6c-0.3-0.4-0.7-0.8-1.3-1c-0.6-0.2-1.2-0.4-2-0.4h-1.3v6.2h1c1.4,0,2.4-0.3,3-0.9
		C439.9,144.3,440.2,143.5,440.2,142.6z M440.7,150.9c0-1.2-0.3-2.1-0.9-2.7c-0.6-0.6-1.5-1-2.6-1h-2.1v4.1v0.3c0,0.6,0,1.1,0.1,1.5
		c0.1,0.4,0.3,0.6,0.6,0.8c0.3,0.2,0.8,0.3,1.4,0.3c0.9,0,1.7-0.3,2.4-0.8C440.3,152.9,440.7,152,440.7,150.9z"/>
	<path d="M466.1,152.9c0,0.6-0.1,1.2-0.4,1.6c-0.3,0.5-0.6,0.8-1.1,1c-0.4,0.2-0.9,0.3-1.5,0.3c-0.7,0-1.3-0.2-1.8-0.5
		c-0.5-0.3-0.8-0.7-0.9-1.2c-1.4,1.1-2.8,1.7-4.3,1.7c-0.9,0-1.7-0.2-2.2-0.7c-0.6-0.4-0.9-1-0.9-1.8c0-0.6,0.2-1.1,0.5-1.6
		c0.3-0.5,0.8-0.9,1.4-1.3c0.6-0.4,1.3-0.7,2.2-1c0.8-0.3,1.9-0.6,3.1-0.9v-0.7c0-0.6-0.1-1.1-0.4-1.4c-0.3-0.3-0.8-0.5-1.6-0.5
		c-0.7,0-1.1,0.1-1.4,0.4s-0.5,0.7-0.6,1.2c-0.1,0.4-0.2,0.7-0.4,1c-0.2,0.2-0.6,0.4-1.1,0.4c-0.4,0-0.7-0.1-0.9-0.3
		s-0.4-0.5-0.4-0.9c0-0.8,0.4-1.5,1.3-2.1s2.2-0.9,3.9-0.9c1.9,0,3.1,0.3,3.8,0.9c0.7,0.6,1,1.5,1,2.5v4c0,0.5,0,0.9,0,1.1
		s0.1,0.4,0.2,0.5c0.1,0.1,0.3,0.2,0.5,0.2c0.2,0,0.4-0.1,0.6-0.3c0.2-0.2,0.2-0.5,0.2-0.8H466.1z M460.2,153v-3.1
		c-1.6,0.5-2.6,1-3.1,1.5c-0.4,0.5-0.7,1-0.7,1.4c0,0.4,0.1,0.7,0.4,0.9s0.6,0.4,1,0.4c0.5,0,0.9-0.1,1.2-0.3S459.9,153.4,460.2,153
		z"/>
	<path d="M481.1,155.6h-6.6v-1.2c0.5,0,0.9-0.1,1.1-0.2c0.2-0.1,0.3-0.3,0.4-0.6s0.1-0.7,0.1-1.3v-3.6c0-0.7-0.1-1.3-0.3-1.7
		c-0.2-0.4-0.6-0.6-1.3-0.6c-0.9,0-1.6,0.3-2,1c-0.4,0.7-0.7,1.5-0.7,2.4v2.8c0,0.7,0.1,1.1,0.3,1.4s0.6,0.4,1.3,0.4v1.2h-6.7v-1.2
		c0.5,0,1,0,1.2-0.1c0.3-0.1,0.4-0.3,0.5-0.5c0.1-0.2,0.1-0.6,0.1-1.2v-4.1c0-0.6-0.1-1-0.3-1.2c-0.2-0.2-0.7-0.3-1.5-0.3v-1.2
		l4.9-1.1c0.1,0.5,0.1,0.9,0.1,1.4c0,0.1,0,0.2,0,0.3c0,0.1,0,0.2,0,0.3c0.5-0.6,1.1-1,1.7-1.4c0.6-0.4,1.3-0.5,2.2-0.5
		c0.7,0,1.4,0.1,2,0.4c0.6,0.3,1,0.7,1.4,1.2s0.5,1.2,0.5,1.9v4.3c0,0.7,0.1,1.2,0.3,1.5c0.2,0.3,0.7,0.4,1.5,0.4V155.6z"/>
	<path d="M496.9,155.5c-1.8,0.1-3.4,0.3-4.9,0.6c-0.1-0.3-0.2-0.7-0.2-1.3c-1.1,0.9-2.3,1.3-3.6,1.3c-1,0-1.9-0.3-2.8-0.8
		c-0.9-0.5-1.5-1.2-2-2.1c-0.5-0.9-0.8-1.9-0.8-2.9c0-0.7,0.1-1.3,0.3-1.9s0.6-1.2,1-1.8c0.5-0.5,1.1-1,1.7-1.3s1.5-0.5,2.4-0.5
		c0.7,0,1.2,0.1,1.7,0.2s0.8,0.3,1.1,0.6c0.3,0.2,0.6,0.5,0.9,0.7v-4.2c0-0.6,0-1-0.1-1.2s-0.3-0.4-0.5-0.5
		c-0.3-0.1-0.7-0.1-1.3-0.1v-1.2l5.2-1.1v14.2c0,0.6,0,1,0.1,1.3c0.1,0.2,0.2,0.4,0.5,0.5c0.3,0.1,0.7,0.2,1.3,0.2V155.5z
		 M491.7,153.1v-5.1c-0.4-0.4-0.8-0.8-1.3-1.2s-1.1-0.5-1.8-0.5c-0.4,0-0.8,0.1-1.2,0.3s-0.7,0.5-0.9,0.9c-0.4,0.6-0.6,1.6-0.6,3
		c0,1.4,0.3,2.5,0.8,3.2c0.5,0.7,1.2,1.1,2,1.1c0.6,0,1.1-0.1,1.6-0.4S491.4,153.5,491.7,153.1z"/>
	<path d="M519.9,150.5l-0.3,5.1h-15.2v-1.2l10.3-14.6h-4c-1,0-1.7,0.1-2.3,0.2c-0.6,0.1-1.1,0.4-1.5,0.8c-0.4,0.5-0.7,1.2-0.9,2.2
		h-1.2l0.3-4.6h14.2v1.1L509,154.2h4.9c0.6,0,1.1,0,1.6-0.1c0.4-0.1,0.9-0.2,1.3-0.4c0.4-0.2,0.8-0.6,1.2-1.1
		c0.3-0.5,0.6-1.2,0.8-2.1H519.9z"/>
	<path d="M536.6,149.9l-0.1,5.7h-15.3v-1.2c1.1,0,1.7-0.2,2-0.5s0.5-0.8,0.5-1.6v-10.8c0-0.5,0-0.9-0.1-1.1
		c-0.1-0.3-0.3-0.5-0.7-0.6c-0.4-0.2-0.9-0.2-1.7-0.2v-1.2h14.3l0.2,4.5h-1.2c-0.3-1-0.6-1.7-0.9-2.1c-0.3-0.4-0.7-0.7-1.2-0.8
		c-0.4-0.1-1.1-0.1-1.9-0.1h-3.2v6.1h1.8c0.6,0,1-0.1,1.3-0.2c0.3-0.1,0.5-0.3,0.6-0.6s0.2-0.8,0.2-1.4h1.2v5.7h-1.2
		c0-0.6-0.1-1.1-0.3-1.4c-0.1-0.3-0.3-0.5-0.6-0.6c-0.3-0.1-0.7-0.2-1.3-0.2h-1.8v4c0,0.7,0,1.2,0.1,1.5s0.1,0.6,0.3,0.8
		c0.1,0.2,0.4,0.4,0.7,0.5c0.3,0.1,0.8,0.1,1.4,0.1h1.4c0.6,0,1.1-0.1,1.7-0.2c0.5-0.1,1-0.5,1.6-1.1c0.5-0.6,0.9-1.6,1.1-2.9H536.6
		z"/>
	<path d="M556.9,139.6c-0.8,0-1.4,0.1-1.8,0.2c-0.4,0.2-0.6,0.4-0.7,0.7s-0.1,0.8-0.1,1.6v13.6h-1.2l-11.3-13.4v9.5
		c0,0.7,0,1.2,0.1,1.6c0.1,0.3,0.3,0.6,0.7,0.8c0.4,0.2,1,0.3,1.8,0.3v1.2h-6.4v-1.2c0.8,0,1.3-0.1,1.7-0.3c0.3-0.2,0.6-0.4,0.6-0.8
		c0.1-0.3,0.1-0.8,0.1-1.6v-8.8c0-0.7,0-1.2-0.1-1.6c0-0.4-0.1-0.7-0.3-0.9c-0.1-0.3-0.4-0.5-0.7-0.6c-0.3-0.2-0.8-0.3-1.4-0.3v-1.2
		h5L553,150v-7.9c0-0.6,0-1.1-0.1-1.5c-0.1-0.3-0.3-0.6-0.7-0.8c-0.4-0.2-0.9-0.3-1.7-0.3v-1.2h6.4V139.6z"/>
</g>
</svg>
