<?xml version="1.0" encoding="utf-8"?>
<!-- Generator: Adobe Illustrator 18.1.1, SVG Export Plug-In . SVG Version: 6.00 Build 0)  -->
<svg version="1.1" id="レイヤー_1" xmlns="http://www.w3.org/2000/svg" xmlns:xlink="http://www.w3.org/1999/xlink" x="0px"
	 y="0px" width="964px" height="379.6px" viewBox="-2.9 9.3 964 379.6" enable-background="new -2.9 9.3 964 379.6"
	 xml:space="preserve">
<g>
	<path fill="#85A063" d="M404.4,293.8l-6.1,0.2c-2.3,0-3.3,0.3-4,1.2c-0.3,0.7-0.7,1.2-0.7,1.5s-0.2,0.5-0.5,0.5s-0.3-0.2-0.3-0.7
		c0-0.7,0.8-4.3,0.8-4.6c0.2-0.5,0.2-0.8,0.5-0.8s0.7,0.3,1.8,0.5c1.2,0.2,2.8,0.2,4.1,0.2h16.2c1.3,0,2.1-0.2,2.8-0.2
		c0.7-0.2,1-0.2,1.2-0.2c0.3,0,0.3,0.2,0.3,0.8c0,0.8-0.2,3.6-0.2,4.8c0,0.3-0.2,0.7-0.3,0.7c-0.3,0-0.3-0.2-0.5-0.8v-0.5
		c0-1-1.2-2.1-4.8-2.3l-5.1-0.2v16.7c0,3.8,0,6.9,0.2,8.8c0.2,1.2,0.3,2,1.7,2.1c0.5,0,1.5,0.2,2.1,0.2c0.5,0,0.7,0.2,0.7,0.3
		c0,0.3-0.3,0.3-0.8,0.3c-2.6,0-5.3-0.2-6.4-0.2c-1,0-3.5,0.2-5.1,0.2c-0.5,0-0.8-0.2-0.8-0.3c0-0.2,0.2-0.3,0.7-0.3
		c0.7,0,1.2,0,1.5-0.2c0.8-0.2,1-1,1.2-2.3c0.2-1.7,0.2-5,0.2-8.8v-16.5H404.4z"/>
	<path fill="#85A063" d="M427.9,303.4c0-6.3,0-7.3,0-8.6c0-1.3-0.3-2-1.8-2.3c-0.3-0.2-1-0.2-1.7-0.2c-0.5,0-0.7,0-0.7-0.3
		c0-0.3,0.3-0.3,0.8-0.3c1.2,0,2.3,0,3.3,0c1,0,2,0,2.6,0c1.3,0,9.4,0,10.3,0s1.5-0.2,1.8-0.2c0.2,0,0.5-0.2,0.7-0.2
		c0.2,0,0.2,0.2,0.2,0.3c0,0.3-0.2,0.8-0.3,2.6c0,0.3-0.2,2.1-0.2,2.6c0,0.2-0.2,0.5-0.3,0.5c-0.3,0-0.3-0.2-0.3-0.5
		c0-0.3,0-1-0.2-1.5c-0.3-0.7-0.7-1.2-2.8-1.5c-0.7,0-5-0.2-5.8-0.2c-0.2,0-0.3,0.2-0.3,0.3v10.4c0,0.3,0,0.5,0.3,0.5
		c0.8,0,5.6,0,6.6,0c1-0.2,1.7-0.2,2-0.7c0.3-0.3,0.5-0.5,0.7-0.5c0.2,0,0.3,0,0.3,0.3c0,0.2-0.2,0.8-0.3,3c0,0.8-0.2,2.5-0.2,2.8
		s0,0.8-0.3,0.8s-0.3-0.2-0.3-0.3c0-0.3,0-1-0.2-1.5c-0.2-0.8-0.8-1.5-2.3-1.7c-0.8,0-4.8-0.2-5.8-0.2c-0.2,0-0.2,0.2-0.2,0.3v3.3
		c0,1.3,0,5.1,0,6.3c0,2.8,0.7,3.5,5,3.5c1,0,2.8,0,3.8-0.5c1-0.5,1.5-1.3,1.8-3c0-0.5,0.2-0.7,0.5-0.7s0.3,0.3,0.3,0.7
		c0,1-0.3,3.6-0.5,4.5c-0.3,1-0.7,1-2.1,1c-3.1,0-5.3,0-7.1-0.2c-1.8,0-3-0.2-4.3-0.2c-0.5,0-1.3,0-2.3,0s-2,0-2.8,0
		c-0.5,0-0.8-0.2-0.8-0.3c0-0.2,0.2-0.3,0.7-0.3c0.7,0,1.2,0,1.5-0.2c0.8-0.2,1-1,1.2-2.3c0.2-1.7,0.2-5,0.2-8.8v-6.9H427.9z"/>
	<path fill="#85A063" d="M456.1,317c0,3.1,0.7,4.3,1.5,4.5c0.7,0.2,1.5,0.3,2.1,0.3c0.5,0,0.7,0,0.7,0.3s-0.3,0.3-1,0.3
		c-2.6,0-4.3-0.2-5.1-0.2c-0.3,0-2.3,0.2-4.5,0.2c-0.5,0-0.8,0-0.8-0.3c0-0.2,0.2-0.3,0.7-0.3c0.5,0,1.3,0,1.8-0.2
		c1-0.3,1.2-1.5,1.3-5.1l0.3-24.1c0-0.8,0.2-1.3,0.5-1.3c0.5,0,0.8,0.5,1.5,1.3c0.5,0.5,6.8,7.3,12.7,13.1c2.8,2.8,8.3,8.6,8.9,9.3
		h0.2l-0.3-18.4c0-2.5-0.3-3.3-1.3-3.6c-0.7-0.2-1.7-0.2-2.1-0.2c-0.5,0-0.7-0.2-0.7-0.3c0-0.3,0.5-0.3,1-0.3c2.1,0,4.1,0.2,5,0.2
		c0.5,0,2-0.2,4-0.2c0.5,0,1,0,1,0.3c0,0.2-0.2,0.3-0.7,0.3c-0.3,0-0.7,0-1.2,0.2c-1.2,0.3-1.5,1.2-1.5,3.5l-0.5,25.8
		c0,0.8-0.2,1.3-0.5,1.3c-0.5,0-1-0.5-1.3-0.8c-2.6-2.5-7.8-7.8-12.1-12.1c-4.5-4.5-8.9-9.6-9.8-10.3h-0.2L456.1,317z"/>
	<path fill="#85A063" d="M490.2,321.9c-0.7-0.3-0.8-0.5-0.8-1.3c0-2.3,0.2-4.6,0.2-5.3c0-0.7,0.2-1,0.5-1s0.3,0.3,0.3,0.7
		c0,0.5,0.2,1.3,0.3,2.1c0.8,3,3.3,4.1,5.8,4.1c3.6,0,5.5-2.5,5.5-4.6c0-2-0.7-3.8-4-6.6l-1.8-1.5c-4.5-3.5-6.1-6.4-6.1-9.8
		c0-4.5,3.8-7.8,9.4-7.8c2.6,0,4.3,0.3,5.5,0.7c0.3,0,0.5,0.2,0.5,0.5c0,0.5-0.2,1.7-0.2,5c0,0.8-0.2,1.2-0.5,1.2
		c-0.3,0-0.3-0.2-0.3-0.7c0-0.3-0.2-1.7-1-2.6c-0.7-0.8-1.8-2-4.5-2c-3,0-4.8,1.8-4.8,4.1c0,1.8,1,3.3,4.3,6l1.2,0.8
		c5,3.6,6.8,6.6,6.8,10.4c0,2.3-0.8,5.1-3.8,7.1c-2,1.3-4.3,1.7-6.4,1.7C493.8,323.1,492,322.8,490.2,321.9z"/>
	<path fill="#85A063" d="M537.3,304.6c0.2,0,0.2,0,0.2-0.3v-0.8c0-6.3,0-7.3-0.2-8.6c0-1.3-0.3-2-1.8-2.3c-0.3-0.2-1-0.2-1.7-0.2
		c-0.5,0-0.7,0-0.7-0.3c0-0.3,0.3-0.3,0.8-0.3c2.1,0,4.8,0.2,6,0.2c1,0,3.6-0.2,5.1-0.2c0.5,0,0.8,0,0.8,0.3c0,0.3-0.2,0.3-0.7,0.3
		c-0.3,0-0.7,0-1.2,0.2c-1.2,0.2-1.5,0.8-1.5,2.3c0,1.3,0,2.5,0,8.6v7.3c0,3.8,0,6.9,0.2,8.8c0.2,1.2,0.3,2,1.7,2.1
		c0.5,0,1.5,0.2,2.1,0.2c0.5,0,0.7,0.2,0.7,0.3c0,0.3-0.3,0.3-0.8,0.3c-2.6,0-5.3-0.2-6.4-0.2c-1,0-3.5,0.2-5.1,0.2
		c-0.5,0-0.8-0.2-0.8-0.3s0.2-0.3,0.7-0.3c0.7,0,1.2,0,1.5-0.2c0.8-0.2,1-1,1.2-2.3c0.2-1.7,0.2-5,0.2-8.8v-3.6
		c0-0.2-0.2-0.2-0.2-0.2h-15.5c-0.2,0-0.2,0-0.2,0.2v3.6c0,3.8,0,6.9,0.2,8.8c0.2,1.2,0.3,2,1.7,2.1c0.5,0,1.5,0.2,2.1,0.2
		c0.5,0,0.7,0.2,0.7,0.3c0,0.3-0.3,0.3-0.8,0.3c-2.6,0-5.3-0.2-6.4-0.2c-1,0-3.5,0.2-5.1,0.2c-0.5,0-0.8-0.2-0.8-0.3
		c0-0.2,0.2-0.3,0.7-0.3c0.7,0,1.2,0,1.5-0.2c0.8-0.2,1-1,1.2-2.3c0.2-1.7,0.2-5,0.2-8.8v-7.3c0-6.3,0-7.3,0-8.6
		c0-1.3-0.3-2-1.8-2.3c-0.3-0.2-1-0.2-1.7-0.2c-0.5,0-0.7,0-0.7-0.3s0.3-0.3,0.8-0.3c2.1,0,4.8,0.2,6,0.2c1,0,3.6-0.2,5.1-0.2
		c0.5,0,0.8,0,0.8,0.3s-0.2,0.3-0.7,0.3c-0.3,0-0.7,0-1.2,0.2c-1.2,0.2-1.5,0.8-1.5,2.3c0,1.3,0,2.5,0,8.6v0.8
		c0,0.2,0.2,0.3,0.2,0.3h15.4V304.6z"/>
	<path fill="#85A063" d="M556,303.4c0-6.3,0-7.3,0-8.6c0-1.3-0.5-2.1-1.3-2.3c-0.5-0.2-1-0.2-1.5-0.2c-0.3,0-0.7,0-0.7-0.3
		c0-0.2,0.3-0.3,1-0.3c1.5,0,4.1,0.2,5.3,0.2c1,0,3.5-0.2,5-0.2c0.5,0,0.8,0,0.8,0.3c0,0.3-0.2,0.3-0.7,0.3c-0.5,0-0.7,0-1.2,0.2
		c-1.2,0.2-1.5,0.8-1.5,2.3c0,1.3,0,2.5,0,8.6v7.3c0,4,0,7.3,0.2,8.9c0.2,1.2,0.3,1.8,1.7,2c0.5,0,1.5,0.2,2.1,0.2
		c0.5,0,0.7,0.2,0.7,0.3c0,0.3-0.3,0.3-0.8,0.3c-2.6,0-5.3-0.2-6.4-0.2c-1,0-3.5,0.2-5.1,0.2c-0.5,0-0.8-0.2-0.8-0.3
		c0-0.2,0.2-0.3,0.7-0.3c0.7,0,1.2,0,1.5-0.2c0.8-0.2,1-0.8,1.2-2c0.2-1.7,0.2-5,0.2-8.9v-7.3H556z"/>
	<path fill="#85A063" d="M576.8,317c0,3.1,0.7,4.3,1.5,4.5c0.7,0.2,1.5,0.3,2.1,0.3c0.5,0,0.7,0,0.7,0.3s-0.3,0.3-1,0.3
		c-2.6,0-4.3-0.2-5.1-0.2c-0.3,0-2.3,0.2-4.5,0.2c-0.5,0-0.8,0-0.8-0.3c0-0.2,0.2-0.3,0.7-0.3c0.5,0,1.3,0,1.8-0.2
		c1-0.3,1.2-1.5,1.3-5.1l0.3-24.1c0-0.8,0.2-1.3,0.5-1.3c0.5,0,0.8,0.5,1.5,1.3c0.5,0.5,6.8,7.3,12.7,13.1c2.8,2.8,8.3,8.6,8.9,9.3
		h0.2l-0.3-18.4c0-2.5-0.3-3.3-1.3-3.6c-0.7-0.2-1.7-0.2-2.1-0.2s-0.7-0.2-0.7-0.3c0-0.3,0.5-0.3,1-0.3c2.1,0,4.1,0.2,5,0.2
		c0.5,0,2-0.2,4-0.2c0.5,0,1,0,1,0.3c0,0.2-0.2,0.3-0.7,0.3c-0.3,0-0.7,0-1.2,0.2c-1.2,0.3-1.5,1.2-1.5,3.5l-0.5,25.8
		c0,0.8-0.2,1.3-0.5,1.3c-0.5,0-1-0.5-1.3-0.8c-2.6-2.5-7.8-7.8-12.1-12.1c-4.5-4.5-8.9-9.6-9.8-10.3h-0.2L576.8,317z"/>
	<path fill="#85A063" d="M621.8,295.5c-0.5-1.5-1-2.5-1.5-3c-0.5-0.3-1.3-0.3-1.7-0.3c-0.3,0-0.7,0-0.7-0.3s0.3-0.3,0.8-0.3
		c2.1,0,4.3,0.2,4.8,0.2c0.3,0,2.1-0.2,4.5-0.2c0.5,0,0.8,0.2,0.8,0.3c0,0.3-0.3,0.3-0.7,0.3s-0.7,0-1,0.2c-0.3,0.2-0.5,0.5-0.5,0.8
		c0,0.5,0.3,2,0.8,3.8c0.7,2.6,4.5,15,5.3,17.4h0.2L641,293c0.3-1.2,0.7-1.5,1-1.5c0.5,0,0.7,0.7,1.2,2l8.6,20.7h0.2
		c0.7-2.8,4-13.6,5.5-18.4c0.3-1,0.3-1.8,0.3-2.3c0-0.7-0.3-1.2-2-1.2c-0.3,0-0.7-0.2-0.7-0.3c0-0.3,0.3-0.3,1-0.3
		c2.1,0,3.8,0.2,4.3,0.2c0.3,0,2-0.2,3.5-0.2c0.5,0,0.7,0,0.7,0.3s-0.2,0.3-0.5,0.3s-1,0-1.5,0.2c-1,0.3-1.5,2-2.3,4.3
		c-1.8,5.1-6.1,18.2-8.1,24.3c-0.5,1.5-0.7,2-1.2,2c-0.3,0-0.7-0.5-1.3-2l-8.4-20.5l0,0c-0.8,2.1-6.3,16.5-7.9,20.3
		c-0.8,1.7-1,2.1-1.5,2.1c-0.3,0-0.5-0.5-1-1.5L621.8,295.5z"/>
	<path fill="#85A063" d="M668.9,306.2c0-5.3,0-6.3,0-7.3c0-1.2-0.3-1.5-1.5-1.8c-0.3,0-0.8-0.2-1.5-0.2c-0.3,0-0.7-0.2-0.7-0.3
		c0-0.2,0.3-0.3,0.8-0.3c1.8,0,4.1,0,5.1,0c1.2,0,9.1,0,9.8,0s1.2-0.2,1.5-0.2c0.2,0,0.3-0.2,0.5-0.2c0.2,0,0.2,0.2,0.2,0.3
		c0,0.2-0.2,0.7-0.3,2.3c0,0.3-0.2,1.8-0.2,2.3c0,0.2-0.2,0.5-0.3,0.5c-0.2,0-0.3-0.2-0.3-0.5c0-0.2,0-0.8-0.2-1.3
		c-0.3-0.7-0.5-1.2-2.3-1.3c-0.7,0-5-0.2-5.6-0.2c-0.2,0-0.2,0.2-0.2,0.3v8.6c0,0.2,0,0.3,0.2,0.3c0.8,0,5.5,0,6.3,0
		c0.8,0,1.3-0.2,1.7-0.5c0.3-0.2,0.3-0.5,0.5-0.5s0.3,0.2,0.3,0.3s0,0.8-0.3,2.5c0,0.7-0.2,2.1-0.2,2.3c0,0.3,0,0.8-0.3,0.8
		c-0.2,0-0.3-0.2-0.3-0.3c0-0.3,0-0.8-0.2-1.3c-0.2-0.7-0.7-1.2-2-1.3c-0.7,0-4.8-0.2-5.6-0.2c-0.2,0-0.2,0.2-0.2,0.3v2.8
		c0,1.2,0,4.1,0,5.1c0,2.3,1.2,3,4.8,3c1,0,2.5,0,3.5-0.5c0.8-0.3,1.3-1.2,1.5-2.6c0-0.3,0.2-0.5,0.3-0.5c0.3,0,0.3,0.5,0.3,0.8
		c0,0.8-0.3,3.1-0.5,3.8c-0.2,0.8-0.5,0.8-2,0.8c-2.6,0-4.8,0-6.6-0.2c-1.8,0-3.1,0-4.1,0c-0.3,0-1.2,0-2,0s-1.8,0-2.5,0
		c-0.5,0-0.7-0.2-0.7-0.3c0-0.2,0.2-0.3,0.5-0.3c0.5,0,1,0,1.3-0.2c0.7-0.2,1-0.8,1-1.8c0.2-1.5,0.2-4.1,0.2-7.4v-5.8H668.9z"/>
	<path fill="#85A063" d="M692.6,306.2c0-5.3,0-6.3,0-7.3c0-1.2-0.3-1.5-1.5-1.8c-0.3,0-0.8-0.2-1.5-0.2c-0.3,0-0.7-0.2-0.7-0.3
		c0-0.2,0.3-0.3,0.8-0.3c1.8,0,4.1,0,4.8,0c1.8,0,4.1,0,5.5,0c6.4,0,7.6,3.3,7.6,5.1c0,2.6-2,4.8-4,6.1c3,1,6.6,3.5,6.6,7.4
		c0,3.6-3,7.6-9.6,7.6c-0.3,0-1.7,0-2.8-0.2c-1.2,0-2.5,0-3.1,0c-0.3,0-1.2,0-2,0s-1.8,0-2.5,0c-0.5,0-0.7-0.2-0.7-0.3
		s0.2-0.3,0.5-0.3c0.5,0,1,0,1.3-0.2c0.7-0.2,1-0.8,1-1.8c0.2-1.5,0.2-4.1,0.2-7.4V306.2z M697.2,306.7c0,0.3,0.2,0.3,0.2,0.3
		c0.3,0,0.8,0.2,1.7,0.2c1.2,0,2.1-0.2,2.8-0.7c1-0.7,1.7-2,1.7-3.6c0-2.3-1.3-5.3-4.5-5.3c-0.5,0-1.2,0-1.5,0
		c-0.2,0-0.3,0.2-0.3,0.5V306.7z M697.2,317c0,2.3,0.2,3,1.3,3.5c1,0.3,1.8,0.3,2.6,0.3c2,0,4.5-1,4.5-5c0-1.7-0.7-4.3-3.5-6.1
		c-0.7-0.5-1.7-0.8-3.1-0.8h-1.5c-0.2,0-0.2,0-0.2,0.2v7.9H697.2z"/>
	<path fill="#85A063" d="M715.9,295.5c-0.5-1.5-1-2.5-1.5-3c-0.5-0.3-1.3-0.3-1.7-0.3s-0.7,0-0.7-0.3s0.3-0.3,0.8-0.3
		c2.1,0,4.3,0.2,4.8,0.2s2.1-0.2,4.5-0.2c0.5,0,0.8,0.2,0.8,0.3c0,0.3-0.3,0.3-0.7,0.3s-0.7,0-1,0.2s-0.5,0.5-0.5,0.8
		c0,0.5,0.3,2,0.8,3.8c0.7,2.6,4.5,15,5.3,17.4h0.2l7.9-21.3c0.3-1.2,0.7-1.5,1-1.5c0.5,0,0.7,0.7,1.2,2l8.4,20.5h0.2
		c0.7-2.8,4-13.6,5.5-18.4c0.3-1,0.3-1.8,0.3-2.3c0-0.7-0.3-1.2-2-1.2c-0.3,0-0.7-0.2-0.7-0.3c0-0.3,0.3-0.3,1-0.3
		c2.1,0,3.8,0.2,4.3,0.2c0.3,0,2-0.2,3.5-0.2c0.5,0,0.7,0,0.7,0.3s-0.2,0.3-0.5,0.3s-1,0-1.5,0.2c-1,0.3-1.5,2-2.3,4.3
		c-1.8,5.1-6.1,18.2-8.1,24.3c-0.5,1.5-0.7,2-1.2,2c-0.3,0-0.7-0.5-1.3-2l-8.4-20.5l0,0c-0.8,2.1-6.3,16.5-7.9,20.3
		c-0.8,1.7-1,2.1-1.5,2.1c-0.3,0-0.5-0.5-1-1.5L715.9,295.5z"/>
	<path fill="#85A063" d="M759.2,309.4c0-6,4.1-13.6,15-13.6c9.1,0,14.7,5,14.7,13.1c0,7.9-5.8,14.2-15,14.2
		C763.4,322.9,759.2,315.5,759.2,309.4z M783.7,310c0-7.6-4.6-12.4-10.4-12.4c-4,0-8.8,2.1-8.8,10.7c0,7.1,4.1,12.7,10.9,12.7
		C777.9,321,783.7,319.8,783.7,310z"/>
	<path fill="#85A063" d="M796.9,306.2c0-5.3,0-6.3,0-7.3c0-1.2-0.3-1.5-1.5-1.8c-0.3,0-0.8-0.2-1.5-0.2c-0.3,0-0.7-0.2-0.7-0.3
		c0-0.2,0.3-0.3,0.8-0.3c1.8,0,4.1,0,5,0c1.2,0,4.5,0,5.6,0c2.3,0,5,0.2,6.8,1.5c1,0.7,2.5,2.5,2.5,4.8c0,2.6-1.5,4.8-5,7.6
		c3.1,4,5.8,7.1,7.9,9.3c2,2,3.3,2.1,3.8,2.3c0.3,0,0.5,0,0.8,0s0.5,0.2,0.5,0.3c0,0.3-0.2,0.3-0.7,0.3h-3.5c-2,0-3-0.2-4-0.7
		c-1.5-0.8-3-2.5-5-5.1c-1.5-1.8-3-4.1-3.5-4.8c-0.2-0.2-0.3-0.2-0.7-0.2h-3.3c-0.2,0-0.3,0-0.3,0.3v0.5c0,3.3,0,6,0.2,7.4
		c0.2,1,0.3,1.7,1.3,1.8c0.5,0,1.3,0.2,1.8,0.2c0.3,0,0.5,0.2,0.5,0.3s-0.3,0.3-0.7,0.3c-2.1,0-5.1-0.2-5.6-0.2
		c-0.7,0-3,0.2-4.5,0.2c-0.5,0-0.7-0.2-0.7-0.3s0.2-0.3,0.5-0.3c0.5,0,1,0,1.3-0.2c0.7-0.2,1-0.8,1-1.8c0.2-1.5,0.2-4.1,0.2-7.4
		v-6.3H796.9z M801.6,308.9c0,0.3,0,0.5,0.3,0.7c0.8,0.2,1.8,0.3,2.8,0.3c1.5,0,2-0.2,2.5-0.5c1.2-0.8,2.3-2.3,2.3-5.1
		c0-5-3.3-6.1-5.5-6.1c-0.8,0-1.8,0-2.1,0.2c-0.2,0-0.3,0.2-0.3,0.5L801.6,308.9L801.6,308.9z"/>
	<path fill="#85A063" d="M829.7,307.7L829.7,307.7c1.3-1.3,6.6-6.4,7.6-7.6c1-1.2,1.8-2,1.8-2.6c0-0.3-0.2-0.7-0.5-0.7
		c-0.3,0-0.5-0.2-0.5-0.3s0.2-0.3,0.5-0.3c0.8,0,2.8,0,3.6,0c1.2,0,3.1,0,4.1,0c0.3,0,0.7,0,0.7,0.3c0,0.2-0.2,0.3-0.5,0.3
		c-0.5,0-1.5,0.2-2.1,0.3c-1.2,0.3-2.3,1.2-3.8,2.6c-1.2,1-6.4,6.1-7.6,7.4c1.3,1.7,8.3,8.9,9.8,10.3c1.7,1.5,3,3,5,3.6
		c1,0.5,1.8,0.5,2.1,0.5c0.3,0,0.5,0.2,0.5,0.3c0,0.2-0.2,0.3-0.8,0.3h-3.1c-1,0-1.7,0-2.5,0c-2-0.2-3.1-0.8-4.6-2.3
		c-1.5-1.3-8.4-9.4-9.3-10.4l-0.3-0.5h-0.2v3.1c0,3.1,0,6,0,7.4c0,1,0.3,1.7,1.3,1.8c0.5,0,1.3,0.2,1.8,0.2c0.3,0,0.5,0.2,0.5,0.3
		c0,0.2-0.3,0.3-0.7,0.3c-2,0-4.6-0.2-5.5-0.2s-3.1,0.2-4.5,0.2c-0.5,0-0.7-0.2-0.7-0.3c0-0.2,0.2-0.3,0.5-0.3c0.5,0,1,0,1.3-0.2
		c0.7-0.2,1-0.8,1-1.8c0.2-1.5,0.2-4.1,0.2-7.4v-6.1c0-5.3,0-6.3,0-7.3c0-1.2-0.3-1.5-1.5-1.8c-0.3,0-0.8-0.2-1.5-0.2
		c-0.3,0-0.7-0.2-0.7-0.3c0-0.2,0.3-0.3,0.8-0.3c1.8,0,4.1,0,5,0s3.5,0,4.6,0c0.5,0,0.8,0,0.8,0.3c0,0.2-0.2,0.3-0.5,0.3
		s-0.5,0-1,0.2c-1,0.2-1.3,0.7-1.3,1.8c0,1.2,0,2.1,0,7.3L829.7,307.7L829.7,307.7z"/>
	<path fill="#85A063" d="M851,321.9c-0.5-0.2-0.7-0.3-0.7-1.2c0-1.8,0.2-4,0.2-4.6c0-0.5,0.2-0.8,0.5-0.8c0.3,0,0.3,0.3,0.3,0.5
		c0,0.5,0.2,1.2,0.3,1.8c0.8,2.6,3.5,3.5,5.8,3.5c3.1,0,5-2,5-4.5c0-1.5-0.3-3-3.6-5l-2.1-1.2c-4.3-2.5-5.6-4.8-5.6-7.9
		c0-4.3,4.1-6.9,9.1-6.9c2.3,0,4.1,0.3,5.1,0.5c0.3,0,0.5,0.2,0.5,0.5c0,0.5-0.2,1.5-0.2,4.1c0,0.7-0.2,1.2-0.5,1.2
		c-0.2,0-0.3-0.2-0.3-0.7c0-0.3-0.2-1.3-1-2.3c-0.5-0.7-1.7-1.7-4-1.7c-2.6,0-5,1.3-5,3.6c0,1.5,0.5,2.8,3.8,4.6l1.5,0.8
		c4.8,2.6,6.3,5.3,6.3,8.4c0,2.6-1,4.6-3.6,6.4c-1.7,1.2-4.1,1.5-6,1.5C854.8,322.9,852.5,322.8,851,321.9z"/>
	<path fill="#85A063" d="M893.6,307.6c0,0,0.2,0,0.2-0.2v-0.7c0-5.3,0-6.6,0-7.6c0-1.2-0.3-1.5-1.5-1.8c-0.3,0-0.8-0.2-1.3-0.2
		c-0.3,0-0.7-0.2-0.7-0.3c0-0.2,0.2-0.3,0.8-0.3c2,0,4.5,0,5.5,0c0.8,0,3.3,0,4.6,0c0.5,0,0.8,0,0.8,0.3c0,0.2-0.2,0.3-0.7,0.3
		c-0.3,0-0.7,0-1,0.2c-1,0.2-1.2,0.7-1.3,1.8c0,1.2,0,2.1,0,7.3v6.1c0,3.1,0,6,0.2,7.4c0.2,1,0.3,1.7,1.5,1.8c0.5,0,1.3,0.2,1.8,0.2
		c0.3,0,0.5,0.2,0.5,0.3s-0.3,0.3-0.7,0.3c-2.3,0-4.6-0.2-5.6-0.2c-0.8,0-3.3,0.2-4.8,0.2c-0.5,0-0.8-0.2-0.8-0.3s0.2-0.3,0.5-0.3
		c0.5,0,1,0,1.3-0.2c0.7-0.2,1-0.8,1-1.8c0.2-1.5,0.2-4.1,0.2-7.3V310c0-0.2-0.2-0.2-0.2-0.2h-13.6c-0.2,0-0.2,0-0.2,0.2v2.6
		c0,3.1,0,5.8,0.2,7.3c0.2,1,0.3,1.7,1.3,1.8c0.5,0,1.3,0.2,1.8,0.2c0.3,0,0.5,0.2,0.5,0.3s-0.3,0.3-0.7,0.3c-2.3,0-4.8-0.2-5.8-0.2
		c-0.8,0-3.1,0.2-4.6,0.2c-0.5,0-0.7-0.2-0.7-0.3s0.2-0.3,0.5-0.3c0.5,0,1,0,1.3-0.2c0.7-0.2,1-0.8,1-1.8c0.2-1.5,0.2-4.1,0.2-7.4
		v-6.1c0-5.3,0-6.3,0-7.3c0-1.2-0.3-1.5-1.5-1.8c-0.3,0-0.8-0.2-1.5-0.2c-0.3,0-0.7-0.2-0.7-0.3c0-0.2,0.3-0.3,0.8-0.3
		c2,0,4.3,0,5.3,0c0.8,0,3.3,0,4.8,0c0.5,0,0.7,0,0.7,0.3c0,0.2-0.2,0.3-0.7,0.3c-0.3,0-0.7,0-1,0.2c-1,0.2-1.3,0.7-1.3,1.8
		s0,2.3,0,7.6v0.7c0,0.2,0.2,0.2,0.2,0.2H893.6z"/>
	<path fill="#85A063" d="M906.5,309.4c0-6,4.1-13.6,15-13.6c9.1,0,14.7,5,14.7,13.1c0,7.9-5.8,14.2-15,14.2
		C910.8,322.9,906.5,315.5,906.5,309.4z M931,310c0-7.6-4.6-12.4-10.4-12.4c-4,0-8.8,2.1-8.8,10.7c0,7.1,4.1,12.7,10.9,12.7
		C925.2,321,931,319.8,931,310z"/>
	<path fill="#85A063" d="M944.2,306.2c0-5.3,0-6.3,0-7.3c0-1.2-0.3-1.5-1.5-1.8c-0.3,0-0.8-0.2-1.5-0.2c-0.3,0-0.7-0.2-0.7-0.3
		c0-0.2,0.3-0.3,0.8-0.3c1.8,0,4.1,0,5.1,0c1.5,0,4.3,0,6,0c4.5,0,6.1,1.5,6.8,2c0.8,0.7,1.8,2.3,1.8,4.1c0,5-4,8.4-9.1,8.4
		c-0.2,0-0.8,0-1,0c-0.2,0-0.5-0.2-0.5-0.3c0-0.3,0.3-0.5,1.2-0.5c2,0,4.8-2.1,4.8-5.6c0-1.2-0.2-3.5-2.1-5.1
		c-1.3-1.2-2.8-1.3-3.6-1.3c-0.5,0-1.2,0-1.5,0.2c-0.2,0-0.3,0.3-0.3,0.7v13.7c0,3.1,0,6,0.2,7.4c0.2,1,0.3,1.7,1.3,1.8
		c0.5,0,1.3,0.2,1.8,0.2c0.3,0,0.5,0.2,0.5,0.3s-0.3,0.3-0.7,0.3c-2.5,0-5-0.2-6-0.2c-0.8,0-3.1,0.2-4.5,0.2c-0.5,0-0.7-0.2-0.7-0.3
		s0.2-0.3,0.5-0.3c0.5,0,1,0,1.3-0.2c0.7-0.2,1-0.8,1-1.8c0.2-1.5,0.2-4.1,0.2-7.4v-6.3H944.2z"/>
</g>
<g>
	<path fill="#85A063" d="M407.4,366.4c0,3.3,0,6,0.2,7.3c0.2,1,0.3,1.8,1.3,1.8c0.5,0,1.2,0.2,1.7,0.2s0.7,0.2,0.7,0.3
		s-0.2,0.3-0.8,0.3c-2.1,0-4.3-0.2-5.3-0.2s-3,0.2-4.3,0.2c-0.5,0-0.7,0-0.7-0.3c0-0.2,0.2-0.3,0.5-0.3c0.5,0,1,0,1.2-0.2
		c0.7-0.2,0.8-0.8,1-1.8c0.2-1.5,0.2-4,0.2-7.3v-6.1c0-5.3,0-6.1,0-7.3c0-1.2-0.3-1.7-1.5-2c-0.3,0-0.8-0.2-1.3-0.2
		c-0.3,0-0.7,0-0.7-0.3s0.3-0.3,0.8-0.3c0.8,0,1.8,0,2.8,0c0.8,0,1.7,0,2.1,0c1.3,0,8.3,0,9.1,0c0.7,0,1,0,1.5-0.2
		c0.2,0,0.3-0.2,0.5-0.2s0.2,0.2,0.2,0.3c0,0.2-0.2,0.7-0.3,1.5c0,0.3-0.2,2.3-0.2,2.8c0,0.3-0.2,0.5-0.3,0.5s-0.3-0.2-0.3-0.5
		s0-0.8-0.2-1.3c-0.2-0.5-1-1-2.3-1l-5.3-0.2c-0.2,0-0.3,0.2-0.3,0.5v8.6c0,0.2,0,0.3,0.2,0.3h4.5c0.7,0,1,0,1.5,0
		c0.7,0,1.2-0.2,1.5-0.7c0.2-0.2,0.2-0.3,0.5-0.3c0.2,0,0.2,0.2,0.2,0.3c0,0.2-0.2,1-0.3,2.1c0,0.7-0.2,2.3-0.2,2.5
		c0,0.3,0,0.7-0.3,0.7c-0.2,0-0.3-0.2-0.3-0.5c0-0.2,0-0.7-0.2-1c-0.2-0.5-0.7-1.2-1.8-1.2c-0.8-0.2-4.5-0.2-5.1-0.2
		c-0.2,0-0.2,0-0.2,0.3v2.8L407.4,366.4L407.4,366.4z"/>
	<path fill="#85A063" d="M422.4,362.6c0-4.5,0-5.3,0-6.1c0-1-0.3-1.3-1.3-1.7c-0.2,0-0.8-0.2-1.2-0.2s-0.5-0.2-0.5-0.3
		c0-0.2,0.2-0.3,0.7-0.3c1.7,0,3.6,0,4.5,0c0.8,0,2.8,0,3.8,0c0.5,0,0.7,0,0.7,0.3c0,0.3-0.2,0.3-0.5,0.3s-0.5,0-0.8,0.2
		c-0.8,0.2-1,0.5-1.2,1.7c0,1,0,1.8,0,6.1v4.1c0,4.3,0.8,6,2.3,7.1c1.3,1,2.8,1.2,3.8,1.2c1.3,0,2.8-0.3,4-1.5
		c1.7-1.7,1.8-4.1,1.8-7.1v-3.6c0-4.5,0-5.3,0-6.1c0-1-0.3-1.3-1.3-1.7c-0.2,0-0.8-0.2-1.2-0.2s-0.5-0.2-0.5-0.3s0.2-0.3,0.7-0.3
		c1.5,0,3.6,0,3.6,0c0.3,0,2.3,0,3.5,0c0.3,0,0.7,0,0.7,0.3s-0.2,0.3-0.5,0.3s-0.5,0-0.8,0.2c-0.8,0.2-1,0.5-1.2,1.7
		c0,1,0,1.8,0,6.1v3.1c0,3.3-0.3,6.6-2.8,8.8c-2.1,1.8-4.5,2.1-6.4,2.1c-1.7,0-4.6,0-6.9-2c-1.5-1.3-2.8-3.5-2.8-7.8V362.6
		L422.4,362.6z"/>
	<path fill="#85A063" d="M448.2,376c-0.5-0.2-0.7-0.3-0.7-1c0-1.7,0.2-3.5,0.2-3.8c0-0.5,0.2-0.8,0.3-0.8c0.3,0,0.3,0.3,0.3,0.5
		c0,0.3,0.2,1,0.3,1.5c0.7,2.1,3,2.8,4.8,2.8c2.6,0,4.1-1.7,4.1-3.6c0-1.3-0.3-2.5-3-4.1l-1.8-1c-3.6-2.1-4.8-4.1-4.8-6.6
		c0-3.6,3.5-6,7.6-6c2,0,3.5,0.3,4.3,0.5c0.3,0,0.3,0.2,0.3,0.3c0,0.3-0.2,1.2-0.2,3.5c0,0.7-0.2,1-0.3,1c-0.2,0-0.3-0.2-0.3-0.5
		c0-0.3-0.2-1.2-0.8-2c-0.5-0.5-1.5-1.3-3.3-1.3c-2.1,0-4.1,1.2-4.1,3.1c0,1.3,0.5,2.3,3.1,3.8l1.2,0.7c4,2.1,5.3,4.5,5.3,7.1
		c0,2.1-0.8,4-3,5.5c-1.5,1-3.5,1.2-5.1,1.2C451.3,376.7,449.5,376.5,448.2,376z"/>
	<path fill="#85A063" d="M468.4,362.6c0-4.5,0-5.3,0-6.1c0-1-0.3-1.3-1-1.5c-0.3-0.2-0.7-0.2-1.2-0.2c-0.3,0-0.5,0-0.5-0.3
		c0-0.2,0.2-0.2,0.7-0.2c1.2,0,3.1,0,4.1,0c0.8,0,2.6,0,3.8,0c0.3,0,0.7,0,0.7,0.2c0,0.3-0.2,0.3-0.5,0.3c-0.3,0-0.5,0-0.8,0.2
		c-0.8,0.2-1,0.5-1.2,1.7c0,1,0,1.8,0,6.1v5.1c0,2.8,0,5.1,0.2,6.4c0.2,0.8,0.3,1.2,1.2,1.3c0.3,0,1.2,0.2,1.5,0.2
		c0.3,0,0.5,0.2,0.5,0.3c0,0.2-0.2,0.3-0.7,0.3c-2,0-4.1-0.2-4.8-0.2s-2.8,0.2-4,0.2c-0.3,0-0.7-0.2-0.7-0.3c0-0.2,0.2-0.3,0.5-0.3
		c0.5,0,0.8,0,1-0.2c0.7-0.2,0.8-0.5,0.8-1.5c0.2-1.2,0.2-3.5,0.2-6.3v-5.3H468.4z"/>
	<path fill="#85A063" d="M479.1,365.3c0-5,3.5-11.4,12.7-11.4c7.6,0,12.4,4.3,12.4,10.9c0,6.6-4.8,11.9-12.7,11.9
		C482.6,376.7,479.1,370.4,479.1,365.3z M499.6,365.8c0-6.4-3.8-10.4-8.8-10.4c-3.3,0-7.3,1.8-7.3,8.9c0,6,3.5,10.7,9.1,10.7
		C494.8,375.2,499.6,374.2,499.6,365.8z"/>
	<path fill="#85A063" d="M512.7,372.4c0,2.3,0.5,3,1,3.1c0.5,0.2,1.2,0.2,1.7,0.2c0.3,0,0.5,0.2,0.5,0.3s-0.3,0.3-0.7,0.3
		c-2,0-3.3-0.2-4-0.2c-0.3,0-1.7,0.2-3.3,0.2c-0.3,0-0.7,0-0.7-0.3c0-0.2,0.2-0.3,0.5-0.3c0.5,0,1,0,1.3-0.2c0.8-0.2,0.8-1,1-3.5
		l0.3-17.4c0-0.7,0.2-1,0.5-1c0.3,0,0.8,0.5,1.3,1c0.3,0.3,5,5,9.3,9.3c2,2,6.1,6.1,6.4,6.6h0.2l-0.3-12.9c0-1.8-0.3-2.3-1-2.6
		c-0.5-0.2-1.2-0.2-1.7-0.2c-0.3,0-0.5-0.2-0.5-0.3s0.3-0.3,0.8-0.3c1.7,0,3.1,0,3.8,0c0.3,0,1.5,0,3,0c0.3,0,0.7,0,0.7,0.3
		c0,0.2-0.2,0.3-0.5,0.3c-0.3,0-0.5,0-1,0.2c-0.8,0.2-1,0.8-1.2,2.5l-0.3,18.4c0,0.7-0.2,1-0.5,1c-0.5,0-1-0.3-1.2-0.7
		c-1.8-1.8-5.6-5.3-8.8-8.4c-3.3-3.1-6.4-6.6-7.1-7.3h-0.2L512.7,372.4z"/>
	<path fill="#85A063" d="M546.8,365.3c0-5,3.5-11.4,12.7-11.4c7.6,0,12.4,4.3,12.4,10.9c0,6.6-4.8,11.9-12.7,11.9
		C550.2,376.7,546.8,370.4,546.8,365.3z M567.3,365.8c0-6.4-3.8-10.4-8.8-10.4c-3.3,0-7.3,1.8-7.3,8.9c0,6,3.5,10.7,9.1,10.7
		C562.5,375.2,567.3,374.2,567.3,365.8z"/>
	<path fill="#85A063" d="M582.5,367.9c0,2.8,0,4.8,0.2,6.1c0.2,0.8,0.3,1.5,1.2,1.5c0.3,0,1,0.2,1.5,0.2c0.3,0,0.5,0.2,0.5,0.3
		s-0.2,0.3-0.7,0.3c-2,0-4-0.2-4.8-0.2s-2.6,0.2-3.8,0.2c-0.3,0-0.7,0-0.7-0.3c0-0.2,0.2-0.3,0.5-0.3c0.5,0,0.8,0,1-0.2
		c0.7-0.2,0.8-0.7,0.8-1.5c0.2-1.2,0.2-3.5,0.2-6.3v-5.1c0-4.5,0-5.3,0-6.1c0-1-0.3-1.3-1.3-1.7c-0.2,0-0.8-0.2-1.2-0.2
		c-0.3,0-0.5-0.2-0.5-0.3c0-0.2,0.2-0.3,0.7-0.3c1.5,0,3.5,0,4.3,0c1.2,0,7.9,0,8.6,0c0.5,0,1,0,1.2-0.2c0.2,0,0.3-0.2,0.5-0.2
		c0.2,0,0.2,0.2,0.2,0.3c0,0.2-0.2,0.5-0.2,1.3c0,0.3-0.2,2-0.2,2.3c0,0.2-0.2,0.7-0.3,0.7c-0.2,0-0.3-0.2-0.3-0.5
		c0-0.2,0-0.7-0.2-1.2c-0.2-0.3-0.8-0.8-2-0.8l-5-0.2c-0.2,0-0.3,0-0.3,0.3v7.1c0,0.2,0,0.3,0.2,0.3h4.3c0.5,0,1,0,1.3,0
		c0.5,0,1-0.2,1.3-0.5c0.2-0.2,0.2-0.3,0.3-0.3s0.2,0.2,0.2,0.3s-0.2,1-0.2,1.8c0,0.7-0.2,2-0.2,2.1s0,0.7-0.3,0.7
		c-0.2,0-0.3-0.2-0.3-0.3c0-0.2,0-0.5-0.2-0.8s-0.5-1-1.5-1c-0.8,0-4.3-0.2-4.8-0.2c-0.2,0-0.2,0-0.2,0.2v2.5L582.5,367.9
		L582.5,367.9z"/>
	<path fill="#85A063" d="M616,353.7c-0.3-1.3-0.8-2.1-1.3-2.5c-0.3-0.2-1-0.3-1.3-0.3s-0.5,0-0.5-0.3c0-0.2,0.3-0.3,0.8-0.3
		c1.8,0,3.6,0.2,4,0.2c0.3,0,1.8-0.2,3.8-0.2c0.5,0,0.7,0.2,0.7,0.3c0,0.3-0.3,0.3-0.7,0.3c-0.3,0-0.7,0-0.8,0.2
		c-0.3,0.2-0.3,0.3-0.3,0.8c0,0.5,0.3,1.7,0.8,3.1c0.7,2.3,3.8,12.7,4.5,14.6h0.2l6.6-17.9c0.3-1,0.7-1.2,0.8-1.2
		c0.3,0,0.5,0.5,1,1.7l7.1,17.2h0.2c0.7-2.3,3.3-11.4,4.6-15.4c0.2-0.8,0.3-1.5,0.3-2s-0.3-1-1.7-1c-0.3,0-0.7-0.2-0.7-0.3
		c0-0.2,0.3-0.3,0.8-0.3c1.8,0,3.3,0.2,3.6,0.2c0.2,0,1.7-0.2,2.8-0.2c0.3,0,0.7,0,0.7,0.3c0,0.2-0.2,0.3-0.5,0.3
		c-0.3,0-0.8,0-1.2,0.2c-0.8,0.3-1.2,1.7-2,3.6c-1.7,4.3-5.1,15.2-6.9,20.3c-0.3,1.2-0.5,1.7-1,1.7c-0.3,0-0.5-0.3-1-1.7l-7.1-17.2
		l0,0c-0.7,1.8-5.3,13.9-6.6,17c-0.7,1.5-0.8,1.8-1.2,1.8c-0.3,0-0.5-0.3-0.8-1.3L616,353.7z"/>
	<path fill="#85A063" d="M655.7,362.6c0-4.5,0-5.3,0-6.1c0-1-0.3-1.3-1.3-1.7c-0.2,0-0.8-0.2-1.2-0.2c-0.3,0-0.5-0.2-0.5-0.3
		c0-0.2,0.2-0.3,0.7-0.3c1.7,0,3.5,0,4.3,0c1,0,7.6,0,8.3,0c0.5,0,1-0.2,1.3-0.2c0.2,0,0.3-0.2,0.5-0.2c0.2,0,0.2,0.2,0.2,0.3
		c0,0.2-0.2,0.5-0.2,1.8c0,0.3-0.2,1.7-0.2,2c0,0.2-0.2,0.5-0.3,0.5c-0.2,0-0.2-0.2-0.2-0.3s0-0.7-0.2-1c-0.2-0.5-0.5-1-2-1
		c-0.5,0-4.1-0.2-4.8-0.2c-0.2,0-0.2,0.2-0.2,0.3v7.3c0,0.2,0,0.3,0.2,0.3c0.7,0,4.6,0,5.3,0c0.7,0,1.2-0.2,1.5-0.5
		c0.2-0.2,0.3-0.3,0.5-0.3c0.2,0,0.2,0.2,0.2,0.3c0,0.2,0,0.7-0.2,2.1c0,0.7-0.2,1.8-0.2,2c0,0.2,0,0.7-0.3,0.7
		c-0.2,0-0.3-0.2-0.3-0.2c0-0.3,0-0.7-0.2-1c-0.2-0.7-0.5-1-1.7-1.2c-0.5,0-4-0.2-4.8-0.2c-0.2,0-0.2,0.2-0.2,0.3v2.3
		c0,1,0,3.5,0,4.3c0,2,1,2.5,4.1,2.5c0.8,0,2,0,2.8-0.3s1.2-1,1.3-2.1c0-0.3,0.2-0.5,0.3-0.5s0.3,0.3,0.3,0.7c0,0.7-0.2,2.6-0.3,3.3
		c-0.2,0.8-0.5,0.8-1.7,0.8c-2.3,0-4.1,0-5.6-0.2c-1.5,0-2.6,0-3.5,0c-0.3,0-1,0-1.7,0s-1.5,0-2.1,0c-0.3,0-0.7-0.2-0.7-0.3
		c0-0.2,0.2-0.3,0.5-0.3c0.5,0,0.8,0,1-0.2c0.7-0.2,0.8-0.7,0.8-1.5c0.2-1.2,0.2-3.5,0.2-6.3L655.7,362.6L655.7,362.6z"/>
	<path fill="#85A063" d="M675.6,362.6c0-4.5,0-5.3,0-6.1c0-1-0.3-1.3-1.3-1.7c-0.2,0-0.8-0.2-1.2-0.2c-0.3,0-0.5-0.2-0.5-0.3
		c0-0.2,0.2-0.3,0.7-0.3c1.7,0,3.5,0,4.1,0c1.5,0,3.5,0,4.5,0c5.5,0,6.4,2.8,6.4,4.3c0,2.3-1.7,4-3.5,5.1c2.5,0.8,5.6,2.8,5.6,6.3
		c0,3.1-2.5,6.3-8.1,6.3c-0.3,0-1.3,0-2.5-0.2c-1,0-2.1,0-2.6,0c-0.3,0-1,0-1.7,0s-1.5,0-2.1,0c-0.3,0-0.7-0.2-0.7-0.3
		c0-0.2,0.2-0.3,0.5-0.3c0.5,0,0.8,0,1-0.2c0.7-0.2,0.8-0.7,0.8-1.5c0.2-1.2,0.2-3.5,0.2-6.3v-4.6L675.6,362.6L675.6,362.6z
		 M679.4,363.1c0,0.2,0.2,0.3,0.2,0.3c0.3,0,0.7,0.2,1.5,0.2c1,0,1.8-0.2,2.3-0.5c0.8-0.7,1.3-1.7,1.3-3.1c0-2-1.2-4.5-3.8-4.5
		c-0.3,0-1,0-1.3,0c-0.2,0-0.3,0.2-0.3,0.5v7.1H679.4z M679.4,371.7c0,2,0.2,2.5,1,2.8c0.8,0.3,1.5,0.3,2.1,0.3
		c1.7,0,3.6-0.8,3.6-4.1c0-1.3-0.7-3.6-2.8-5.1c-0.7-0.5-1.5-0.8-2.6-0.8h-1.3c-0.2,0-0.2,0-0.2,0.2v6.8L679.4,371.7L679.4,371.7z"
		/>
	<path fill="#85A063" d="M709.1,368.9c-0.2,0-0.2,0-0.3,0.2l-1.7,4c-0.3,0.7-0.5,1.5-0.5,1.8c0,0.5,0.3,0.8,1.2,0.8h0.5
		c0.3,0,0.5,0.2,0.5,0.3s-0.2,0.3-0.5,0.3c-1,0-2.5-0.2-3.3-0.2c-0.3,0-2,0.2-3.5,0.2c-0.3,0-0.5,0-0.5-0.3c0-0.2,0.2-0.3,0.3-0.3
		c0.3,0,0.7,0,0.8,0c1.3-0.2,1.8-1.2,2.5-2.6l7.9-18.4c0.3-0.8,0.7-1.2,0.8-1.2c0.5,0,0.7,0.3,0.8,1c0.7,1.7,5.8,13.6,7.8,18
		c1.2,2.6,2,3,2.6,3.1c0.5,0,0.8,0.2,1.2,0.2s0.3,0.2,0.3,0.3c0,0.2-0.2,0.3-1.3,0.3c-1,0-3.3,0-5.8,0c-0.5,0-0.8,0-0.8-0.2
		c0-0.2,0-0.3,0.3-0.3c0.2,0,0.3-0.3,0.3-0.7l-2.3-6c0-0.2-0.2-0.2-0.3-0.2h-7.1L709.1,368.9L709.1,368.9z M715.6,367.4
		c0.2,0,0.2,0,0.2-0.2l-2.8-7.4c0-0.2,0-0.3-0.2-0.3s-0.2,0.2-0.2,0.3l-3,7.3c0,0.2,0,0.2,0.2,0.2h5.8V367.4z"/>
	<path fill="#85A063" d="M731.4,372.4c0,2.3,0.5,3,1,3.1c0.5,0.2,1.2,0.2,1.7,0.2c0.3,0,0.5,0.2,0.5,0.3s-0.3,0.3-0.7,0.3
		c-2,0-3.3-0.2-4-0.2c-0.3,0-1.7,0.2-3.3,0.2c-0.3,0-0.7,0-0.7-0.3c0-0.2,0.2-0.3,0.5-0.3c0.3,0,1,0,1.3-0.2c0.8-0.2,0.8-1,1-3.5
		l0.3-17.4c0-0.7,0.2-1,0.5-1s0.8,0.5,1.3,1c0.3,0.3,5,5,9.3,9.3c2,2,6.1,6.1,6.4,6.6h0.2l-0.3-12.9c0-1.8-0.3-2.3-1-2.6
		c-0.5-0.2-1.2-0.2-1.7-0.2c-0.3,0-0.5-0.2-0.5-0.3s0.3-0.3,0.8-0.3c1.7,0,3.1,0,3.8,0c0.3,0,1.5,0,3,0c0.3,0,0.7,0,0.7,0.3
		c0,0.2-0.2,0.3-0.5,0.3s-0.5,0-1,0.2c-0.8,0.2-1,0.8-1.2,2.5l-0.3,18.4c0,0.7-0.2,1-0.5,1c-0.5,0-1-0.3-1.2-0.7
		c-1.8-1.8-5.6-5.3-8.8-8.4c-3.3-3.1-6.4-6.6-7.1-7.3h-0.2L731.4,372.4z"/>
	<path fill="#85A063" d="M758.4,362.6c0-4.5,0-5.3,0-6.1c0-1-0.3-1.3-1.3-1.7c-0.2,0-0.8-0.2-1.2-0.2c-0.3,0-0.5-0.2-0.5-0.3
		c0-0.2,0.2-0.3,0.7-0.3c1.7,0,3.5,0,4.3,0c1,0,3.1,0,5,0c3.8,0,8.9,0,12.2,3.3c1.5,1.5,2.8,4,2.8,7.4c0,3.6-1.7,6.4-3.3,8.1
		c-1.3,1.3-4.6,3.5-10.1,3.5c-1.2,0-2.5-0.2-3.6-0.2c-1.2-0.2-2.3-0.2-3-0.2c-0.3,0-1,0-1.7,0c-0.7,0-1.5,0-2.1,0
		c-0.3,0-0.7-0.2-0.7-0.3c0-0.2,0.2-0.3,0.5-0.3c0.5,0,0.8,0,1-0.2c0.7-0.2,0.8-0.7,0.8-1.5c0.2-1.2,0.2-3.5,0.2-6.3L758.4,362.6
		L758.4,362.6z M762.4,365.9c0,3.1,0,5.3,0,6s0.2,1.8,0.3,2c0.3,0.5,1.7,1.2,4,1.2c2.8,0,4.8-0.5,6.6-2c2-1.7,2.6-4.3,2.6-7.3
		c0-3.6-1.5-6.1-2.8-7.3c-2.8-2.5-6.1-2.8-8.4-2.8c-0.7,0-1.7,0-1.8,0.2c-0.3,0.2-0.3,0.2-0.3,0.7c0,1,0,3.5,0,5.6L762.4,365.9
		L762.4,365.9z"/>
	<path fill="#85A063" d="M808.3,374.4c3.5,0,4.8-0.8,5.5-1.8c0.3-0.5,0.5-1.2,0.7-1.7c0-0.3,0.2-0.5,0.3-0.5c0.3,0,0.3,0.2,0.3,1
		c0,1.2-0.5,3.3-0.7,4.1c-0.2,0.7-0.3,0.8-1,0.8c-5.8,0-11.6-0.2-18.5-0.2c-0.3,0-0.7-0.2-0.7-0.3c0-0.2,0.2-0.3,0.5-1
		c4.8-7.6,9.9-15.4,14.6-22.5h-6.8c-1.8,0-3.8,0.2-5,0.7c-1.2,0.7-1.8,1.8-1.8,2.6c0,0.5-0.2,0.7-0.3,0.7c-0.2,0-0.3-0.2-0.3-0.7
		c0-0.8,0.5-4,0.7-5c0-0.5,0.2-0.7,0.3-0.7c0.3,0,0.5,0.2,1.3,0.2c3.3,0.2,5,0.2,6.3,0.2h10.4c0.3,0,0.7,0.2,0.7,0.3
		c0,0.2-0.2,0.3-0.3,0.7c-4.8,7.8-9.9,15.5-14.9,23H808.3L808.3,374.4z"/>
	<path fill="#85A063" d="M822.2,360.3c0-5.3,0-6.1,0-7.3c0-1.2-0.3-1.7-1.5-2c-0.3,0-0.8-0.2-1.3-0.2c-0.3,0-0.7,0-0.7-0.3
		c0-0.2,0.2-0.3,0.8-0.3c1,0,2,0,2.8,0s1.7,0,2.1,0c1.2,0,7.9,0,8.6,0c0.7,0,1.2-0.2,1.5-0.2c0.2,0,0.3-0.2,0.5-0.2s0.2,0.2,0.2,0.3
		s-0.2,0.7-0.3,2.1c0,0.3-0.2,1.8-0.2,2.3c0,0.2-0.2,0.3-0.3,0.3s-0.3-0.2-0.3-0.5c0-0.2,0-0.8-0.2-1.2c-0.2-0.7-0.7-1-2.3-1.2
		c-0.7,0-4.1-0.2-5-0.2c-0.2,0-0.2,0.2-0.2,0.3v8.8c0,0.2,0,0.3,0.2,0.3c0.8,0,4.6,0,5.5,0s1.3-0.2,1.7-0.5c0.2-0.3,0.3-0.5,0.5-0.5
		c0.2,0,0.2,0,0.2,0.3c0,0.2-0.2,0.8-0.3,2.5c0,0.7-0.2,2-0.2,2.3c0,0.3,0,0.7-0.3,0.7c-0.2,0-0.3-0.2-0.3-0.3c0-0.3,0-0.8-0.2-1.2
		c-0.2-0.7-0.7-1.2-2-1.3c-0.7,0-4.1-0.2-4.8-0.2c-0.2,0-0.2,0.2-0.2,0.3v2.6c0,1.2,0,4.3,0,5.3c0,2.3,0.7,2.8,4.1,2.8
		c0.8,0,2.3,0,3.3-0.3c0.8-0.3,1.3-1.2,1.5-2.5c0-0.3,0.2-0.5,0.3-0.5c0.3,0,0.3,0.3,0.3,0.7c0,0.8-0.3,3.1-0.5,3.8
		c-0.2,0.8-0.5,0.8-1.8,0.8c-2.6,0-4.5,0-6-0.2c-1.5,0-2.5-0.2-3.6-0.2c-0.3,0-1.2,0-2,0s-1.7,0-2.3,0c-0.5,0-0.7-0.2-0.7-0.3
		c0-0.2,0.2-0.3,0.5-0.3c0.5,0,1,0,1.2-0.2c0.7-0.2,0.8-0.8,1-1.8c0.2-1.5,0.2-4.1,0.2-7.3v-5.8L822.2,360.3L822.2,360.3z"/>
	<path fill="#85A063" d="M845.9,371.7c0,2.6,0.5,3.6,1.2,3.8c0.7,0.2,1.2,0.2,1.8,0.2c0.3,0,0.7,0,0.7,0.3s-0.3,0.3-0.8,0.3
		c-2.1,0-3.6-0.2-4.3-0.2c-0.3,0-2,0.2-3.6,0.2c-0.5,0-0.8,0-0.8-0.3c0-0.2,0.2-0.3,0.5-0.3c0.5,0,1,0,1.5-0.2c0.8-0.3,1-1.3,1-4.3
		l0.3-20.3c0-0.7,0.2-1.2,0.5-1.2c0.3,0,0.7,0.5,1.3,1c0.3,0.5,5.6,6.1,10.6,11.1c2.3,2.3,6.9,7.3,7.6,7.8h0.2l-0.3-15.4
		c0-2.1-0.3-2.8-1.2-3.1c-0.5-0.2-1.3-0.2-1.8-0.2c-0.3,0-0.5-0.2-0.5-0.3c0-0.3,0.3-0.3,0.8-0.3c1.8,0,3.5,0.2,4.1,0.2
		c0.3,0,1.7-0.2,3.3-0.2c0.5,0,0.8,0,0.8,0.3c0,0.2-0.2,0.3-0.7,0.3c-0.3,0-0.7,0-1,0.2c-1,0.3-1.2,1-1.3,3l-0.3,21.7
		c0,0.8-0.2,1-0.5,1c-0.3,0-0.8-0.3-1.2-0.8c-2.1-2-6.6-6.6-10.1-10.1c-3.8-3.6-7.6-7.9-8.1-8.6h-0.2L845.9,371.7z"/>
</g>
<g>
	<path fill="#85A063" d="M515.5,127.9c-30.3-29.7-56.7,11.8-46.8,23.5c-23.7,16.5-1.9,45.8,9.1,40.2c12.6,10.9,24.5-9.7,17.1-16.1
		c-7.4-6.6-13.2,3.5-13.2,3.5c-1.4,2.7-9.5,1.9-5.2-5.6c5.8-10.1,19.4-8.7,24.5-3.1c5.2,5.6,9.7,15.1-0.6,28
		c-7.8,11.3-29.7,8-44.3-9.9c-14.6-17.9,1.9-36.7,1.9-36.7s3.9-4.5-2.9-12.8c-7-8-25.4-9.1-26.2,1.2c0,0-10.3-10.1-25.4,7
		c-15.1,17.1,4.9,34.6,14.2,36.7c9.3,2.1,12.4-7.2,8.2-12.8c-4.1-5.6-4.7,2.9-9.1,1c-4.3-1.9-1.2-11.1,8-9.1
		c18.6,6.4,8.2,29.5-3.1,28.7c-11.3-0.8-19.4-3.5-24.5-17.1c-2.1,2.3-6.6,15.9,2.3,21.7c8.9,5.8,0.8,11.8-10.1,10.3
		c-10.9-1.4-8-7-12.8-23.3c-4.7-16.3-23.3-12.4-32.6-5.4c-1.2,0.8-2.3,1.2-3.5,1.4c18.1,20.6,30.9,46.4,36.1,75.3
		c2.3-0.2,4.5-0.8,6.6-1.9c1.6,9.5,20.4,16.9,30.5,5.6c10.1-11.3,11.5-21.2,0-33.2c-11.5-12.2,0.8-20.4,9.3-13
		c8.5,7.4,14.6,3.9,23.9-3.1c-6.2,19.8,9.3,10.1,15.5,23.7c6.2,13.6,34,18.8,42.7-4.9c13.8,6.2,39.6-17.5,28-41
		C557,173.5,549.8,135.8,515.5,127.9z"/>
</g>
<path fill="#D8A94C" d="M89.7,183.3l2.6-1.7c-2.6-12.9-5.2-25.8-8.1-38.7c-1-21.4,7.8-41.4,8.4-62.9c-6.6-8.9-12.1-6.2-17.5-11.2
	c-6-5.7-8.5-17.4-14.2-23.5c-1.6,0.1-3.2,0.2-4.7,0.2c-1.6,0.5-3.3,1.2-5,1.7c-18.2,42-4.7,85.3,34.2,134.8
	C86.8,182.4,88.2,182.8,89.7,183.3z"/>
<path fill="#ED703E" d="M108.4,148.8c9.1-10.9,8.5-27.7,17.5-40.1c11.8-16.2,44.1-32,46.6-51.2c-2.5-6.7-6.2-10-10.5-15.4
	c3.2-9.7,5.7-16.9,2.8-28.7c-2.7-1.2-5.6-2.5-8.3-4c-4,2-7.9,3.9-11.9,5.9c-8.7,9.6-17.3,19-25.9,28.4
	c-15.8,24.1-28.1,72.5-11.8,104.7C107.4,148.6,107.8,148.7,108.4,148.8z"/>
<path fill="#D8A94C" d="M87.8,217.7l3.5-2.1c-0.1-1.6-0.4-3.2-0.5-4.8c-2.2-7.8-12.2-12.8-17.5-19c-9.4-16.2-18.7-32.2-28.1-48.4
	c-5.5-4.1-39.2-9.3-47-4.9C-12.7,188.6,64.2,214,87.8,217.7z"/>
<path fill="#D8A94C" d="M171,74.9c-10.1,15.6-29.6,25.8-30.5,43.7c0.1,0.4,0.3,0.6,0.2,1l0,0c0.6,1.1,1.2,2,1.9,2.7
	c0.4,0.1,0.5,0.3,0.9,0.4c0.4-0.1,0.8-0.1,1.2,0c0.6-0.1,1.2-0.4,1.8-0.5c1.2-0.2,2.4-0.4,3.6-0.5c8.9-4.5,17.9-8.8,26.8-13.2
	c18.7-1.4,37.2-2.9,56-4.3c11.3-8,3.2-12.9,7.4-21.3c5.6-10.7,18.2-9.5,14.7-23.1C247.7,38.2,193.6,59.9,171,74.9z"/>
<path fill="#C9AB2D" d="M115,252.6c0.2-4.3,0.7-5.3-1.7-10.6c-14.7-7-53.5-24.6-69.8-16.8c-6.4,5.7-13.1,11.3-19.5,17
	c-4.9,12.4,12.1,21.9,20,25C66.7,276.5,90.6,272.3,115,252.6z"/>
<g>
	<path fill="#C9AB2D" d="M256.7,231.7c-5.4-2.5-10.4-4-14.9-4.1c-0.2,0-3.8,0.7-10.8,2.2c-7.4,1.6-11.7,2.3-12.9,2.5
		c1.1-7,3.1-12.6,6.3-16.7c0.4-0.5,0.5-1.1,0.7-1.6c0.2-3.2-2-6.5-6.5-9.2c9.2-2.2,18.9-2.9,29.1-2.3c1.3,0,2.9,0.2,5.4,0.5
		c2.3,0.4,4.1,0.5,5.4,0.5c7.6,0.4,11.3-1.6,11.5-5.9c0.4-5.2-2.7-9.7-9.2-13.3c-5.4-2.9-11-4.7-16.9-5c-3.4-0.2-12,1.3-25.9,4
		c-9.2,2.2-18.5,4-27.7,5.9c-15.3,2.9-27.5,0.2-29.9,0.2c-3.4-0.2-6.7-1.1-9.4-2.5l-1.4,1.1c0.4,2.7,2.3,6.8,6.3,12.4
		c3.8,5.6,6.8,8.8,9.4,9.5c12.4-4.5,25.7-2.7,32.7-2.5c0,0.9,0.9,2.5,2.2,5.2c1.3,2.2,1.8,5,1.6,8.6c-0.2,4.7-1.1,9-2.2,13.3
		c-16.9,3.6-26.1,5.4-28.1,5.2c-4.1-0.2-8.3-1.4-12.4-3.4l-1.4,2.2c0.7,3.4,2.5,7.7,5.8,12.9c3.4,5.8,6.7,9,9,9.7
		c4.7-3.1,8.1-5.2,10.4-6.1c2.9-1.3,7-1.8,12-2.2c-10.8,26.6-26.4,51.1-57.2,68.9l1.4,1.1c3.2,0.5,6.5,0.9,9.4,1.1
		c27.7,1.4,44.2-19.1,60.1-56.8c0,0,0,0.2,0.2,0.2c0.2-0.2,0.2-0.4,0.4-0.5c0.4-0.7,0.7-1.4,1.3-2.2c1.4-2.9,2.7-6.1,4.3-9
		c0-0.4,0.2-0.5,0.4-0.9c0.2-0.5,0.5-1.1,0.7-1.6c0.2-0.4,0.4-0.7,0.5-1.1c0.2-0.5,0.5-1.1,1.1-1.6c0.5-0.5,1.1-0.9,1.8-1.1
		c0.2,0,0.4-0.2,0.5-0.2c0.5-0.2,1.3-0.4,2-0.4c0.2,0,0.4,0,0.5,0c3.8-0.4,7.6-0.4,11.5-0.2c2.3,0.2,6.1,0.5,11,1.3
		c4.9,0.7,8.5,1.3,11,1.3c2.7,0.2,5.4-0.7,7.4-2.3c2.2-1.8,3.2-4.1,3.4-6.8C266.2,238.4,263.2,234.8,256.7,231.7z"/>
	<path fill="#C9AB2D" d="M347.2,308.7c0.2,1.8-0.2,3.2-0.9,4.7c-1.6,2.9-6.8,5.8-16.4,8.6c-7.7,2.3-14.6,3.8-20.1,4.5
		c-10.4,1.1-21,0.9-32.2-0.7c-11.9-1.6-21.8-4.3-29.1-8.5c-12.4-6.7-20.9-13.3-25.4-20.3c-4.3-6.7-7.7-12.4-10.1-17.3
		c-3.8-8.1-6.1-12.4-6.3-13.1c-2.7-5-5.9-9.2-9.5-12l0.2-1.6c2-0.5,3.6-0.9,5.4-1.1c3.8-0.4,8.5,0.2,14.4,1.6
		c6.7,1.6,10.1,3.6,10.4,6.1c0,0.9,0.2,2.2,0.2,3.4c0.2,1.8,0.4,2.7,0.4,3.4c0.4,3.8,1.8,7.6,3.8,11.2c0.4,0.9,2.5,4.1,6.8,10.3
		c5.6,7.7,14.2,13.7,25.9,17.6c11.7,4,23.9,5.4,36.1,4.1c11-1.3,16.2-6.1,15.3-15.1c-0.5-5.4-2.7-10.6-6.7-15.5l0.4-1.6
		c6.5,2.7,13.8,7.4,22.1,14C341.8,299,346.8,304.6,347.2,308.7z"/>
	<path fill="#C9AB2D" d="M291.9,280.1c1.3,6.3-0.7,10.1-5.8,11c-3.6,0.7-6.7-0.4-9.2-3.2c-0.5-0.5-2-3.1-4.3-7.7
		c-2.7-5.4-6.1-10.3-9.5-14.6l-0.2-1.8c0.9-0.4,1.8-0.5,2.7-0.7c6.1-1.3,11.7-0.2,16.7,3.1C287.6,269.3,290.9,274,291.9,280.1z"/>
	<path fill="#C9AB2D" d="M342.7,262.3c0.9,5-2.2,8.1-8.6,9.2c-1.4,0.2-4-0.5-7.7-2.3c-2.9-1.4-6.7-4-11.5-7.7
		c-4.9-3.8-8.5-6.5-11-7.7l-0.4-1.3c3.2-1.8,6.5-2.9,9.5-3.2c5.6-0.9,11.3-0.2,17.6,2.2C337.6,253.7,341.8,257.4,342.7,262.3z"/>
</g>
<path fill="#C9AB2D" d="M245,117.4c-75.1,0-135.7,60.8-135.7,135.7c0,75.1,60.8,135.7,135.7,135.7c75.1,0,135.7-60.8,135.7-135.7
	S320.1,117.4,245,117.4z M245,368.5c-63.6,0-115.3-51.5-115.3-115.3c0-63.6,51.5-115.3,115.3-115.3s115.3,51.7,115.3,115.3
	S308.8,368.5,245,368.5z"/>
</svg>
